<?xml version="1.0" encoding="UTF-8"?>
<svg width="825px" height="505px" viewBox="0 0 825 505" version="1.1" xmlns="http://www.w3.org/2000/svg" xmlns:xlink="http://www.w3.org/1999/xlink">
    <!-- Generator: Sketch 47.1 (45422) - http://www.bohemiancoding.com/sketch -->
    <title>Group</title>
    <desc>Created with Sketch.</desc>
    <defs>
        <rect id="path-1" x="0" y="0" width="825" height="505"></rect>
        <linearGradient x1="0%" y1="0%" x2="101.999998%" y2="100.999999%" id="linearGradient-3">
            <stop stop-color="#3023AE" offset="0%"></stop>
            <stop stop-color="#C86DD7" offset="100%"></stop>
        </linearGradient>
    </defs>
    <g id="Page-1" stroke="none" stroke-width="1" fill="none" fill-rule="evenodd">
        <g id="Group" transform="translate(412.500000, 252.500000) rotate(-180.000000) translate(-412.500000, -252.500000) ">
            <mask id="mask-2" fill="white">
                <use xlink:href="#path-1"></use>
            </mask>
            <use id="Rectangle" fill="#FFFFFF" xlink:href="#path-1"></use>
            <path d="M-35.6566394,518 C-35.6566394,518 143.177825,446.045052 278.895144,443.878814 C414.612462,441.712576 485.044693,500.16459 604.333477,485.340352 C723.62226,470.516115 901.281478,389.214439 901.281478,389.214439 L911.009884,-7.56553502 L-66,-21 L-35.6566394,518 Z" id="Path-2" fill="url(#linearGradient-3)" mask="url(#mask-2)"></path>
            <g id="loading-copy-2" mask="url(#mask-2)" fill="#FFFFFF">
                <g transform="translate(-2.000000, 383.000000)">
                    <path d="M0,0.394808849 C0,0.394808849 50.80044,39.7169617 128.940144,38.8311803 C181.008152,38.242641 228.584631,-4.53049217 297.988167,0.394808859 C344.854679,3.72094757 396.377448,50.4860417 448.713488,49.8142747 C502.166328,49.1276455 558.147793,2.22581993 639.546688,0.394808849 C720.945583,-1.43620223 791.090864,59.334938 856.1668,60.7943966 C967.966856,63.3031196 1045.1489,11.4462688 1047,16.8679641 L1047,131 L0,131 L0,0.394808849 Z" id="Fill-1" style="mix-blend-mode: overlay;" opacity="0.200000003"></path>
                    <path d="M0,94.8039344 C0,94.8039344 37.0997497,21.2486036 168.77047,23.5423857 C273.640782,25.3702897 294.87708,72.7741306 355.876696,72.8779888 C406.118736,72.9610753 463.452456,21.5186347 515.763368,23.5423855 C567.594056,25.5483321 614.57504,77.9551701 665.3336,78.3587333 C714.782712,78.750427 756.469258,19.9399904 835.536712,18.061641 C914.604166,16.1832916 937.950304,57.744367 972.420336,72.8779876 C1026.02953,96.409284 1047,100.284679 1047,100.284679 L1047,132 L0,132 L0,94.8039344 Z" id="Fill-3" style="mix-blend-mode: overlay;" opacity="0.400000006"></path>
                    <path d="M1047,65.867524 C995.423384,65.867524 987.815184,106.373021 825.220272,103.957596 C781.123424,103.303664 687.76732,45.9667796 639.546688,44.1021894 C583.871416,41.9459809 526.317128,87.8802924 469.343576,87.6328586 C411.133168,87.3795336 358.685448,46.6825702 304.30008,44.1021894 C244.66296,41.2714293 183.007224,98.2342173 134.09976,93.0734559 C30.946528,82.1922614 0,49.5427867 0,49.5427867 L0,130 L1047,130 L1047,65.867524 Z" id="Fill-5" style="mix-blend-mode: overlay;" opacity="0.600000024"></path>
                    <path d="M1047,98.9449313 C1040.64262,104.166476 997.894304,111.592407 912.90024,93.4054747 C873.192416,84.9058429 837.957376,44.4501148 789.11692,43.541368 C740.483072,42.6356204 677.864096,89.1496605 624.073424,87.863019 C546.709896,86.0185329 517.32968,43.7543087 464.186752,43.541368 C413.009392,43.3344257 372.888352,74.7386757 324.930168,76.7841058 C253.198104,79.8432535 190.73548,38.2238496 134.09976,38.0019114 C38.512848,37.6240167 0,93.4054747 0,93.4054747 L0,131 L1047,131 L1047,98.9449313 Z" id="Fill-7" opacity="0"></path>
                </g>
            </g>
        </g>
    </g>
</svg>