<?xml version="1.0" encoding="UTF-8"?>
<svg width="825px" height="505px" viewBox="0 0 825 505" version="1.1" xmlns="http://www.w3.org/2000/svg" xmlns:xlink="http://www.w3.org/1999/xlink">
    <!-- Generator: Sketch 47.1 (45422) - http://www.bohemiancoding.com/sketch -->
    <title>header-bg</title>
    <desc>Created with Sketch.</desc>
    <defs>
        <rect id="path-1" x="0" y="0" width="825" height="505"></rect>
        <linearGradient x1="34.7822789%" y1="0%" x2="65.8264293%" y2="100.999999%" id="linearGradient-3">
            <stop stop-color="#3023AE" offset="0%"></stop>
            <stop stop-color="#C86DD7" offset="100%"></stop>
        </linearGradient>
        <rect id="path-4" x="0" y="0" width="825" height="505"></rect>
        <rect id="path-6" x="0" y="0" width="825" height="505"></rect>
        <linearGradient x1="32.9209559%" y1="0%" x2="67.7622051%" y2="100.999999%" id="linearGradient-8">
            <stop stop-color="#3023AE" offset="0%"></stop>
            <stop stop-color="#C86DD7" offset="100%"></stop>
        </linearGradient>
    </defs>
    <g id="Page-1" stroke="none" stroke-width="1" fill="none" fill-rule="evenodd">
        <g id="header-bg">
            <g id="Rectangle" fill-rule="nonzero" fill="#FFFFFF">
                <rect id="path-1" x="0" y="0" width="825" height="505"></rect>
            </g>
            <g id="Path-2-Clipped">
                <mask id="mask-2" fill="white">
                    <use xlink:href="#path-1"></use>
                </mask>
                <g id="path-1"></g>
                <path d="M-35.6566394,518 C-35.6566394,518 143.177825,446.045052 278.895144,443.878814 C414.612462,441.712576 485.044693,500.16459 604.333477,485.340352 C723.62226,470.516115 901.281478,389.214439 901.281478,389.214439 L911.009884,-7.56553502 L-66,-21 L-35.6566394,518 Z" id="Path-2" fill="url(#linearGradient-3)" fill-rule="nonzero" mask="url(#mask-2)"></path>
            </g>
            <g id="loading-copy-2-Clipped">
                <mask id="mask-5" fill="white">
                    <use xlink:href="#path-4"></use>
                </mask>
                <g id="path-1"></g>
                <g id="loading-copy-2" mask="url(#mask-5)">
                    <g transform="translate(-2.000000, 383.000000)" id="Group">
                        <g>
                            <path d="M0,0.394808849 C0,0.394808849 50.80044,39.7169617 128.940144,38.8311803 C181.008152,38.242641 228.584631,-4.53049217 297.988167,0.394808859 C344.854679,3.72094757 396.377448,50.4860417 448.713488,49.8142747 C502.166328,49.1276455 558.147793,2.22581993 639.546688,0.394808849 C720.945583,-1.43620223 791.090864,59.334938 856.1668,60.7943966 C967.966856,63.3031196 1045.1489,11.4462688 1047,16.8679641 L1047,131 L0,131 L0,0.394808849 Z" id="Fill-1" fill="#FFFFFF" fill-rule="nonzero" opacity="0.200000003" style="mix-blend-mode: overlay;"></path>
                            <path d="M0,94.8039344 C0,94.8039344 37.0997497,21.2486036 168.77047,23.5423857 C273.640782,25.3702897 294.87708,72.7741306 355.876696,72.8779888 C406.118736,72.9610753 463.452456,21.5186347 515.763368,23.5423855 C567.594056,25.5483321 614.57504,77.9551701 665.3336,78.3587333 C714.782712,78.750427 756.469258,19.9399904 835.536712,18.061641 C914.604166,16.1832916 937.950304,57.744367 972.420336,72.8779876 C1026.02953,96.409284 1047,100.284679 1047,100.284679 L1047,132 L0,132 L0,94.8039344 Z" id="Fill-3" fill="#FFFFFF" fill-rule="nonzero" opacity="0.400000006" style="mix-blend-mode: overlay;"></path>
                            <path d="M1047,65.867524 C995.423384,65.867524 987.815184,106.373021 825.220272,103.957596 C781.123424,103.303664 687.76732,45.9667796 639.546688,44.1021894 C583.871416,41.9459809 526.317128,87.8802924 469.343576,87.6328586 C411.133168,87.3795336 358.685448,46.6825702 304.30008,44.1021894 C244.66296,41.2714293 183.007224,98.2342173 134.09976,93.0734559 C30.946528,82.1922614 0,49.5427867 0,49.5427867 L0,130 L1047,130 L1047,65.867524 Z" id="Fill-5" fill="#FFFFFF" fill-rule="nonzero" opacity="0.600000024" style="mix-blend-mode: overlay;"></path>
                            <path d="M1047,98.9449313 C1040.64262,104.166476 997.894304,111.592407 912.90024,93.4054747 C873.192416,84.9058429 837.957376,44.4501148 789.11692,43.541368 C740.483072,42.6356204 677.864096,89.1496605 624.073424,87.863019 C546.709896,86.0185329 517.32968,43.7543087 464.186752,43.541368 C413.009392,43.3344257 372.888352,74.7386757 324.930168,76.7841058 C253.198104,79.8432535 190.73548,38.2238496 134.09976,38.0019114 C38.512848,37.6240167 0,93.4054747 0,93.4054747 L0,131 L1047,131 L1047,98.9449313 Z" id="Fill-7" fill="#FFFFFF" fill-rule="nonzero" opacity="0"></path>
                        </g>
                    </g>
                </g>
            </g>
            <g id="Illustration-Clipped" transform="translate(0.000000, 30.000000)">
                <mask id="mask-7" fill="white">
                    <use xlink:href="#path-6"></use>
                </mask>
                <g id="path-1"></g>
                <g id="Illustration" mask="url(#mask-7)">
                    <g transform="translate(462.000000, 59.000000)" id="Group">
                        <g>
                            <polygon id="Shape" fill="#000000" fill-rule="nonzero" opacity="0.050951087" points="7.18309859 212.68 193.225352 320.68 300.253521 258.76 117.084507 154.36"></polygon>
                            <path d="M21.6211268,155.944 L11.3492958,211.744 C10.8464789,213.328 7.75774648,213.832 7.03943662,212.968 L8.04507042,212.824 C7.39859155,212.32 7.03943662,211.528 7.18309859,210.736 L17.5985915,154 L21.6211268,155.944 Z" id="Shape" fill="#613C00" fill-rule="nonzero"></path>
                            <path d="M20.256338,155.944 L9.98450704,211.744 C9.6971831,213.184 8.04507042,213.832 6.89577465,212.968 L6.89577465,212.968 C6.1056338,212.392 5.67464789,211.384 5.89014085,210.376 L16.2338028,153.928 L20.256338,155.944 Z" id="Shape" fill="#9D6548" fill-rule="nonzero"></path>
                            <path d="M192.36338,255.016 L192.36338,319.096 C192.36338,320.248 193.871831,321.256 195.092958,320.896 L194.590141,320.608 C195.595775,320.176 196.314085,319.168 196.314085,318.016 L196.314085,255.088 L192.36338,255.088 L192.36338,255.016 Z" id="Shape" fill="#613C00" fill-rule="nonzero"></path>
                            <path d="M193.225352,255.304 L193.225352,319.384 C193.225352,320.536 194.374648,321.328 195.452113,320.824 L195.452113,320.824 C196.457746,320.392 197.176056,319.384 197.176056,318.232 L197.176056,255.304 L193.225352,255.304 Z" id="Shape" fill="#9D6548" fill-rule="nonzero"></path>
                            <path d="M286.892958,201.088 L297.23662,257.968 C297.452113,259.336 299.46338,259.264 300.253521,258.76 L300.253521,258.04 C301.330986,257.32 300.828169,256.744 300.612676,255.448 L290.7,199 L286.892958,201.088 Z" id="Shape" fill="#613C00" fill-rule="nonzero"></path>
                            <path d="M287.970423,201.088 L298.314085,257.968 C298.457746,258.832 299.46338,259.264 300.18169,258.76 L300.18169,258.76 C301.259155,258.04 301.833803,256.816 301.61831,255.52 L291.705634,199.072 L287.970423,201.088 Z" id="Shape" fill="#9D6548" fill-rule="nonzero"></path>
                            <path d="M0.0718309859,138.232 L0.0718309859,144.352 C0.0718309859,144.352 -0.0718309859,145.36 1.07746479,145.864 L190.783099,255.232 C190.783099,255.232 194.51831,257.176 197.894366,255.232 C201.270423,253.288 201.270423,253.288 201.270423,253.288 L302.839437,194.464 C302.839437,194.464 305.353521,192.952 305.640845,189.568 C305.928169,186.184 305.569014,182.944 305.569014,182.944 L0.0718309859,138.232 Z" id="Shape" fill="#DBA978" fill-rule="nonzero"></path>
                            <path d="M1.29295775,140.032 C1.29295775,140.032 -1.72394366,138.16 1.72394366,135.64 C5.1,133.12 104.514085,75.952 110.404225,72.568 C110.619718,72.424 110.907042,72.28 111.194366,72.208 C112.487324,71.704 116.007042,70.696 119.526761,72.784 L302.623944,178.912 C303.198592,179.2 303.701408,179.632 304.060563,180.136 C305.209859,181.504 306.71831,184.312 303.916901,187.696 C303.485915,188.2 302.983099,188.632 302.480282,188.92 L199.833803,248.464 C199.833803,248.464 194.230986,251.992 188.987324,248.464 L1.29295775,140.032 Z" id="Shape" fill="url(#linearGradient-8)" fill-rule="nonzero"></path>
                            <path d="M180.008451,173.584 C180.008451,173.584 181.229577,176.32 179.649296,178.192 C178.571831,179.488 135.976056,205.552 134.395775,203.392 C132.815493,201.232 149.911268,191.44 149.911268,191.44 L180.008451,173.584 Z" id="Shape" fill="#95CDFF" fill-rule="nonzero"></path>
                            <path d="M67.0183099,164.008 C67.0183099,164.008 65.7971831,162.928 67.0183099,161.416 C68.2394366,159.904 69.6760563,158.824 70.3225352,158.392 C70.8971831,158.032 109.829577,135.352 109.829577,135.352 C109.829577,135.352 111.840845,134.056 114.857746,135.352 C117.946479,136.648 179.433803,172.936 179.433803,172.936 C179.433803,172.936 181.588732,174.52 178.428169,176.608 C174.046479,179.56 138.274648,200.368 138.274648,200.368 C138.274648,200.368 136.26338,201.232 135.473239,203.176 C135.473239,203.176 135.185915,203.896 134.395775,203.392 C133.749296,202.96 67.0183099,164.008 67.0183099,164.008 Z" id="Shape" fill="#DBF0FF" fill-rule="nonzero"></path>
                            <g transform="translate(79.732394, 138.520000)" id="Shape" fill-rule="nonzero" fill="#95CDFF">
                                <polygon points="34.7661972 25.848 34.7661972 25.128 27.6549296 21.744 23.2732394 23.616 23.2732394 24.336 30.384507 28.44"></polygon>
                                <polygon points="43.0985915 30.744 43.0985915 30.024 35.628169 26.424 31.2464789 28.224 31.2464789 28.944 38.7169014 33.264"></polygon>
                                <polygon points="58.4704225 39.672 58.4704225 38.952 52.0774648 35.928 47.6957746 37.728 47.6957746 38.448 54.0887324 42.192"></polygon>
                                <polygon points="51.143662 35.424 51.143662 34.704 43.9605634 31.248 39.5788732 33.048 39.5788732 33.768 46.8338028 37.944"></polygon>
                                <polygon points="65.4380282 35.64 65.4380282 34.92 58.9732394 31.896 54.4478873 33.84 54.4478873 34.56 60.9126761 38.304"></polygon>
                                <polygon points="72.5492958 39.816 72.5492958 39.096 66.6591549 36.36 62.1338028 38.304 62.1338028 39.024 68.0957746 42.48"></polygon>
                                <polygon points="74.5605634 30.312 79.0140845 27.72 79.0140845 27 72.5492958 24.048 68.1676056 25.92 68.1676056 26.64"></polygon>
                                <polygon points="81.671831 34.488 86.1971831 31.824 86.1971831 31.104 80.2352113 28.44 75.7816901 30.312 75.7816901 31.032"></polygon>
                                <polygon points="79.3014085 35.856 79.3014085 35.136 73.3394366 32.472 69.0295775 34.272 69.0295775 34.992 74.9915493 38.376"></polygon>
                                <polygon points="72.1183099 31.752 72.1183099 31.032 65.7253521 28.008 61.415493 29.808 61.415493 30.528 67.8084507 34.272"></polygon>
                                <polygon points="49.9225352 26.64 49.9225352 25.92 42.5957746 22.392 38.0704225 24.264 38.0704225 24.984 45.4690141 29.304"></polygon>
                                <polygon points="67.0901408 25.992 71.4 23.4 71.4 22.68 64.3605634 19.44 60.0507042 21.168 60.0507042 21.888"></polygon>
                                <polygon points="53.2985915 25.848 60.4098592 29.952 64.7197183 27.432 64.7197183 26.712 57.6802817 23.328 53.2985915 25.128"></polygon>
                                <polygon points="44.9661972 21.024 52.3647887 25.272 56.6028169 22.68 56.6028169 21.96 49.3478873 18.504 44.9661972 20.304"></polygon>
                                <polygon points="30.0971831 20.376 37.1366197 24.48 41.5901408 21.816 41.5901408 21.096 34.6225352 17.784 30.0971831 19.656"></polygon>
                                <polygon points="22.6267606 16.056 28.8760563 19.656 33.4014085 17.064 33.4014085 16.344 27.1521127 13.392 22.6267606 15.336"></polygon>
                                <polygon points="36.9929577 16.344 44.0323944 20.448 48.2704225 17.856 48.2704225 17.136 41.3028169 13.824 36.9929577 15.624"></polygon>
                                <polygon points="15.8028169 19.944 22.0521127 23.616 26.4338028 21.024 26.4338028 20.304 20.184507 17.424 15.8028169 19.224"></polygon>
                                <polygon points="58.0394366 31.32 58.0394366 30.6 50.928169 27.216 46.4028169 29.088 46.4028169 29.808 53.5140845 33.984"></polygon>
                                <polygon points="76.2126761 39.096 83.1084507 43.128 87.4183099 40.608 87.4183099 39.888 80.5225352 36.576 76.2126761 38.376"></polygon>
                                <polygon points="69.2450704 43.128 76.1408451 47.16 80.6661972 44.496 80.6661972 43.776 73.7704225 40.536 69.2450704 42.408"></polygon>
                                <polygon points="62.4929577 47.088 69.3887324 51.048 73.7704225 48.528 73.7704225 47.808 66.8746479 44.568 62.4929577 46.368"></polygon>
                                <polygon points="65.6535211 43.848 65.6535211 43.128 59.7633803 40.392 55.3816901 42.264 55.3816901 42.984 61.343662 46.44"></polygon>
                                <polygon points="39.0760563 4.968 39.0760563 4.248 31.1746479 0.432 27.1521127 2.088 27.1521127 2.808 35.0535211 7.344"></polygon>
                                <polygon points="55.6690141 51.048 62.4929577 55.08 66.9464789 52.488 66.9464789 51.768 60.1225352 48.528 55.6690141 50.328"></polygon>
                                <polygon points="4.38169014 16.128 0.215492958 17.784 0.215492958 18.504 8.04507042 23.112 12.2112676 20.664 12.2112676 19.944"></polygon>
                                <polygon points="87.4183099 32.544 82.8929577 34.488 82.8929577 35.208 89.7887324 39.168 94.3859155 36.504 94.3859155 35.784"></polygon>
                                <polygon points="52.9394366 44.352 48.5577465 46.224 48.5577465 46.944 54.5197183 50.4 58.9014085 47.808 58.9014085 47.088"></polygon>
                                <polygon points="13.4323944 21.384 9.1943662 23.112 9.1943662 23.832 15.371831 27.432 19.6098592 24.984 19.6098592 24.264"></polygon>
                                <polygon points="42.5957746 11.736 46.7619718 9.36 46.7619718 8.64 40.3690141 5.688 36.2746479 7.344 36.2746479 8.064"></polygon>
                                <polygon points="29.5225352 12.024 35.843662 15.696 40.1535211 13.176 40.1535211 12.456 33.9042254 9.504 29.5225352 11.304"></polygon>
                                <polygon points="32.6112676 8.784 32.6112676 8.064 24.7098592 4.176 20.4 5.976 20.4 6.696 28.3014085 11.304"></polygon>
                                <polygon points="20.9028169 25.704 16.6647887 27.504 16.6647887 28.224 47.3366197 46.152 51.7183099 43.632 51.7183099 42.912"></polygon>
                                <polygon points="50.7126761 16.488 54.8788732 13.968 54.8788732 13.248 47.9112676 10.008 43.7450704 11.736 43.7450704 12.456"></polygon>
                                <polygon points="58.9732394 21.312 63.2830986 18.792 63.2830986 18.072 56.028169 14.616 51.7183099 16.344 51.7183099 17.064"></polygon>
                                <polygon points="25.9309859 12.672 25.9309859 11.952 18.0295775 8.136 13.5042254 10.008 13.5042254 10.728 21.4056338 15.336"></polygon>
                                <polygon points="19.0352113 16.704 19.0352113 15.984 11.1338028 12.168 6.75211268 13.968 6.75211268 14.688 14.6535211 19.296"></polygon>
                            </g>
                            <g transform="translate(79.732394, 137.800000)" id="Shape" fill-rule="nonzero" fill="#FFFFFF">
                                <polygon points="34.7661972 25.848 27.6549296 21.744 23.2732394 24.336 30.384507 28.44"></polygon>
                                <polygon points="43.0985915 30.744 35.628169 26.424 31.2464789 28.944 38.7169014 33.264"></polygon>
                                <polygon points="58.4704225 39.672 52.0774648 35.928 47.6957746 38.448 54.0887324 42.192"></polygon>
                                <polygon points="51.143662 35.424 43.9605634 31.248 39.5788732 33.768 46.8338028 37.944"></polygon>
                                <polygon points="65.4380282 35.64 58.9732394 31.896 54.4478873 34.56 60.9126761 38.304"></polygon>
                                <polygon points="72.5492958 39.816 66.6591549 36.36 62.1338028 39.024 68.0957746 42.48"></polygon>
                                <polygon points="74.5605634 30.312 79.0140845 27.72 72.5492958 24.048 68.1676056 26.64"></polygon>
                                <polygon points="81.671831 34.488 86.1971831 31.824 80.2352113 28.44 75.7816901 31.032"></polygon>
                                <polygon points="79.3014085 35.856 73.3394366 32.472 69.0295775 34.992 74.9915493 38.376"></polygon>
                                <polygon points="72.1183099 31.752 65.7253521 28.008 61.415493 30.528 67.8084507 34.272"></polygon>
                                <polygon points="49.9225352 26.64 42.5957746 22.392 38.0704225 24.984 45.4690141 29.304"></polygon>
                                <polygon points="67.0901408 25.992 71.4 23.4 64.3605634 19.44 60.0507042 21.888"></polygon>
                                <polygon points="53.2985915 25.848 60.4098592 29.952 64.7197183 27.432 57.6802817 23.328"></polygon>
                                <polygon points="44.9661972 21.024 52.3647887 25.272 56.6028169 22.68 49.3478873 18.504"></polygon>
                                <polygon points="30.0971831 20.376 37.1366197 24.48 41.5901408 21.816 34.6225352 17.784"></polygon>
                                <polygon points="22.6267606 16.056 28.8760563 19.656 33.4014085 17.064 27.1521127 13.392"></polygon>
                                <polygon points="36.9929577 16.344 44.0323944 20.448 48.2704225 17.856 41.3028169 13.824"></polygon>
                                <polygon points="15.8028169 19.944 22.0521127 23.616 26.4338028 21.024 20.184507 17.424"></polygon>
                                <polygon points="58.0394366 31.32 50.928169 27.216 46.4028169 29.808 53.5140845 33.984"></polygon>
                                <polygon points="76.2126761 39.096 83.1084507 43.128 87.4183099 40.608 80.5225352 36.576"></polygon>
                                <polygon points="69.2450704 43.128 76.1408451 47.16 80.6661972 44.496 73.7704225 40.536"></polygon>
                                <polygon points="62.4929577 47.088 69.3887324 51.048 73.7704225 48.528 66.8746479 44.568"></polygon>
                                <polygon points="65.6535211 43.848 59.7633803 40.392 55.3816901 42.984 61.343662 46.44"></polygon>
                                <polygon points="39.0760563 4.968 31.1746479 0.432 27.1521127 2.808 35.0535211 7.344"></polygon>
                                <polygon points="55.6690141 51.048 62.4929577 55.08 66.9464789 52.488 60.1225352 48.528"></polygon>
                                <polygon points="4.38169014 16.128 0.215492958 18.504 8.04507042 23.112 12.2112676 20.664"></polygon>
                                <polygon points="87.4183099 32.544 82.8929577 35.208 89.7887324 39.168 94.3859155 36.504"></polygon>
                                <polygon points="52.9394366 44.352 48.5577465 46.944 54.5197183 50.4 58.9014085 47.808"></polygon>
                                <polygon points="13.4323944 21.384 9.1943662 23.832 15.371831 27.432 19.6098592 24.984"></polygon>
                                <polygon points="42.5957746 11.736 46.7619718 9.36 40.3690141 5.688 36.2746479 8.064"></polygon>
                                <polygon points="29.5225352 12.024 35.843662 15.696 40.1535211 13.176 33.9042254 9.504"></polygon>
                                <polygon points="32.6112676 8.784 24.7098592 4.176 20.4 6.696 28.3014085 11.304"></polygon>
                                <polygon points="20.9028169 25.704 16.6647887 28.224 47.3366197 46.152 51.7183099 43.632"></polygon>
                                <polygon points="50.7126761 16.488 54.8788732 13.968 47.9112676 10.008 43.7450704 12.456"></polygon>
                                <polygon points="58.9732394 21.312 63.2830986 18.792 56.028169 14.616 51.7183099 17.064"></polygon>
                                <polygon points="25.9309859 12.672 18.0295775 8.136 13.5042254 10.728 21.4056338 15.336"></polygon>
                                <polygon points="19.0352113 16.704 11.1338028 12.168 6.75211268 14.688 14.6535211 19.296"></polygon>
                            </g>
                            <path d="M215.780282,215.992 L214.056338,213.112 L211.398592,213.112 C209.674648,210.736 204.430986,208.936 198.18169,208.936 C190.567606,208.936 184.31831,211.528 184.31831,214.768 C184.31831,218.008 190.495775,220.6 198.18169,220.6 C204.502817,220.6 209.81831,218.8 211.470423,216.352 L215.780282,215.992 Z" id="Shape" fill="#F5C487" fill-rule="nonzero"></path>
                            <g transform="translate(183.887324, 185.320000)" fill-rule="nonzero">
                                <ellipse id="Oval" fill="#F9F9F9" cx="12.4985915" cy="5.688" rx="11.7802817" ry="4.824"></ellipse>
                                <path d="M4.81267606,7.56 C6.6084507,8.352 9.33802817,8.928 12.3549296,8.928 C15.371831,8.928 18.1014085,8.424 19.8971831,7.56 C18.1014085,6.768 15.371831,6.192 12.3549296,6.192 C9.33802817,6.192 6.6084507,6.768 4.81267606,7.56 Z" id="Shape" fill="#B66F3F"></path>
                                <path d="M12.4985915,0.648 C5.96197183,0.648 0.718309859,2.808 0.718309859,5.472 C0.718309859,8.136 5.96197183,10.296 12.4985915,10.296 C19.0352113,10.296 24.2788732,8.136 24.2788732,5.472 C24.2788732,2.808 18.9633803,0.648 12.4985915,0.648 Z M12.4267606,8.928 C7.03943662,8.928 2.65774648,7.272 2.65774648,5.328 C2.65774648,3.384 7.03943662,1.728 12.4267606,1.728 C17.8140845,1.728 22.1957746,3.384 22.1957746,5.328 C22.1957746,7.272 17.8140845,8.928 12.4267606,8.928 Z" id="Shape" fill="#DBF0FF"></path>
                                <g id="Shape" transform="translate(0.000000, 5.040000)">
                                    <path d="M0.646478873,0.36 L0.646478873,0.36 L0.646478873,0.36 C0.646478873,0.432 0.646478873,0.432 0.646478873,0.36 Z" fill="#000000"></path>
                                    <path d="M24.2788732,0.36 C24.2788732,0.432 24.2788732,0.432 24.2788732,0.36 C24.2788732,3.024 19.0352113,5.184 12.4985915,5.184 C5.96197183,5.184 0.718309859,3.024 0.718309859,0.36 L0.718309859,24.768 C0.718309859,27.432 5.96197183,29.592 12.4985915,29.592 C19.0352113,29.592 24.2788732,27.432 24.2788732,24.768 L24.2788732,0.36 L24.2788732,0.36 Z" fill="#FFFFFF"></path>
                                </g>
                            </g>
                            <path d="M204,209.224 C204,209.224 206.370423,208.864 207.016901,208.144 L209.387324,208.432 L207.878873,210.952 L206.083099,211.168 L204,209.224 Z" id="Shape" fill="#DBF0FF" fill-rule="nonzero"></path>
                            <path d="M203.856338,201.232 L203.856338,199.864 L207.160563,201.664 C207.160563,201.664 208.166197,201.952 208.022535,202.96 L208.309859,210.232 C208.309859,210.232 208.022535,211.672 206.94507,211.816 C206.94507,211.816 206.585915,211.816 206.15493,211.528 L204.071831,210.232 L204.071831,209.152 L206.226761,210.448 C206.226761,210.448 207.016901,210.952 207.088732,210.088 L207.088732,203.464 C207.088732,203.464 207.088732,202.744 206.514085,202.528 L203.856338,201.232 Z" id="Shape" fill="#ACD2E5" fill-rule="nonzero"></path>
                            <path d="M203.856338,199.936 C203.856338,199.936 206.226761,199.72 206.801408,199.144 L209.890141,200.656 C209.890141,200.656 210.823944,200.944 210.752113,202.024 L210.752113,209.368 C210.752113,209.368 210.752113,209.944 210.033803,210.448 L207.160563,211.888 C207.160563,211.888 208.022535,211.528 207.950704,210.088 C207.950704,209.296 207.950704,203.176 207.950704,203.176 C207.950704,203.176 208.094366,202.456 207.304225,202.024 L203.856338,199.936 Z" id="Shape" fill="#DBF0FF" fill-rule="nonzero"></path>
                            <g transform="translate(188.915493, 174.520000)" id="Shape" stroke="#FFFFFF" stroke-width="0.72">
                                <path d="M8.26056338,0.504 C8.26056338,0.504 9.26619718,1.512 9.26619718,2.952 C9.26619718,4.392 8.6915493,4.896 8.18873239,5.544 C7.68591549,6.192 6.96760563,7.056 6.96760563,8.496 C6.96760563,9.936 8.26056338,10.728 8.26056338,10.728"></path>
                                <path d="M1.93943662,6.048 C1.93943662,6.048 2.94507042,7.056 2.94507042,8.496 C2.94507042,9.936 2.37042254,10.44 1.86760563,11.088 C1.36478873,11.736 0.646478873,12.6 0.646478873,14.04 C0.646478873,15.48 1.93943662,16.272 1.93943662,16.272"></path>
                                <path d="M13.5760563,5.112 C13.5760563,5.112 14.5816901,6.12 14.5816901,7.56 C14.5816901,9 14.0070423,9.504 13.5042254,10.152 C13.0014085,10.8 12.2830986,11.664 12.2830986,13.104 C12.2830986,14.544 13.5760563,15.336 13.5760563,15.336"></path>
                            </g>
                            <path d="M65.6535211,142.912 C65.5098592,142.912 65.3661972,142.912 65.2225352,142.912 L65.2225352,142.912 C65.2225352,142.912 62.7802817,142.84 63.2112676,141.184 C63.2830986,141.04 63.3549296,140.824 63.5704225,140.68 C63.5704225,140.68 63.5704225,140.68 63.5704225,140.68 C64.0732394,140.248 64.4323944,139.744 64.4323944,139.168 C64.4323944,137.8 62.7084507,136.72 60.5535211,136.72 C58.3985915,136.72 56.6746479,137.8 56.6746479,139.168 C56.6746479,139.456 56.7464789,139.816 56.9619718,140.104 L56.9619718,140.104 C56.9619718,140.104 57.0338028,140.176 57.1056338,140.32 C57.1774648,140.392 57.1774648,140.536 57.1774648,140.536 C57.3929577,141.112 57.6084507,142.624 54.3760563,142.552 C54.3760563,142.552 54.3760563,142.552 54.3042254,142.552 C54.3042254,142.552 54.2323944,142.552 54.2323944,142.552 C53.8732394,142.48 53.5140845,142.48 53.0830986,142.48 C50.928169,142.48 49.2042254,143.632 49.2042254,145 C49.2042254,146.368 50.928169,147.52 53.0830986,147.52 C54.4478873,147.52 55.6690141,147.088 56.315493,146.368 C56.315493,146.368 56.3873239,146.296 56.4591549,146.224 C56.7464789,146.08 58.3267606,145.216 60.6253521,145.864 C61.128169,146.008 61.4873239,146.224 62.0619718,146.512 L62.0619718,146.512 C62.0619718,146.512 62.1338028,146.512 62.2056338,146.656 L62.2056338,146.656 C62.8521127,147.376 64.1450704,147.88 65.5816901,147.88 C67.7366197,147.88 69.4605634,146.8 69.4605634,145.432 C69.5323944,144.064 67.8084507,142.912 65.6535211,142.912 Z" id="Shape" fill="#3A75D6" fill-rule="nonzero"></path>
                            <ellipse id="Oval" fill="#103966" fill-rule="nonzero" cx="60.4816901" cy="138.952" rx="2.87323944" ry="1.584"></ellipse>
                            <ellipse id="Oval" fill="#103966" fill-rule="nonzero" cx="53.2985915" cy="144.64" rx="2.87323944" ry="1.584"></ellipse>
                            <ellipse id="Oval" fill="#103966" fill-rule="nonzero" cx="65.5098592" cy="145.288" rx="2.87323944" ry="1.584"></ellipse>
                            <ellipse id="Oval" fill="#103966" fill-rule="nonzero" cx="59.9788732" cy="142.84" rx="2.80140845" ry="1.656"></ellipse>
                            <ellipse id="Oval" fill="#FFFFFF" fill-rule="nonzero" cx="60.4816901" cy="138.808" rx="1.36478873" ry="1"></ellipse>
                            <ellipse id="Oval" fill="#FFFFFF" fill-rule="nonzero" cx="53.2985915" cy="144.496" rx="1.36478873" ry="1"></ellipse>
                            <ellipse id="Oval" fill="#FFFFFF" fill-rule="nonzero" cx="65.5098592" cy="145.144" rx="1.36478873" ry="1"></ellipse>
                            <g transform="translate(48.845070, 139.240000)" id="Shape" fill-rule="nonzero" fill="#11416D">
                                <path d="M14.7253521,1.296 C14.7253521,1.296 14.7253521,1.296 14.7253521,1.296 C14.5098592,1.512 14.3661972,1.728 14.3661972,1.872 C14.2943662,2.088 14.2943662,2.304 14.3661972,2.52 C14.3661972,2.448 14.3661972,2.448 14.3661972,2.376 C14.4380282,2.232 14.5098592,2.016 14.7253521,1.872 C14.7253521,1.872 14.7253521,1.872 14.7253521,1.872 C15.228169,1.44 15.5873239,0.936 15.5873239,0.36 C15.5873239,0.288 15.5873239,0.144 15.5873239,0.072 C15.515493,0.504 15.228169,0.936 14.7253521,1.296 Z"></path>
                                <path d="M16.8084507,8.496 C15.371831,8.496 14.0788732,7.992 13.4323944,7.272 L13.4323944,7.272 C13.2887324,7.128 13.2887324,7.128 13.2887324,7.128 L13.2887324,7.128 C12.7140845,6.84 12.3549296,6.624 11.8521127,6.48 C9.55352113,5.832 8.04507042,6.624 7.68591549,6.84 C7.61408451,6.912 7.61408451,6.912 7.54225352,6.984 C6.82394366,7.632 5.67464789,8.136 4.30985915,8.136 C2.29859155,8.136 0.646478873,7.128 0.430985915,5.904 C0.430985915,5.976 0.430985915,6.048 0.430985915,6.12 C0.430985915,7.488 2.15492958,8.64 4.30985915,8.64 C5.67464789,8.64 6.89577465,8.208 7.54225352,7.488 C7.54225352,7.488 7.61408451,7.416 7.68591549,7.344 C7.97323944,7.2 9.55352113,6.336 11.8521127,6.984 C12.3549296,7.128 12.7140845,7.344 13.2887324,7.632 L13.2887324,7.632 C13.2887324,7.632 13.3605634,7.632 13.4323944,7.776 L13.4323944,7.776 C14.0788732,8.496 15.371831,9 16.8084507,9 C18.9633803,9 20.6873239,7.92 20.6873239,6.552 C20.6873239,6.48 20.6873239,6.408 20.6873239,6.336 C20.471831,7.56 18.8197183,8.496 16.8084507,8.496 Z"></path>
                                <path d="M8.11690141,1.224 C8.11690141,1.224 8.18873239,1.296 8.26056338,1.44 C8.33239437,1.512 8.33239437,1.656 8.33239437,1.656 C8.33239437,1.728 8.40422535,1.872 8.40422535,2.016 C8.47605634,1.728 8.40422535,1.368 8.33239437,1.224 C8.33239437,1.224 8.26056338,1.152 8.26056338,1.008 C8.18873239,0.936 8.11690141,0.792 8.11690141,0.792 L8.11690141,0.792 C7.97323944,0.576 7.90140845,0.36 7.82957746,0.072 C7.82957746,0.144 7.82957746,0.288 7.82957746,0.36 C7.82957746,0.648 7.90140845,0.936 8.11690141,1.224 L8.11690141,1.224 Z"></path>
                            </g>
                            <g transform="translate(79.014085, 66.520000)" id="Shape" fill-rule="nonzero">
                                <polygon fill="#E5C6A6" points="0.143661972 12.816 20.184507 23.616 20.184507 49.752 0.143661972 38.88"></polygon>
                                <polygon fill="#F5C487" points="20.184507 49.752 48.1267606 37.8 42.3802817 34.632"></polygon>
                                <polygon fill="#E8B98C" points="42.3802817 10.944 20.184507 23.616 20.184507 49.752 42.3802817 37.512"></polygon>
                                <polygon fill="#B8956F" points="0.143661972 12.816 22.1957746 0.144 42.3802817 10.944 20.184507 23.616"></polygon>
                            </g>
                            <path d="M85.1197183,88.264 C86.1253521,87.616 87.4183099,87.688 88.4957746,88.264 C90.2915493,89.128 92.9492958,91.432 93.0211268,96.904 C93.0211268,96.904 93.0929577,102.808 88.9267606,102.952 C88.9267606,102.952 84.7605634,103.24 83.1084507,96.472 C82.7492958,95.104 82.6774648,93.664 82.8929577,92.296 C83.1084507,90.856 83.6830986,89.2 85.1197183,88.264 Z" id="Shape" fill="#FFFFFF" fill-rule="nonzero"></path>
                            <path d="M85.4070423,89.416 C86.2690141,88.84 87.3464789,88.912 88.2802817,89.344 C89.7887324,90.064 92.0873239,92.008 92.2309859,96.688 C92.2309859,96.688 92.3746479,101.8 88.8549296,101.944 C88.8549296,101.944 85.4070423,102.232 83.8985915,96.4 C83.6112676,95.248 83.4676056,94.024 83.6112676,92.8 C83.7549296,91.648 84.1859155,90.208 85.4070423,89.416 Z" id="Shape" fill="#444447" fill-rule="nonzero"></path>
                            <path d="M86.1971831,91.144 C86.843662,90.784 87.5619718,90.784 88.2084507,91.072 C89.2859155,91.576 90.9380282,92.944 91.0098592,96.256 C91.0098592,96.256 91.1535211,99.856 88.5676056,99.928 C88.5676056,99.928 86.0535211,100.144 84.9760563,96.04 C84.7605634,95.248 84.6887324,94.384 84.7605634,93.52 C84.9760563,92.728 85.3352113,91.72 86.1971831,91.144 Z" id="Shape" fill="#FFFFFF" fill-rule="nonzero"></path>
                            <g transform="translate(84.042254, 89.560000)" id="Shape" fill-rule="nonzero" fill="#444447">
                                <polygon points="0.502816901 3.24 3.30422535 10.224 3.80704225 10.368 0.790140845 2.808"></polygon>
                                <polygon points="1.58028169 1.368 5.1 10.728 5.74647887 10.512 2.15492958 0.936"></polygon>
                                <polygon points="3.87887324 0.288 3.37605634 0.72 6.89577465 10.08 7.54225352 9.864"></polygon>
                            </g>
                            <g transform="translate(86.197183, 103.240000)" id="Shape" fill-rule="nonzero">
                                <path d="M0.718309859,0.576 C1.0056338,0.432 1.36478873,0.432 1.65211268,0.576 C2.15492958,0.792 2.94507042,1.44 2.94507042,2.952 C2.94507042,2.952 3.01690141,4.608 1.79577465,4.68 C1.79577465,4.68 0.646478873,4.752 0.143661972,2.88 C0.0718309859,2.52 8.04911693e-15,2.088 0.0718309859,1.728 C0.143661972,1.296 0.35915493,0.792 0.718309859,0.576 Z" fill="#444447"></path>
                                <path d="M1.07746479,1.44 C1.22112676,1.368 1.43661972,1.368 1.65211268,1.44 C1.93943662,1.584 2.37042254,1.944 2.37042254,2.808 C2.37042254,2.808 2.37042254,3.744 1.72394366,3.744 C1.72394366,3.744 1.07746479,3.816 0.790140845,2.736 C0.718309859,2.52 0.718309859,2.304 0.718309859,2.088 C0.790140845,1.8 0.861971831,1.584 1.07746479,1.44 Z" fill="#FFFFFF"></path>
                            </g>
                            <polygon id="Shape" fill="#613C00" fill-rule="nonzero" points="82.0309859 78.904 101.066197 68.104 118.521127 77.32 99.3422535 88.12"></polygon>
                            <polygon id="Shape" fill="#F5C487" fill-rule="nonzero" points="189.777465 155.08 209.387324 148.816 238.550704 159.976 255.215493 150.688 239.771831 141.688 200.049296 128.656"></polygon>
                            <path d="M96.5408451,79.984 C96.5408451,79.984 95.1042254,81.28 92.1591549,80.92 C89.2859155,80.56 85.7661972,76.672 84.9760563,71.704 C84.9760563,71.704 87.2028169,75.52 88.1366197,75.736 C88.1366197,75.736 86.2690141,73.144 87.3464789,69.904 C87.3464789,69.904 88.3521127,72.928 90.7225352,75.448 C90.7225352,75.448 89.5732394,72.712 90.0042254,69.544 C90.0042254,69.544 91.584507,75.232 94.0267606,76.24 C94.0267606,76.24 95.1760563,76.672 95.3915493,75.664 C95.3915493,75.664 94.8169014,74.224 95.2478873,73.288 C95.2478873,73.288 95.4633803,75.16 96.5408451,74.656 C96.5408451,74.656 96.971831,74.296 96.5408451,73.288 C96.1098592,72.28 94.8887324,69.688 94.7450704,68.824 C94.7450704,68.824 96.6126761,70.912 97.043662,71.056 C97.043662,71.056 95.5352113,69.616 95.9661972,67.24 C95.9661972,67.24 96.971831,70.048 98.9112676,71.344 L98.4084507,67.24 C98.4084507,67.24 101.138028,73 102.215493,73.144 C103.292958,73.288 106.022535,68.752 106.238028,66.664 C106.238028,66.664 107.387324,68.32 105.447887,71.704 C105.447887,71.704 107.746479,72.064 109.398592,66.664 C109.398592,66.664 109.973239,68.752 108.53662,72.208 C108.53662,72.208 109.757746,71.848 111.697183,68.32 C111.697183,68.32 110.619718,77.176 103.005634,77.608 L102.215493,77.68 L103.221127,79.552 C103.221127,79.552 106.812676,78.4 106.956338,75.304 C106.956338,75.304 108.321127,75.952 107.459155,78.544 C106.597183,81.136 110.404225,76.024 110.619718,74.656 C110.619718,74.656 111.194366,75.664 109.757746,78.328 L111.409859,76.384 C111.409859,76.384 111.194366,81.496 105.088732,83.512 C105.088732,83.512 102.143662,84.52 98.3366197,82.144 L96.5408451,79.984 Z" id="Shape" fill="#78D039" fill-rule="nonzero"></path>
                            <g transform="translate(86.915493, 66.520000)" id="Shape" fill-rule="nonzero" fill="#4EAD36">
                                <path d="M3.73521127,11.232 C4.23802817,11.448 4.74084507,10.872 4.52535211,10.368 L3.87887324,8.928 C3.87887324,8.928 2.22676056,7.632 0.502816901,3.384 C0.502816901,3.384 -0.502816901,5.616 1.29295775,9.216 C1.29295775,9.216 1.79577465,10.44 3.73521127,11.232 Z"></path>
                                <path d="M11.7802817,9.144 C11.7802817,9.144 11.1338028,7.488 10.8464789,7.272 C10.6309859,7.128 7.75774648,2.232 7.75774648,2.232 C10.8464789,8.208 9.55352113,8.064 9.55352113,8.064 C8.26056338,8.856 8.26056338,6.696 8.26056338,6.696 C8.11690141,7.92 8.18873239,8.28 8.40422535,9.072 C8.61971831,9.864 10.2,10.224 10.2,10.224 C12.1394366,11.448 11.7802817,9.144 11.7802817,9.144 Z"></path>
                                <path d="M22.5549296,0.144 C22.5549296,0.144 21.4056338,5.256 18.6042254,5.184 L17.4549296,5.832 C17.4549296,5.832 15.371831,7.632 17.4549296,7.344 C19.5380282,7.056 21.6929577,5.688 21.6929577,5.688 C21.6929577,5.688 22.8422535,3.168 22.5549296,0.144 Z"></path>
                                <path d="M0.933802817,11.592 C0.933802817,11.592 2.80140845,13.896 5.24366197,14.4 C5.24366197,14.4 8.47605634,14.688 9.62535211,13.464 L9.12253521,12.888 C9.12253521,12.888 4.95633803,14.472 0.933802817,11.592 Z"></path>
                                <path d="M10.343662,10.296 C11.0619718,13.824 11.4929577,12.96 11.4929577,12.96 C14.4380282,15.192 13.0732394,12.6 13.0732394,12.6 C11.9957746,12.528 10.343662,10.296 10.343662,10.296 Z"></path>
                                <path d="M15.3,6.624 C13.1450704,5.976 11.4929577,0.72 11.4929577,0.72 C12.2112676,3.96 11.9957746,6.552 13.7915493,7.344 C15.515493,8.136 15.3,6.624 15.3,6.624 Z"></path>
                                <path d="M20.1126761,9.288 C20.1126761,9.072 20.0408451,8.928 20.0408451,8.712 C20.0408451,8.712 20.0408451,8.928 19.9690141,9.36 C17.3830986,10.296 14.6535211,10.296 14.6535211,10.296 L15.3,11.16 C17.2394366,11.016 18.7478873,10.44 19.8253521,9.864 C19.5380282,10.944 18.6760563,12.6 16.1619718,13.464 C12.2830986,14.832 16.9521127,14.184 16.9521127,14.184 C16.9521127,14.184 20.543662,13.968 20.1126761,9.648 C21.0464789,9.072 21.5492958,8.64 21.5492958,8.64 C21.1183099,8.928 20.615493,9.144 20.1126761,9.288 Z"></path>
                            </g>
                            <g transform="translate(142.225352, 119.080000)" id="Shape" fill-rule="nonzero">
                                <path d="M18.1732394,1.008 L0.790140845,10.944 C0.790140845,10.944 0.790140845,11.016 0.718309859,11.664 C0.646478873,13.104 2.37042254,13.896 2.37042254,13.896 L41.4464789,36.504 C41.4464789,36.504 43.9605634,38.448 47.4802817,36.792 C51,35.136 64.8633803,28.656 64.8633803,28.656 L18.1732394,1.008 Z" fill="#95CDFF"></path>
                                <path d="M18.1732394,0.288 L2.94507042,8.784 C2.94507042,8.784 0.933802817,9.72 0.790140845,10.944 C0.646478873,12.312 2.44225352,13.176 2.44225352,13.176 L41.5183099,35.784 C41.5183099,35.784 44.0323944,37.728 47.5521127,36.072 C51.071831,34.416 64.9352113,27.936 64.9352113,27.936 L18.1732394,0.288 Z" fill="#DBF0FF"></path>
                                <polygon fill="#95CDFF" opacity="0.52" points="11.7084507 3.888 56.7464789 30.24 51.071831 34.344 64.9352113 27.864 18.1732394 0.288"></polygon>
                            </g>
                            <g transform="translate(126.422535, 0.280000)" id="Shape" fill-rule="nonzero">
                                <path d="M1.22112676,2.016 C1.22112676,2.016 1.93943662,0.288 6.03380282,0.288 C6.6084507,0.288 7.11126761,0.432 7.61408451,0.72 L109.757746,60.408 C109.757746,60.408 113.492958,62.712 113.421127,68.256 L113.421127,156.6 C113.421127,157.752 113.133803,158.976 112.2,159.696 C109.973239,161.496 107.674648,161.64 106.238028,161.496 C105.591549,161.424 105.591549,160.344 105.016901,160.056 L8.33239437,103.032 C8.33239437,103.032 3.16056338,100.152 3.5915493,94.608 L1.22112676,2.016 Z" fill="#95CDFF"></path>
                                <path d="M0.646478873,3.888 C0.646478873,3.888 0.646478873,1.008 3.08873239,1.008 C3.66338028,1.008 4.16619718,1.152 4.66901408,1.44 L106.812676,61.128 C106.812676,61.128 110.547887,63.432 110.476056,68.976 L110.476056,157.32 C110.476056,158.472 110.04507,159.624 109.25493,160.416 C108.608451,161.064 107.602817,161.64 106.166197,161.496 C105.519718,161.424 104.873239,161.208 104.298592,160.848 L5.38732394,103.752 C5.38732394,103.752 0.215492958,100.872 0.646478873,95.328 L0.646478873,3.888 Z" fill="#DBF0FF"></path>
                                <path d="M4.30985915,10.44 C4.30985915,10.44 4.16619718,7.632 5.31549296,7.128 C6.32112676,6.696 7.03943662,7.2 7.47042254,7.488 L102.502817,63 C102.502817,63 105.950704,65.16 105.878873,70.2 L105.878873,151.344 C105.878873,152.424 105.950704,154.512 105.232394,155.232 C104.585915,155.88 103.580282,156.168 102.430986,155.664 C101.856338,155.448 100.707042,154.872 100.204225,154.584 L8.61971831,102.096 C8.61971831,102.096 3.87887324,99.432 4.30985915,94.392 L4.30985915,10.44 Z" fill="#6A90E5"></path>
                            </g>
                            <g transform="translate(135.042254, 16.840000)" id="Shape" fill-rule="nonzero" fill="#FFFFFF">
                                <path d="M0.502816901,2.376 L0.502816901,2.448 C0.502816901,3.816 1.22112676,5.112 2.44225352,5.76 L35.1971831,24.768 C36.1309859,25.344 37.3521127,24.624 37.3521127,23.544 L37.3521127,22.896 C37.3521127,21.456 36.5619718,20.088 35.2690141,19.296 L3.23239437,0.72 C2.01126761,0.144 0.502816901,1.008 0.502816901,2.376 Z"></path>
                                <path d="M41.3746479,25.992 L41.3746479,25.992 C41.3028169,27.432 42.0211268,28.8 43.3140845,29.52 L55.956338,36.864 C57.1774648,37.584 58.6859155,36.72 58.6859155,35.28 L58.6859155,34.704 C58.6859155,33.624 58.1112676,32.688 57.1774648,32.112 L44.0323944,24.48 C42.8830986,23.832 41.4464789,24.624 41.3746479,25.992 Z"></path>
                                <path d="M62.1338028,38.016 L62.1338028,38.016 C62.0619718,39.456 62.7802817,40.824 64.0732394,41.544 L89.3577465,56.232 C90.6507042,57.024 92.3028169,56.016 92.3028169,54.504 L92.3028169,54.144 C92.3028169,53.064 91.728169,52.056 90.7943662,51.552 L64.7915493,36.504 C63.7140845,35.856 62.2056338,36.72 62.1338028,38.016 Z"></path>
                                <path d="M22.1239437,26.784 L22.1239437,27.144 C22.0521127,29.016 22.9859155,30.816 24.5661972,31.752 L36.8492958,38.88 C37.9985915,39.528 39.5070423,38.736 39.5070423,37.368 L39.5070423,36.864 C39.5070423,35.64 38.8605634,34.56 37.8549296,33.984 L23.9197183,25.92 C23.1295775,25.416 22.1239437,25.92 22.1239437,26.784 Z"></path>
                                <path d="M0.502816901,14.688 L0.502816901,14.904 C0.502816901,16.704 1.43661972,18.288 2.94507042,19.224 L15.443662,26.496 C16.5211268,27.144 17.8859155,26.352 17.8859155,25.056 L17.8859155,24.336 C17.8859155,23.184 17.2394366,22.032 16.2338028,21.456 L2.51408451,13.464 C1.65211268,12.96 0.502816901,13.608 0.502816901,14.688 Z"></path>
                                <path d="M45.4690141,43.776 L89.2859155,69.192 C90.6507042,69.984 92.3746479,68.976 92.3746479,67.392 L92.3746479,67.392 C92.3746479,66.168 91.728169,65.088 90.6507042,64.44 L45.0380282,38.016 C44.1760563,37.512 43.0267606,38.088 42.9549296,39.168 L42.9549296,39.24 C42.8830986,41.112 43.8887324,42.912 45.4690141,43.776 Z"></path>
                                <path d="M77.0028169,75.024 L90.4352113,82.8 C91.2971831,83.304 92.3746479,82.656 92.3746479,81.72 L92.3746479,81.72 C92.3746479,79.704 91.2971831,77.832 89.5732394,76.824 L76.428169,69.192 C75.5661972,68.688 74.4887324,69.264 74.4887324,70.272 L74.4887324,70.272 C74.3450704,72.216 75.2788732,74.016 77.0028169,75.024 Z"></path>
                                <path d="M0.502816901,27.504 L0.502816901,27.648 C0.502816901,29.52 1.5084507,31.176 3.08873239,32.112 L16.0901408,39.672 C16.9521127,40.176 17.9577465,39.528 17.9577465,38.592 L17.9577465,38.592 C17.9577465,36.576 16.8802817,34.704 15.156338,33.696 L2.51408451,26.352 C1.65211268,25.848 0.502816901,26.496 0.502816901,27.504 Z"></path>
                                <path d="M21.3338028,39.528 L21.3338028,39.528 C21.2619718,41.472 22.2676056,43.272 23.9197183,44.28 L68.9577465,70.416 C69.8197183,70.92 70.8253521,70.272 70.8253521,69.336 L70.8253521,69.336 C70.8253521,67.32 69.7478873,65.448 68.0239437,64.44 L23.3450704,38.52 C22.4830986,37.944 21.4056338,38.52 21.3338028,39.528 Z"></path>
                                <path d="M57.0338028,76.32 L90.2915493,95.616 C91.1535211,96.12 92.3028169,95.472 92.3028169,94.464 L92.3028169,94.464 C92.3028169,92.52 91.2971831,90.72 89.5732394,89.712 L57.1056338,70.92 C56.1,70.344 54.8070423,71.064 54.7352113,72.216 L54.7352113,72.216 C54.7352113,73.872 55.5971831,75.456 57.0338028,76.32 Z"></path>
                                <path d="M0.502816901,40.824 L0.502816901,40.824 C0.502816901,42.552 1.36478873,44.064 2.80140845,44.856 L28.1577465,59.544 C29.0915493,60.12 30.3126761,59.4 30.3126761,58.32 L30.3126761,58.32 C30.3126761,56.52 29.3070423,54.792 27.7985915,53.928 L2.94507042,39.528 C1.86760563,38.88 0.502816901,39.6 0.502816901,40.824 Z"></path>
                                <path d="M33.8323944,60.048 L33.8323944,60.048 C33.7605634,61.704 34.6225352,63.288 36.0591549,64.152 L49.5633803,72 C50.3535211,72.432 51.2873239,71.856 51.2873239,70.992 L51.2873239,70.992 C51.2873239,68.832 50.1380282,66.888 48.2704225,65.808 L36.1309859,58.824 C35.1253521,58.176 33.9042254,58.896 33.8323944,60.048 Z"></path>
                                <path d="M0.502816901,53.424 L0.502816901,53.424 C0.502816901,55.296 1.5084507,57.024 3.08873239,57.96 L47.1211268,83.52 C48.1267606,84.096 49.4197183,83.376 49.4197183,82.224 L49.4197183,82.224 C49.4197183,80.496 48.4859155,78.84 46.9774648,77.976 L2.65774648,52.272 C1.72394366,51.696 0.502816901,52.344 0.502816901,53.424 Z"></path>
                                <path d="M76.8591549,100.728 L90.1478873,108.432 C91.0816901,109.008 92.3028169,108.288 92.3028169,107.208 L92.3028169,107.208 C92.3028169,105.336 91.2971831,103.68 89.7169014,102.744 L76.428169,95.04 C75.4943662,94.536 74.4169014,95.112 74.3450704,96.192 L74.3450704,96.192 C74.3450704,98.064 75.2788732,99.792 76.8591549,100.728 Z"></path>
                                <path d="M52.9394366,83.808 L52.9394366,83.808 C52.8676056,85.608 53.8014085,87.336 55.3098592,88.2 L69.0295775,96.192 C69.8197183,96.624 70.8253521,96.048 70.8253521,95.184 L70.8253521,95.184 C70.8253521,93.096 69.6760563,91.152 67.8802817,90.072 L55.0225352,82.656 C54.1605634,82.08 53.0112676,82.728 52.9394366,83.808 Z"></path>
                                <path d="M0.502816901,66.384 L0.502816901,66.384 C0.502816901,68.04 1.36478873,69.624 2.87323944,70.488 L16.1619718,78.192 C16.9521127,78.624 17.9577465,78.048 17.9577465,77.112 L17.9577465,77.112 C17.9577465,75.024 16.8802817,73.152 15.084507,72.072 L2.80140845,64.944 C1.86760563,64.44 0.502816901,65.16 0.502816901,66.384 Z"></path>
                                <path d="M76.643662,113.256 L90.7943662,121.464 C91.4408451,121.824 92.3028169,121.392 92.3028169,120.6 L92.3028169,120.6 C92.3028169,118.296 91.0816901,116.136 89.0704225,114.984 L76.715493,107.856 C75.7098592,107.28 74.4169014,108 74.3450704,109.152 L74.3450704,109.152 C74.3450704,110.808 75.2070423,112.392 76.643662,113.256 Z"></path>
                                <path d="M21.5492958,78.48 L21.5492958,78.48 C21.4774648,80.136 22.3394366,81.72 23.7760563,82.584 L68.9577465,108.792 C69.8197183,109.296 70.8971831,108.648 70.8971831,107.712 L70.8971831,107.712 C70.8971831,105.696 69.8197183,103.824 68.0957746,102.816 L23.9197183,77.184 C22.8422535,76.608 21.6211268,77.328 21.5492958,78.48 Z"></path>
                                <path d="M64.5042254,117.576 L90.7943662,132.84 C91.5126761,133.272 92.3746479,132.768 92.3746479,131.904 L92.3746479,131.904 C92.3746479,129.672 91.1535211,127.584 89.2140845,126.432 L64.6478873,112.248 C63.6422535,111.672 62.3492958,112.392 62.2774648,113.544 L62.2774648,113.544 C62.2056338,115.2 63.0676056,116.712 64.5042254,117.576 Z"></path>
                                <path d="M0.502816901,77.184 L0.502816901,77.184 C0.502816901,79.2 1.58028169,81.072 3.30422535,82.08 L35.484507,100.728 C36.4901408,101.304 37.6394366,100.584 37.6394366,99.432 L37.6394366,99.432 C37.6394366,97.632 36.7056338,95.976 35.1253521,95.04 L2.37042254,76.032 C1.58028169,75.672 0.502816901,76.248 0.502816901,77.184 Z"></path>
                                <path d="M41.2309859,100.728 L41.2309859,100.728 C41.1591549,102.744 42.1647887,104.616 43.8887324,105.696 L56.8183099,113.184 C57.6802817,113.688 58.7577465,113.04 58.7577465,112.104 L58.7577465,112.104 C58.7577465,110.088 57.6802817,108.216 55.956338,107.208 L43.0985915,99.792 C42.3084507,99.216 41.3028169,99.792 41.2309859,100.728 Z"></path>
                            </g>
                            <ellipse id="Oval" fill="#F5C487" fill-rule="nonzero" cx="266.780282" cy="188.704" rx="13.9352113" ry="5.832"></ellipse>
                            <g transform="translate(252.845070, 160.840000)" fill-rule="nonzero">
                                <path d="M0,4.896 L0,27.936 L0,27.936 C0.143661972,30.312 5.31549296,32.256 11.7084507,32.256 C18.0295775,32.256 23.2014085,30.312 23.4169014,27.936 L23.4169014,27.936 L23.4169014,4.896 L0,4.896 Z" id="Shape" fill="#3DA8E2"></path>
                                <ellipse id="Oval" fill="#FFFFFF" cx="11.7084507" cy="4.824" rx="11.7084507" ry="4.824"></ellipse>
                                <ellipse id="Oval" fill="#613C00" cx="11.7084507" cy="4.392" rx="10.5591549" ry="4.104"></ellipse>
                                <g id="Shape" opacity="0.53" transform="translate(7.901408, 4.320000)" fill="#FFFFFF">
                                    <path d="M6.32112676,5.256 C5.53098592,5.328 4.66901408,5.4 3.80704225,5.4 C2.65774648,5.4 1.5084507,5.328 0.430985915,5.184 L0.430985915,27.72 C1.5084507,27.864 2.58591549,27.936 3.80704225,27.936 C4.66901408,27.936 5.53098592,27.864 6.32112676,27.864 L6.32112676,5.256 Z" opacity="0.68"></path>
                                    <path d="M15.515493,0.576 C15.443662,2.52 12.4985915,4.248 8.40422535,4.968 L8.40422535,27.576 C12.4985915,26.928 15.371831,25.416 15.515493,23.616 L15.515493,23.616 L15.515493,0.576 L15.515493,0.576 Z" opacity="0.68"></path>
                                </g>
                            </g>
                            <path d="M264.553521,161.056 L266.564789,166.384 L274.969014,165.088 L276.11831,164.872 C275.902817,164.152 275.040845,163.144 273.24507,162.352 C271.449296,161.56 269.222535,161.128 269.222535,161.128 L264.553521,161.056 Z" id="Shape" fill="#000000" fill-rule="nonzero" opacity="0.49"></path>
                            <path d="M275.4,142.624 C274.178873,142.84 273.316901,143.992 273.316901,145.288 L273.316901,150.688 C273.316901,151.48 272.670423,152.128 271.880282,152.128 L269.366197,152.128 L269.366197,138.736 C269.366197,135.928 267.139437,133.696 264.338028,133.696 C261.53662,133.696 259.309859,135.928 259.309859,138.736 L259.309859,147.232 L257.15493,147.232 C256.364789,147.232 255.71831,146.584 255.71831,145.792 L255.71831,140.392 C255.71831,139.096 254.856338,137.944 253.635211,137.728 C251.911268,137.368 250.402817,138.664 250.402817,140.32 L250.402817,146.368 C250.402817,149.752 253.132394,152.488 256.508451,152.488 L259.166197,152.488 L259.166197,165.16 C259.166197,165.88 261.392958,166.456 264.194366,166.456 C266.995775,166.456 269.222535,165.88 269.222535,165.16 L269.222535,157.384 L273.173239,157.384 C276.11831,157.384 278.488732,155.008 278.488732,152.056 L278.488732,145.216 C278.560563,143.56 277.123944,142.264 275.4,142.624 Z" id="Shape" fill="#78D039" fill-rule="nonzero"></path>
                            <path d="M207.591549,175.24 C207.591549,175.24 209.387324,174.736 214.774648,171.64 C219.802817,168.76 221.239437,168.04 221.239437,168.04 C221.239437,168.04 223.394366,166.6 221.957746,165.16 C220.449296,163.648 207.591549,175.24 207.591549,175.24 Z" id="Shape" fill="#F5C487" fill-rule="nonzero"></path>
                            <path d="M201.485915,176.392 C201.485915,176.392 204.359155,177.544 210.895775,173.368 C217.432394,169.192 220.233803,168.112 220.233803,168.112 C220.233803,168.112 223.825352,166.168 221.814085,165.592 C219.802817,165.016 212.476056,166.6 212.476056,166.6 L201.485915,176.392 Z" id="Shape" fill="#95CDFF" fill-rule="nonzero"></path>
                            <path d="M67.5211268,119.872 L68.2394366,120.52 C68.2394366,120.52 68.9577465,121.24 68.2394366,121.96 C67.5211268,122.68 48.1267606,135.64 48.1267606,135.64 C48.1267606,135.64 46.6901408,136.36 44.9661972,135.928 C43.4577465,135.64 67.5211268,119.872 67.5211268,119.872 Z" id="Shape" fill="#F5C487" fill-rule="nonzero"></path>
                            <path d="M196.601408,171.064 C196.601408,171.064 198.397183,166.888 208.238028,162.856 C208.238028,162.856 213.338028,160.696 218.58169,163.36 C218.58169,163.36 221.885915,164.728 222.316901,165.808 C222.676056,166.744 221.383099,167.32 220.090141,167.608 C218.366197,168.04 212.978873,169.768 208.309859,173.944 C203.640845,178.12 199.977465,176.104 199.977465,176.104 C199.977465,176.104 195.092958,173.944 196.601408,171.064 Z" id="Shape" fill="#DBF0FF" fill-rule="nonzero"></path>
                            <g transform="translate(35.915493, 114.760000)" id="Shape" fill-rule="nonzero">
                                <path d="M31.6056338,6.336 L31.6056338,6.336 L31.6056338,5.184 L31.1746479,5.688 C31.1746479,5.688 31.1028169,5.616 31.1028169,5.616 L22.6267606,1.584 C21.6929577,1.152 20.6873239,1.224 19.8253521,1.8 L1.93943662,13.896 L0.430985915,14.184 L0.430985915,15.408 L0.430985915,15.408 C0.430985915,15.624 0.574647887,15.84 0.790140845,15.984 L8.40422535,20.952 C9.33802817,21.528 10.4873239,21.528 11.3492958,20.88 L31.1746479,7.2 C31.5338028,6.984 31.6774648,6.624 31.6056338,6.336 Z" fill="#95CDFF"></path>
                                <path d="M22.6267606,0.36 L31.1028169,4.392 C31.7492958,4.68 31.8211268,5.616 31.2464789,6.048 L11.4211268,19.728 C10.5591549,20.304 9.40985915,20.376 8.47605634,19.8 L0.861971831,14.832 C0.430985915,14.544 0.430985915,13.896 0.861971831,13.536 L19.9690141,0.648 C20.6873239,-2.63816746e-14 21.6929577,-0.072 22.6267606,0.36 Z" fill="#DBF0FF"></path>
                                <polygon fill="#000000" points="19.3943662 1.584 3.80704225 12.168 12.7859155 17.856 29.2352113 6.408"></polygon>
                                <polygon fill="#000000" points="23.5605634 2.736 26.0028169 3.96 26.2901408 3.744 23.8478873 2.52"></polygon>
                            </g>
                            <ellipse id="Oval" fill="#95CDFF" fill-rule="nonzero" opacity="0.52" transform="translate(203.680137, 170.241184) rotate(-32.030890) translate(-203.680137, -170.241184) " cx="203.680137" cy="170.241184" rx="1.07751273" ry="1"></ellipse>
                            <path d="M264.338028,134.2 L264.338028,165.88 C264.338028,165.88 267.211268,165.88 268.647887,165.16 L268.647887,138.52 C268.647887,138.52 268.647887,134.92 264.338028,134.2 Z" id="Shape" fill="#4EAD36" fill-rule="nonzero"></path>
                            <path d="M252.84507,138.52 C252.84507,138.52 254.28169,138.52 255,139.96 L255,145.72 C255,145.72 255,146.44 255.71831,147.16 C255.71831,147.16 256.43662,147.88 257.15493,147.88 L259.309859,147.88 L259.309859,150.04 L257.15493,150.04 C257.15493,150.04 255,150.04 254.28169,149.32 C254.28169,149.32 252.84507,148.6 252.84507,147.16 L252.84507,138.52 Z" id="Shape" fill="#4EAD36" fill-rule="nonzero"></path>
                            <path d="M275.830986,143.56 C275.830986,143.56 277.267606,143.56 277.985915,145 L277.985915,152.2 C277.985915,152.2 277.985915,155.8 274.394366,156.52 L269.366197,156.52 L269.366197,154.36 L274.394366,154.36 C274.394366,154.36 275.830986,153.64 275.830986,152.2 L275.830986,143.56 Z" id="Shape" fill="#4EAD36" fill-rule="nonzero"></path>
                        </g>
                    </g>
                </g>
            </g>
        </g>
    </g>
</svg>