<?xml version="1.0" encoding="UTF-8"?>
<svg width="425px" height="236px" viewBox="0 0 425 236" version="1.1" xmlns="http://www.w3.org/2000/svg" xmlns:xlink="http://www.w3.org/1999/xlink">
    <!-- Generator: Sketch 47.1 (45422) - http://www.bohemiancoding.com/sketch -->
    <title>3d-location-graph</title>
    <desc>Created with Sketch.</desc>
    <defs>
        <linearGradient x1="13.9030612%" y1="50%" x2="100%" y2="50%" id="linearGradient-1">
            <stop stop-color="#23C2C4" offset="0%"></stop>
            <stop stop-color="#64E7B1" offset="100%"></stop>
            <stop stop-color="#77D9B1" offset="100%"></stop>
            <stop stop-color="#4BD47F" offset="100%"></stop>
        </linearGradient>
    </defs>
    <g id="Page-1" stroke="none" stroke-width="1" fill="none" fill-rule="evenodd">
        <g id="3d-location-graph" fill-rule="nonzero" fill="url(#linearGradient-1)">
            <path d="M72.366,131.953 C73.368,131.953 74.321,131.524 74.985,130.775 C76.911,128.602 122.156,77.269 122.156,50.681 C122.156,23.227 99.82,0.891 72.366,0.891 C44.912,0.891 22.576,23.227 22.576,50.681 C22.576,77.269 67.821,128.602 69.747,130.775 C70.411,131.525 71.364,131.953 72.366,131.953 Z M43.866,48.778 C43.866,33.063 56.651,20.277 72.366,20.277 C88.081,20.277 100.866,33.063 100.866,48.778 C100.866,64.493 88.081,77.278 72.366,77.278 C56.651,77.278 43.866,64.492 43.866,48.778 Z" id="Shape"></path>
            <path d="M74.303,61.508 L86.303,44.832 C86.826,44.105 86.898,43.146 86.49,42.35 C86.082,41.553 85.261,41.052 84.366,41.052 L60.366,41.052 C59.47,41.052 58.65,41.553 58.242,42.35 C57.834,43.147 57.906,44.105 58.429,44.832 L70.429,61.508 C70.877,62.131 71.599,62.501 72.366,62.501 C73.133,62.501 73.855,62.132 74.303,61.508 Z" id="Shape"></path>
            <path d="M338.819,124.331 C339.589,124.331 340.322,124.001 340.833,123.425 C342.314,121.755 377.104,82.283 377.104,61.839 C377.104,40.729 359.929,23.554 338.819,23.554 C317.709,23.554 300.534,40.729 300.534,61.839 C300.534,82.283 335.324,121.755 336.805,123.425 C337.316,124.001 338.049,124.331 338.819,124.331 Z M316.904,60.374 C316.904,48.29 326.735,38.459 338.819,38.459 C350.903,38.459 360.733,48.29 360.733,60.374 C360.733,72.458 350.902,82.289 338.819,82.289 C326.736,82.289 316.904,72.458 316.904,60.374 Z" id="Shape"></path>
            <path d="M424.068,122.409 C424.084,120.987 423.238,119.697 421.928,119.144 L372.516,98.298 C371.274,100.217 369.941,102.194 368.536,104.216 L374.234,106.62 L363.878,110.716 C360.838,114.823 357.93,118.524 355.456,121.575 L383.444,110.505 L411.315,122.264 L374.123,136.975 L350.832,127.149 C349.499,128.715 348.593,129.744 348.315,130.058 C347.47,131.011 346.489,131.813 345.422,132.463 L364.829,140.651 L329.848,154.487 L301.976,142.728 L330.696,131.369 C330.212,130.965 329.745,130.537 329.322,130.059 C328.971,129.664 327.636,128.146 325.683,125.823 L292.766,138.843 L262.942,126.26 L297.923,112.425 L323.526,123.226 C321.014,120.17 317.911,116.277 314.614,111.87 L307.217,108.749 L311.182,107.181 C310.766,106.6 310.35,106.018 309.933,105.426 C308.94,104.014 308,102.636 307.085,101.274 L298.008,104.864 L268.183,92.281 L295.665,81.411 C294.637,79.155 293.764,76.991 293.047,74.918 L258.973,88.396 L229.148,75.813 L266.341,61.103 L292.121,71.979 C291.283,69.044 290.768,66.296 290.601,63.741 L267.781,54.113 C267.777,54.112 267.773,54.11 267.768,54.108 L230.663,38.454 C229.819,38.097 228.868,38.087 228.015,38.424 L123.385,79.807 C121.814,82.888 120.042,86.095 118.041,89.448 L138.499,81.357 L166.371,93.116 L131.391,106.951 L112.119,98.82 C110.841,100.749 109.508,102.713 108.104,104.723 L122.098,110.626 L96.114,120.904 C92.608,125.382 89.47,129.199 87.079,132.043 L116.859,144.606 L79.668,159.316 L49.841,146.732 L66.003,140.34 C64.609,139.594 63.335,138.616 62.264,137.409 C61.997,137.108 61.29,136.305 60.243,135.09 L40.631,142.847 L12.758,131.087 L46.244,117.843 C44.824,115.992 43.361,114.054 41.876,112.043 L2.22,127.728 C0.898,128.251 0.023,129.522 0.007,130.943 C-0.009,132.365 0.007,153.347 0.007,153.347 L193.412,234.902 C193.847,235.086 194.31,235.177 194.772,235.177 C195.209,235.177 195.646,235.095 196.059,234.932 L424.068,143.534 C424.068,143.534 424.052,123.83 424.068,122.409 Z M283.473,142.519 L248.494,156.354 L218.671,143.772 L253.65,129.937 L283.473,142.519 Z M200.167,143.562 L165.186,157.398 L135.362,144.816 L170.342,130.98 L200.167,143.562 Z M179.636,127.303 L214.615,113.468 L244.439,126.051 L209.46,139.886 L179.636,127.303 Z M209.377,147.447 L239.2,160.029 L204.219,173.865 L174.396,161.283 L209.377,147.447 Z M288.715,108.539 L253.734,122.374 L223.91,109.792 L258.89,95.956 L288.715,108.539 Z M249.68,92.07 L214.7,105.906 L184.875,93.323 L219.855,79.488 L249.68,92.07 Z M229.262,45.458 L257.133,57.216 L219.941,71.926 L192.07,60.168 L229.262,45.458 Z M147.795,77.679 L182.775,63.844 L210.646,75.603 L175.666,89.438 L147.795,77.679 Z M175.582,96.999 L205.407,109.582 L170.428,123.418 L140.602,110.835 L175.582,96.999 Z M96.327,128.346 L131.307,114.511 L161.133,127.094 L126.153,140.93 L96.327,128.346 Z M88.878,163.201 L126.069,148.491 L155.893,161.073 L118.702,175.784 L88.878,163.201 Z M127.91,179.669 L165.101,164.959 L194.924,177.541 L157.732,192.251 L127.91,179.669 Z M194.815,207.897 L166.941,196.137 L204.133,181.427 L232.006,193.187 L194.815,207.897 Z M241.3,189.511 L213.428,177.751 L248.409,163.915 L276.282,175.674 L241.3,189.511 Z M285.576,171.998 L257.704,160.239 L292.683,146.404 L320.555,158.163 L285.576,171.998 Z" id="Shape"></path>
            <path d="M340.309,70.164 L349.536,57.342 C349.938,56.783 349.994,56.046 349.68,55.433 C349.366,54.82 348.735,54.435 348.047,54.435 L329.593,54.435 C328.905,54.435 328.274,54.82 327.96,55.433 C327.646,56.046 327.702,56.783 328.104,57.342 L337.331,70.164 C337.676,70.643 338.23,70.927 338.821,70.927 C339.409,70.927 339.963,70.643 340.309,70.164 Z" id="Shape"></path>
        </g>
    </g>
</svg>