<?xml version="1.0" encoding="UTF-8"?>
<svg width="436px" height="512px" viewBox="0 0 436 512" version="1.1" xmlns="http://www.w3.org/2000/svg" xmlns:xlink="http://www.w3.org/1999/xlink">
    <!-- Generator: Sketch 47.1 (45422) - http://www.bohemiancoding.com/sketch -->
    <title>account</title>
    <desc>Created with Sketch.</desc>
    <defs>
        <linearGradient x1="0%" y1="48.7729669%" x2="100%" y2="48.7729669%" id="linearGradient-1">
            <stop stop-color="#ED4264" offset="0%"></stop>
            <stop stop-color="#FFEDBC" offset="100%"></stop>
        </linearGradient>
    </defs>
    <g id="Page-1" stroke="none" stroke-width="1" fill="none" fill-rule="evenodd">
        <g id="account" fill-rule="nonzero" fill="url(#linearGradient-1)">
            <path d="M418.348,66.782 C339.405,66.782 284.865,41.205 227.261,2.804 C221.652,-0.935 214.346,-0.935 208.739,2.804 C151.136,41.205 96.596,66.782 17.652,66.782 C8.432,66.782 0.956,74.257 0.956,83.478 L0.956,258.802 C0.956,319.436 22.54,378.307 61.733,424.572 C100.926,470.837 155.447,501.805 215.256,511.773 C216.164,511.924 217.083,512 218.001,512 C218.919,512 219.836,511.924 220.746,511.773 C280.554,501.805 335.077,470.836 374.269,424.572 C413.461,378.307 435.043,319.435 435.043,258.802 L435.043,83.477 C435.044,74.257 427.568,66.782 418.348,66.782 Z M401.652,258.802 C401.652,367.368 324.587,459.263 218,478.361 C111.413,459.263 34.348,367.368 34.348,258.802 L34.348,99.825 C108.618,96.674 162.711,72.412 217.999,36.671 C266.754,68.202 323.192,96.286 401.652,99.803 L401.652,258.802 Z" id="Shape"></path>
            <path d="M218,100.173 C135.146,100.173 67.739,167.58 67.739,250.434 C67.739,291.401 84.224,328.583 110.902,355.716 C111.234,356.114 111.581,356.502 111.95,356.87 C140.34,385.157 178.036,400.695 218,400.695 C256.747,400.695 294.814,385.998 324.05,356.87 C324.421,356.502 324.768,356.114 325.098,355.716 C351.775,328.583 368.261,291.401 368.261,250.434 C368.261,167.58 300.854,100.173 218,100.173 Z M218,367.303 C193.763,367.303 169.79,359.818 149.418,345.002 C169.242,330.572 193.029,322.781 218,322.781 C242.971,322.781 266.758,330.572 286.582,345.002 C266.687,359.471 242.848,367.303 218,367.303 Z M310.76,321.437 C284.398,300.665 252.056,289.39 218,289.39 C183.944,289.39 151.603,300.665 125.24,321.437 C110.128,301.742 101.13,277.12 101.13,250.434 C101.13,185.992 153.558,133.564 218,133.564 C282.442,133.564 334.87,185.992 334.87,250.434 C334.87,277.12 325.872,301.742 310.76,321.437 Z" id="Shape"></path>
            <path d="M218,166.956 C184.245,166.956 156.783,194.418 156.783,228.173 C156.783,261.928 184.245,289.39 218,289.39 C251.755,289.39 279.217,261.928 279.217,228.173 C279.218,194.418 251.755,166.956 218,166.956 Z M218,255.999 C202.657,255.999 190.174,243.516 190.174,228.173 C190.174,212.83 202.657,200.347 218,200.347 C233.343,200.347 245.826,212.83 245.826,228.173 C245.826,243.516 233.344,255.999 218,255.999 Z" id="Shape"></path>
        </g>
    </g>
</svg>