<?xml version="1.0" encoding="UTF-8"?>
<svg width="361px" height="512px" viewBox="0 0 361 512" version="1.1" xmlns="http://www.w3.org/2000/svg" xmlns:xlink="http://www.w3.org/1999/xlink">
    <!-- Generator: Sketch 47.1 (45422) - http://www.bohemiancoding.com/sketch -->
    <title>wordpress copy</title>
    <desc>Created with Sketch.</desc>
    <defs>
        <linearGradient x1="0%" y1="0%" x2="100%" y2="100%" id="linearGradient-1">
            <stop stop-color="#9AFCFF" offset="0%"></stop>
            <stop stop-color="#2FE0F1" offset="51.8528923%"></stop>
            <stop stop-color="#06CBDE" offset="100%"></stop>
        </linearGradient>
    </defs>
    <g id="Page-1" stroke="none" stroke-width="1" fill="none" fill-rule="evenodd">
        <g id="wordpress-copy" transform="translate(180.500000, 256.000000) scale(-1, 1) translate(-180.500000, -256.000000) " fill-rule="nonzero">
            <path d="M314.003366,125.88256 L106.539391,6.44966057 C93.4353682,-1.09433305 81.5619164,-1.79533246 72.9880385,3.17266334 L14.4301276,37.1036346 C14.4572062,37.0876347 14.4872935,37.0756347 14.515375,37.0586347 C6.00267462,41.9426305 0.719344576,52.3876217 0.676219445,67.2596091 L0.000258083933,304.961408 C-0.0849892687,334.796383 20.9590719,371.139352 46.998628,386.129339 L254.463606,505.561238 C267.943719,513.320232 280.111024,513.823231 288.733042,508.379236 C288.493346,508.530236 288.259668,508.693236 288.012952,508.837236 L346.568857,474.907264 C355.033418,470.002268 360.280643,459.574277 360.323768,444.75229 L360.99973,207.050491 C361.086983,177.208516 340.042922,140.872547 314.003366,125.88256 Z" id="Shape" fill="url(#linearGradient-1)"></path>
            <g id="Group" transform="translate(15.000000, 0.000000)" fill="#24C9D8">
                <path d="M331.588,474.907 L273.202,508.837 C281.642,503.932 286.876,493.504 286.917,478.682 L345.303,444.752 C345.261,459.573 340.027,470.002 331.588,474.907 Z" id="Shape"></path>
                <g id="Shape">
                    <path d="M0.411,37.104 L58.797,3.174 C67.346,-1.794 79.185,-1.093 92.251,6.451 L33.865,40.381 C20.799,32.837 8.961,32.135 0.411,37.104 Z"></path>
                    <polygon points="287.591 240.981 345.977 207.05 345.303 444.752 286.917 478.682"></polygon>
                </g>
                <polygon id="Shape" points="33.866 40.381 92.253 6.45 299.115 125.883 240.729 159.813"></polygon>
                <path d="M240.729,159.813 L299.115,125.883 C325.08,140.873 346.061,177.21 345.977,207.051 L287.591,240.981 C287.676,211.14 266.693,174.804 240.729,159.813 Z" id="Shape"></path>
            </g>
            <path d="M146.230367,373.246978 C137.665113,368.295618 129.421417,362.090421 121.619117,354.940346 L148.017915,282.665692 L174.562514,382.541776 C174.727288,383.149698 174.939996,383.705626 175.174675,384.267553 C166.101117,382.700756 156.366467,379.10622 146.230367,373.246978 M108.233473,341.209121 C79.2002872,308.176393 59.260631,262.280328 59.3724776,222.635455 C59.4134215,208.097335 62.155661,195.869917 67.0279794,186.201167 L108.233473,341.209121 M190.075241,384.964463 L216.922425,311.823921 C221.940543,300.3924 223.635219,289.930753 223.663181,279.768067 C223.673167,276.071545 223.457463,272.530003 223.096957,269.101446 C229.862679,287.326089 233.677448,305.929684 233.628515,323.366429 C233.524657,360.346646 216.012672,382.553775 190.075241,384.964463 M79.4729133,179.235068 C77.8311647,178.28619 75.9117968,177.12634 73.8685987,175.865503 C89.5151421,157.660858 116.345349,155.16518 146.797589,172.768904 C169.483479,185.883208 190.099208,207.799374 205.547024,233.103102 C205.177531,232.852134 204.802046,232.586168 204.431554,232.372196 C195.855315,227.414837 189.770659,232.475183 189.744694,241.69499 C189.721726,249.962921 193.836084,259.33271 198.227062,270.139312 C201.51755,278.722202 205.365273,289.549802 205.330321,301.946199 C205.306354,310.52309 203.060434,320.040859 198.614531,330.505505 L189.826582,358.879836 L158.638351,232.951121 C163.911121,235.66577 168.605683,237.7545 168.605683,237.7545 C173.221353,239.780238 172.798932,231.888259 168.356025,229.320591 C168.269144,229.270597 168.182263,229.222603 168.092387,229.177609 C168.092387,229.177609 153.961764,222.294499 144.855252,217.03018 C136.29599,212.08182 121.925696,202.49006 121.925696,202.49006 C121.838816,202.435068 121.754931,202.382074 121.671046,202.334081 C117.199178,199.748415 116.733816,207.448419 121.334507,210.430034 C121.334507,210.430034 125.778413,213.622621 130.470978,216.669227 L143.924529,267.29668 L124.67193,322.051599 L93.2450272,195.151009 C98.5177965,197.865658 103.223344,199.961387 103.223344,199.961387 C107.833022,201.984126 107.416593,194.095146 102.978679,191.529478 C102.891798,191.479484 102.804917,191.43249 102.715041,191.386496 C102.716039,191.385496 88.585417,184.502387 79.4729133,179.235068 M146.831542,155.076192 C90.2271657,122.355423 44.1843057,148.621027 44.0005576,213.748604 C43.815811,278.877182 89.5600805,358.201924 146.163458,390.921692 C202.772828,423.645461 248.815688,397.380857 248.999436,332.25228 C249.185182,267.123702 203.439914,187.79996 146.831542,155.076192" id="Shape" fill="#FFFFFF"></path>
        </g>
    </g>
</svg>