<?xml version="1.0" encoding="UTF-8"?>
<svg width="702px" height="260px" viewBox="0 0 702 260" version="1.1" xmlns="http://www.w3.org/2000/svg" xmlns:xlink="http://www.w3.org/1999/xlink">
    <!-- Generator: Sketch 47.1 (45422) - http://www.bohemiancoding.com/sketch -->
    <title>Group</title>
    <desc>Created with Sketch.</desc>
    <defs>
        <linearGradient x1="0%" y1="48.5701323%" x2="100%" y2="48.5701308%" id="linearGradient-1">
            <stop stop-color="#FF8008" offset="0%"></stop>
            <stop stop-color="#FFC837" offset="100%"></stop>
        </linearGradient>
    </defs>
    <g id="Page-1" stroke="none" stroke-width="1" fill="none" fill-rule="evenodd">
        <g id="Group">
            <rect id="Rectangle-Copy-4" fill="#F3F6F8" x="618" y="154" width="84" height="26" rx="13"></rect>
            <rect id="Rectangle-Copy-5" fill="#F3F6F8" x="515" y="154" width="84" height="26" rx="13"></rect>
            <rect id="Rectangle-Copy-6" fill="#F3F6F8" x="556" y="100" width="145" height="26" rx="13"></rect>
            <rect id="Rectangle-Copy-9" fill="#F3F6F8" x="103" y="154" width="84" height="26" rx="13"></rect>
            <rect id="Rectangle-Copy-8" fill="#F3F6F8" x="0" y="154" width="84" height="26" rx="13"></rect>
            <rect id="Rectangle-Copy-7" fill="#F3F6F8" x="0" y="100" width="145" height="26" rx="13"></rect>
            <g id="secure-shield" transform="translate(242.000000, 0.000000)" fill-rule="nonzero" fill="url(#linearGradient-1)">
                <path d="M217.971198,44.8962283 C182.154824,35.0944553 146.12796,19.8321879 113.785181,0.759812598 C112.067195,-0.253270866 109.935347,-0.253270866 108.217869,0.759812598 C74.9421214,20.3801163 40.8620367,34.8166826 4.02880189,44.8962283 C1.64934797,45.5467345 0,47.7069636 0,50.1713717 L0,106.05397 C0,163.600665 26.5802289,201.692603 48.8789661,223.513761 C72.8850123,247.007649 100.84868,260 111.001525,260 C121.153354,260 149.117021,247.007649 173.123068,223.513761 C195.421296,201.693111 222,163.601173 222,106.05397 L222,50.1708638 C222,47.7069636 220.350652,45.5467345 217.971198,44.8962283 Z M211.048411,106.053462 C211.048411,159.801729 186.25684,195.345978 165.457972,215.700069 C141.851044,238.802942 116.611037,249.06073 111.001525,249.06073 C105.392014,249.06073 80.1504816,238.802942 56.5430448,215.700069 C35.7446855,195.34547 10.9520976,159.801729 10.9520976,106.053462 L10.9520976,54.3227287 C46.1751336,44.3340812 78.9780413,30.3941543 111.002542,11.8067388 C142.227282,29.9010696 176.666827,44.5341589 211.048411,54.3206975 L211.048411,106.053462 Z" id="Shape"></path>
                <path d="M62.6187569,53.4887513 C61.5148074,50.6597653 58.3482955,49.2700611 55.5448716,50.3847889 C45.801758,54.259503 35.8013938,57.8260187 25.821792,60.9856919 C23.5475548,61.706355 22,63.8325667 22,66.2378437 L22,87.4953606 C22,90.5354344 24.4423616,93 27.4539154,93 C30.4654693,93 32.9078309,90.5354344 32.9078309,87.4953606 L32.9078309,70.2607793 C41.8604559,67.3372382 50.8034593,64.1034542 59.5433968,60.6274048 C62.3463143,59.5136992 63.7232127,56.3177373 62.6187569,53.4887513 Z" id="Shape"></path>
                <path d="M72.4619154,54 C73.1930641,54 73.9353445,53.8518545 74.6472658,53.5392724 L74.7474509,53.4954906 C77.5045647,52.2797808 78.7462526,49.0506152 77.5379598,46.2775954 C76.3286549,43.5035573 73.1009748,42.2486475 70.3468969,43.4633391 L70.2588555,43.501521 C67.5002237,44.7136671 66.2544879,47.9402873 67.4592389,50.7148344 C68.3533149,52.7746174 70.3595465,54 72.4619154,54 Z" id="Shape"></path>
                <path d="M177.499147,175.893364 C174.94898,174.237341 171.529287,174.949538 169.860431,177.484225 C165.312967,184.399507 159.977959,191.021561 154.001438,197.164575 C149.086589,202.215623 143.760804,206.923553 138.172163,211.156516 C135.749069,212.992242 135.282794,216.432574 137.129961,218.841011 C138.216741,220.255732 139.859977,221 141.522171,221 C142.689396,221 143.865332,220.633975 144.864493,219.87647 C150.892765,215.309554 156.636661,210.232544 161.935802,204.786454 C168.397557,198.146073 174.172196,190.97829 179.100366,183.482153 C180.768197,180.946957 180.050338,177.549387 177.499147,175.893364 Z" id="Shape"></path>
                <path d="M124.969083,220.740756 L124.662988,220.923312 C122.113681,222.418365 121.242449,225.722427 122.718442,228.303789 C123.707555,230.034058 125.498063,231 127.340083,231 C128.246481,231 129.166748,230.765787 130.007271,230.271782 L130.36042,230.061642 C132.902793,228.554051 133.756689,225.245475 132.267819,222.671135 C130.777957,220.097798 127.50997,219.234669 124.969083,220.740756 Z" id="Shape"></path>
                <path d="M73.5161311,119.336986 C70.1396751,115.977771 65.6491368,114.129035 60.8731851,114.129035 C56.0972333,114.129035 51.6061844,115.978279 48.2281967,119.336986 C41.2572678,126.272794 41.2572678,137.558211 48.2281967,144.493511 L80.6989501,176.792557 C84.0759166,180.150756 88.566455,182 93.3429173,182 C98.1193796,182 102.609918,180.150756 105.987395,176.791541 L173.772314,109.362444 C180.742732,102.425113 180.742732,91.1412193 173.771293,84.2079508 C170.394326,80.8487362 165.903788,79 161.126815,79 C156.350353,79 151.859814,80.8492441 148.482337,84.2079508 L93.3424067,139.058023 L73.5161311,119.336986 Z M156.25947,91.9442006 C157.558892,90.651609 159.288222,89.9400487 161.127326,89.9400487 C162.967451,89.9400487 164.695248,90.651609 165.995692,91.9442006 C168.678782,94.6131865 168.678782,98.9577165 165.994671,101.627718 L98.2107732,169.055799 C96.9113508,170.348391 95.1820213,171.059951 93.3429173,171.059951 C91.5038134,171.059951 89.7744838,170.348391 88.4745508,169.055799 L56.0048186,136.757769 C53.3207072,134.087767 53.3207072,129.743237 56.0037974,127.074251 C57.3037304,125.78166 59.03306,125.069084 60.8726745,125.069084 C62.712289,125.069084 64.4405974,125.780644 65.7400198,127.073235 L89.4538405,150.662906 C90.4857198,151.688345 91.8836838,152.264805 93.3424067,152.264805 C94.8011297,152.264805 96.1990937,151.688853 97.2299518,150.662906 L156.25947,91.9442006 Z" id="Shape"></path>
            </g>
        </g>
    </g>
</svg>