<?xml version="1.0" encoding="UTF-8"?>
<svg width="702px" height="221px" viewBox="0 0 702 221" version="1.1" xmlns="http://www.w3.org/2000/svg" xmlns:xlink="http://www.w3.org/1999/xlink">
    <!-- Generator: Sketch 47.1 (45422) - http://www.bohemiancoding.com/sketch -->
    <title>Group</title>
    <desc>Created with Sketch.</desc>
    <defs>
        <linearGradient x1="0%" y1="48.5701323%" x2="100%" y2="48.5701308%" id="linearGradient-1">
            <stop stop-color="#FF8008" offset="0%"></stop>
            <stop stop-color="#FFC837" offset="100%"></stop>
        </linearGradient>
    </defs>
    <g id="Page-1" stroke="none" stroke-width="1" fill="none" fill-rule="evenodd">
        <g id="Group">
            <rect id="Rectangle-Copy-4" fill="#F3F6F8" x="618" y="134" width="84" height="26" rx="13"></rect>
            <rect id="Rectangle-Copy-5" fill="#F3F6F8" x="515" y="134" width="84" height="26" rx="13"></rect>
            <rect id="Rectangle-Copy-6" fill="#F3F6F8" x="556" y="80" width="145" height="26" rx="13"></rect>
            <rect id="Rectangle-Copy-9" fill="#F3F6F8" x="103" y="134" width="84" height="26" rx="13"></rect>
            <rect id="Rectangle-Copy-8" fill="#F3F6F8" x="0" y="134" width="84" height="26" rx="13"></rect>
            <rect id="Rectangle-Copy-7" fill="#F3F6F8" x="0" y="80" width="145" height="26" rx="13"></rect>
            <g id="startup-(1)" transform="translate(242.000000, 0.000000)" fill-rule="nonzero" fill="url(#linearGradient-1)">
                <circle id="Oval" cx="4" cy="216" r="4"></circle>
                <circle id="Oval" cx="115" cy="105" r="4"></circle>
                <path d="M172.58764,50.4198305 C169.091799,46.9243949 164.443815,45 159.5,45 C154.556185,45 149.907768,46.925261 146.41236,50.4198305 C139.19588,57.6350124 139.19588,69.3745143 146.41236,76.5892631 C150.02125,80.1968541 154.759759,82 159.5,82 C164.238942,82 168.979616,80.195988 172.58764,76.5892631 C179.80412,69.3740813 179.80412,57.6345794 172.58764,50.4198305 Z M166.438407,70.4406395 C162.612516,74.2651795 156.387051,74.2651795 152.562026,70.4406395 C148.736135,66.6160994 148.736135,60.3925612 152.562026,56.5675881 C154.415416,54.7146435 156.879094,53.6944197 159.5,53.6944197 C162.120906,53.6944197 164.584584,54.7146435 166.437974,56.5675881 C170.263865,60.3925612 170.263865,66.6160994 166.438407,70.4406395 Z" id="Shape"></path>
                <path d="M53.6296512,178.130795 C51.5157051,177.078079 48.9495006,177.938734 47.8967861,180.052258 L42.8044075,190.27919 C40.5899595,194.725552 36.136364,197.698879 31.1802591,198.03786 L25.2574625,198.443275 C24.2562765,198.510135 23.5979041,198.011457 23.2934175,197.70697 C22.9889309,197.402483 22.4889767,196.742832 22.5571135,195.742496 L22.9625278,189.820117 C23.3019346,184.864431 26.2752568,180.410403 30.721187,178.195951 L40.947678,173.103565 C43.0616241,172.050849 43.921852,169.484215 42.8691375,167.370692 C41.8168488,165.257168 39.2502185,164.396513 37.1362724,165.449229 L26.9097813,170.541616 C19.7588178,174.102623 14.9773136,181.265522 14.431367,189.235843 L14.0259527,195.158222 C13.8070631,198.355123 14.9807205,201.48772 17.2462711,203.753274 C19.3321107,205.839117 22.1534026,207 25.0832876,207 C25.3349681,207 25.5883521,206.991483 25.8413102,206.974023 L31.7641068,206.568608 C39.734416,206.023086 46.8973035,201.242001 50.4583062,194.090175 L55.5506848,183.863669 C56.6033993,181.74972 55.7431714,179.183511 53.6296512,178.130795 Z" id="Shape"></path>
                <path d="M218.996301,2.90367523 C216.953558,0.888610707 214.139421,-0.165162529 211.281055,0.0211039392 L207.227657,0.279879732 C170.882791,2.60321743 136.86902,20.1700124 113.908,48.4764369 L104.366817,60.238144 L79.3981777,59.5039328 C79.3556838,59.5026303 79.3127562,59.5021961 79.2706959,59.5021961 C59.468535,59.5021961 40.8514338,67.2237879 26.848824,81.2445729 L1.27529669,106.852522 C0.0590169915,108.070418 -0.327330678,109.891835 0.290131815,111.499197 C0.907594309,113.106994 2.41222552,114.200278 4.1301935,114.287984 L58.2639628,117.072863 L56.0568813,119.793916 C54.9446683,121.165515 54.7686221,123.073335 55.6119961,124.625122 C56.4601398,126.18646 57.349043,127.72305 58.2761039,129.234891 L45.4386078,144.495282 C44.3411375,145.800015 44.1048194,147.626208 44.8328528,149.168442 C47.637017,155.101616 51.3587029,160.432571 55.8960115,165.013249 C60.5434574,169.705949 65.9779079,173.543298 72.0475989,176.419791 C72.6407791,176.701145 73.2768869,176.838782 73.9090922,176.838782 C74.8894874,176.838782 75.8616439,176.507063 76.6525509,175.864899 C79.4181238,173.618413 82.6064677,170.953804 85.6903113,168.377335 C87.8882869,166.540721 90.1369952,164.661992 92.2387091,162.929583 C93.4931466,163.685504 94.7631941,164.418412 96.0523205,165.120494 C96.7044719,165.475659 97.419497,165.650637 98.1319203,165.650637 C99.0797946,165.650637 100.021598,165.341495 100.801232,164.735369 L103.768434,162.429833 L106.561758,216.863929 C106.650214,218.58418 107.741614,220.090811 109.346843,220.709094 C109.855035,220.904479 110.383174,221 110.907844,221 C112.041737,221 113.155251,220.555826 113.986918,219.72262 L139.560879,194.114671 C153.563488,180.093452 161.274398,161.452043 161.274398,141.623131 L161.274398,117.744985 L171.363232,109.905729 C201.598515,86.4118392 220.012686,50.9847385 221.884152,12.7076306 L221.987785,10.5861901 C222.129143,7.71881539 221.038177,4.91917393 218.996301,2.90367523 Z M14.354748,106.084878 L33.0052373,87.4096022 C45.347983,75.050453 61.7549674,68.2371816 79.2078223,68.2202483 L97.4563539,68.7569042 L65.0612536,108.693477 L14.354748,106.084878 Z M80.1123355,161.683465 C77.8397786,163.581733 75.5099851,165.52863 73.3479992,167.309233 C69.1662518,165.041472 65.3834268,162.211871 62.0775742,158.873837 C58.8757884,155.641311 56.1505413,151.960703 53.9529993,147.906259 L63.3519578,136.73331 C66.1938463,140.551122 69.3045738,144.16747 72.6650614,147.555436 C72.667663,147.558041 72.6702647,147.560212 72.6728664,147.562817 C72.6737336,147.563685 72.6746008,147.564988 72.675468,147.565856 C72.6767689,147.567159 72.6780697,147.568027 72.6793705,147.56933 C76.4053925,151.324184 80.4132617,154.769896 84.6648205,157.88606 C83.1636582,159.133916 81.6256389,160.419111 80.1123355,161.683465 Z M152.569218,141.623131 C152.569218,159.123061 145.763688,175.575296 133.405332,187.950076 L114.754843,206.625352 L112.152308,155.915717 L152.568784,124.51093 L152.568784,141.623131 L152.569218,141.623131 Z M213.189378,12.2816926 C211.442358,48.0140271 194.252272,81.0860944 166.026778,103.018211 L97.7503424,156.071156 C92.088246,152.758305 86.8107629,148.846709 81.9807666,144.414957 L104.999456,121.365675 C106.699212,119.66366 106.699212,116.903096 104.999456,115.200646 C103.299266,113.498197 100.542799,113.498197 98.8426093,115.200646 L75.8456003,138.228218 C71.6174565,133.541163 67.8727893,128.441196 64.6844454,122.986498 L120.666266,53.9728174 C142.10054,27.548596 173.853028,11.1493314 207.781812,8.98099866 L211.83521,8.72222287 C212.366384,8.68922461 212.721945,8.95321066 212.88585,9.11472843 C213.049322,9.27581202 213.319462,9.62620139 213.293445,10.1606863 L213.189378,12.2816926 Z" id="Shape"></path>
            </g>
        </g>
    </g>
</svg>