<?xml version="1.0" encoding="UTF-8"?>
<svg width="702px" height="221px" viewBox="0 0 702 221" version="1.1" xmlns="http://www.w3.org/2000/svg" xmlns:xlink="http://www.w3.org/1999/xlink">
    <!-- Generator: Sketch 47.1 (45422) - http://www.bohemiancoding.com/sketch -->
    <title>Group</title>
    <desc>Created with Sketch.</desc>
    <defs>
        <linearGradient x1="0%" y1="48.5701323%" x2="100%" y2="48.5701308%" id="linearGradient-1">
            <stop stop-color="#FF8008" offset="0%"></stop>
            <stop stop-color="#FFC837" offset="100%"></stop>
        </linearGradient>
    </defs>
    <g id="Page-1" stroke="none" stroke-width="1" fill="none" fill-rule="evenodd">
        <g id="Group">
            <rect id="Rectangle-Copy-4" fill="#F3F6F8" x="618" y="133" width="84" height="26" rx="13"></rect>
            <rect id="Rectangle-Copy-5" fill="#F3F6F8" x="515" y="133" width="84" height="26" rx="13"></rect>
            <rect id="Rectangle-Copy-6" fill="#F3F6F8" x="556" y="79" width="145" height="26" rx="13"></rect>
            <rect id="Rectangle-Copy-9" fill="#F3F6F8" x="103" y="133" width="84" height="26" rx="13"></rect>
            <rect id="Rectangle-Copy-8" fill="#F3F6F8" x="0" y="133" width="84" height="26" rx="13"></rect>
            <rect id="Rectangle-Copy-7" fill="#F3F6F8" x="0" y="79" width="145" height="26" rx="13"></rect>
            <g id="development" transform="translate(243.000000, 0.000000)" fill-rule="nonzero" fill="url(#linearGradient-1)">
                <path d="M216.683796,0 L148.1054,0 C146.35932,0 144.785475,1.04282852 144.11726,2.64151844 C143.449476,4.24063628 143.81898,6.0810981 145.053106,7.3049346 L161.205958,23.3175087 L106.839655,77.2116738 L56.629408,27.437473 C54.94333,25.7668934 52.2108994,25.7668934 50.5243897,27.437473 L1.26423477,76.2698332 C-0.421411589,77.9408408 -0.421411589,80.6503977 1.26423477,82.3218331 C2.10727378,83.1571229 3.21190093,83.5751958 4.31652808,83.5751958 C5.42115523,83.5751958 6.52578238,83.1571229 7.36882139,82.3218331 L53.5771147,36.5152589 L113.711739,96.1276503 C114.554778,96.9629401 115.659405,97.3810129 116.764032,97.3810129 C117.868659,97.3810129 118.973287,96.9629401 119.816326,96.1276503 C121.501972,94.4566428 121.501972,91.7470859 119.816326,90.0756504 L112.944673,83.2636737 L167.310545,29.3695086 L191.414209,53.2638465 L147.603375,96.6946375 C145.917728,98.365645 145.917728,101.075202 147.603375,102.746637 C148.446414,103.581927 149.551041,104 150.655668,104 C151.760295,104 152.864922,103.581927 153.707961,102.746637 L197.518795,59.3158464 L213.631071,75.2881965 C214.456843,76.1067977 215.561039,76.5415592 216.684227,76.5415592 C217.24021,76.5415592 217.801373,76.4350084 218.335341,76.215916 C219.948036,75.5535038 221,73.9933262 221,72.2624106 L221,4.27914861 C221.000432,1.91620275 219.067442,0 216.683796,0 Z M212.36716,61.9312621 L158.526622,8.55829723 L212.36716,8.55829723 L212.36716,61.9312621 Z" id="Shape"></path>
                <path d="M142.68105,108.3185 C141.8445,107.477 140.6835,107 139.5,107 C138.3165,107 137.1555,107.477 136.3185,108.3185 C135.477,109.1555 135,110.3165 135,111.5 C135,112.6835 135.477,113.8445 136.3185,114.68105 C137.1555,115.51805 138.3165,116 139.5,116 C140.6835,116 141.8445,115.5185 142.68105,114.68105 C143.51805,113.8445 144,112.6835 144,111.5 C144,110.3165 143.5185,109.1555 142.68105,108.3185 Z" id="Shape"></path>
                <path d="M82.7409254,114.779459 L59.4393928,91.3532552 L66.3775765,84.3778213 C68.0567726,82.690042 68.0567726,79.9532896 66.3780064,78.2655103 C64.6988103,76.5781632 61.9775325,76.5781632 60.2979065,78.2655103 L1.25907464,137.621314 C-0.419691546,139.309094 -0.419691546,142.045846 1.25907464,143.734057 C2.09867268,144.577731 3.19879116,145 4.29890964,145 C5.39902812,145 6.49914659,144.577731 7.33874464,143.734057 L53.3597228,97.4659984 L76.6612554,120.892202 C77.5008534,121.735875 78.6009719,122.158144 79.7010904,122.158144 C80.8012088,122.158144 81.9013273,121.735875 82.7409254,120.892202 C84.4196915,119.204423 84.4196915,116.46767 82.7409254,114.779459 Z" id="Shape"></path>
                <path d="M111.619315,159.00045 L111.413218,159 C108.976239,159 107,161.014999 107,163.499775 C107,165.984551 108.976239,167.99955 111.413218,167.99955 L111.554,168 C111.565033,168 111.576507,168 111.58754,168 C114.009073,168 115.981782,166.00705 115.999876,163.533523 C116.01797,161.048748 114.056736,159.018899 111.619315,159.00045 Z" id="Shape"></path>
                <path d="M216.683594,212.424477 L209.112617,212.424477 L209.112617,193.209732 C209.112617,191.240792 207.762877,189.52483 205.839486,189.049317 L185.777262,184.084089 L178.585266,166.845573 L189.235566,149.245598 C190.256828,147.557936 189.990074,145.396475 188.588537,144.004239 L171.860736,127.387448 C170.458768,125.995212 168.282867,125.730657 166.584361,126.744713 L148.866377,137.324335 L131.513129,130.180496 L126.51473,110.25141 C126.036041,108.340783 124.308615,107 122.326521,107 L98.6730469,107 C96.6909531,107 94.9635273,108.340783 94.4848379,110.25141 L89.4864395,130.180496 L72.1331914,137.324335 L54.415207,126.744713 C52.7162695,125.7298 50.5408008,125.995212 49.138832,127.387448 L32.4114629,144.004668 C31.0099258,145.396904 30.7431719,147.558364 31.7644336,149.246027 L42.4147344,166.845573 L35.2231699,184.084089 L15.1609453,189.049317 C13.2375547,189.52483 11.8878145,191.240792 11.8878145,193.209732 L11.8878145,212.424477 L4.31640625,212.424477 C1.93288672,212.424477 0,214.344537 0,216.712239 C0,219.07994 1.93288672,221 4.31640625,221 L216.683594,221 C219.067113,221 221,219.07994 221,216.712239 C221,214.344537 219.067113,212.424477 216.683594,212.424477 Z M200.478941,212.424477 L156.36527,212.424477 C158.762602,197.85938 154.023619,182.89595 143.36598,172.30861 C138.692607,167.66625 133.214225,164.135279 127.084496,161.813456 C124.85723,160.969625 122.363211,162.079297 121.513742,164.292211 C120.664273,166.504696 121.781791,168.982164 124.009057,169.825996 C128.994938,171.714326 133.454217,174.589699 137.261719,178.372362 C146.277396,187.328638 150.091805,200.132323 147.591311,212.424048 L73.4052363,212.424048 C70.9051738,200.131894 74.719582,187.328209 83.7356914,178.372362 C87.5807461,174.552824 92.0879375,171.659443 97.1316582,169.77197 C99.3628086,168.937572 100.489822,166.463962 99.6498496,164.248047 C98.8094453,162.032132 96.3197422,160.913026 94.0890234,161.746567 C87.8880742,164.066675 82.3505566,167.619943 77.630998,172.308181 C66.973791,182.895093 62.234377,197.858094 64.631709,212.424048 L20.5201953,212.424048 L20.5201953,196.560617 L39.420875,191.883098 C40.7490332,191.554227 41.841084,190.619924 42.3650957,189.364038 L51.222793,168.131044 C51.7468047,166.87473 51.6401895,165.446048 50.934457,164.280634 L40.9005391,147.699432 L52.8582793,135.821046 L69.5506855,145.788376 C70.7238848,146.489425 72.1634063,146.595762 73.4268184,146.074799 L94.8012305,137.275884 C96.0655059,136.755349 97.0064824,135.670546 97.3371191,134.351202 L102.045887,115.575952 L118.95325,115.575952 L123.662018,134.351202 C123.992654,135.670546 124.933631,136.755349 126.197906,137.275884 L147.572318,146.074799 C148.836594,146.595762 150.275684,146.489854 151.448451,145.788376 L168.140857,135.821046 L180.098598,147.699432 L170.06468,164.280634 C169.358947,165.446476 169.252332,166.875158 169.776344,168.131044 L178.634041,189.364038 C179.158053,190.619924 180.250104,191.554227 181.578262,191.883098 L200.478941,196.560617 L200.478941,212.424477 Z" id="Shape"></path>
            </g>
        </g>
    </g>
</svg>