<?xml version="1.0" encoding="UTF-8"?>
<svg width="702px" height="231px" viewBox="0 0 702 231" version="1.1" xmlns="http://www.w3.org/2000/svg" xmlns:xlink="http://www.w3.org/1999/xlink">
    <!-- Generator: Sketch 47.1 (45422) - http://www.bohemiancoding.com/sketch -->
    <title>Group</title>
    <desc>Created with Sketch.</desc>
    <defs>
        <linearGradient x1="0%" y1="48.5701323%" x2="100%" y2="48.5701308%" id="linearGradient-1">
            <stop stop-color="#FF8008" offset="0%"></stop>
            <stop stop-color="#FFC837" offset="100%"></stop>
        </linearGradient>
    </defs>
    <g id="Page-1" stroke="none" stroke-width="1" fill="none" fill-rule="evenodd">
        <g id="Group">
            <rect id="Rectangle-Copy-4" fill="#F3F6F8" x="618" y="137" width="84" height="26" rx="13"></rect>
            <rect id="Rectangle-Copy-5" fill="#F3F6F8" x="515" y="137" width="84" height="26" rx="13"></rect>
            <rect id="Rectangle-Copy-6" fill="#F3F6F8" x="556" y="83" width="145" height="26" rx="13"></rect>
            <rect id="Rectangle-Copy-9" fill="#F3F6F8" x="103" y="137" width="84" height="26" rx="13"></rect>
            <rect id="Rectangle-Copy-8" fill="#F3F6F8" x="0" y="137" width="84" height="26" rx="13"></rect>
            <rect id="Rectangle-Copy-7" fill="#F3F6F8" x="0" y="83" width="145" height="26" rx="13"></rect>
            <g id="notification" transform="translate(243.000000, 0.000000)" fill-rule="nonzero" fill="url(#linearGradient-1)">
                <path d="M49.464506,65.7714286 C55.234537,55.9017857 64.7878066,48.7013393 76,45.7714286 L72.2331548,32 C41.135279,40.175 22.6762801,71.5075893 30.9945782,102 L45.0637816,98.3 C42.0373728,87.3160714 43.6220708,75.6017857 49.464506,65.7714286 Z" id="Shape"></path>
                <path d="M219.747545,159.259505 L215.190239,142.15979 C211.514383,128.545855 198.573413,119.593306 184.590157,120.990775 L179.062447,100.312384 C206.46289,95.6627227 224.920338,69.5973808 220.288006,42.0944363 C215.655673,14.5914918 189.687925,-3.93500394 162.287033,0.714657666 C151.697946,2.51166101 141.95931,7.66186808 134.495733,15.4126569 C120.269427,5.74175761 103.488172,0.558180837 86.306176,0.527967732 C78.7617321,0.557278954 71.2527798,1.5637812 63.9653133,3.52222174 C17.9560212,15.8897534 -9.35816331,63.3482284 2.95204375,109.533244 L17.8890812,165.760283 C5.02718139,171.509341 -1.74767801,185.804198 1.92413405,199.447445 L6.48862818,216.54716 L45.3623042,206.106954 C55.431147,227.708422 81.0399358,237.027136 102.560897,226.920627 C117.726159,219.798902 127.397405,204.492582 127.350682,187.686881 C127.350682,186.539685 127.221295,185.334768 127.106284,184.144281 L219.747545,159.259505 Z M170.479761,14.5252033 C190.32947,14.5252033 206.420659,30.6765882 206.420659,50.6005528 C206.420659,70.5245173 190.32947,86.6759022 170.479761,86.6759022 C150.630052,86.6759022 134.538862,70.5245173 134.538862,50.6005528 C134.562673,30.6865089 150.639935,14.5491032 170.479761,14.5252033 Z M16.839607,105.803052 C6.5452351,67.3841581 29.2279855,27.8631619 67.5036948,17.5302799 C87.4603281,12.1424265 108.762049,15.6516561 125.956625,27.1587907 C113.022843,51.7883336 122.430373,82.278768 146.968123,95.2609335 C152.361055,98.1140427 158.226161,99.957944 164.276811,100.701998 L170.580844,124.288062 L31.6620829,161.589973 L16.839607,105.803052 Z M84.2216038,216.54716 C74.0759374,216.495302 64.711087,211.072726 59.5877119,202.282967 L104.873244,190.125574 L113.010264,187.961053 C112.86021,203.8067 100.009093,216.567453 84.2216038,216.54716 Z M124.130378,170.002744 L40.87688,192.362246 L16.6599025,198.855809 L15.8116973,195.688393 C13.7985577,188.083259 18.2273749,180.261221 25.7673262,178.105268 L183.835399,135.637366 C185.009767,135.333883 186.216932,135.17921 187.429488,135.175602 C193.940632,135.172445 199.641307,139.561914 201.32424,145.875551 L202.165257,149.035751 L124.151942,169.959454 L124.130378,170.002744 Z" id="Shape"></path>
                <rect id="Rectangle-path" x="149" y="202" width="14" height="14"></rect>
                <rect id="Rectangle-path" x="178" y="202" width="14" height="14"></rect>
                <rect id="Rectangle-path" x="207" y="202" width="14" height="14"></rect>
                <rect id="Rectangle-path" x="164" y="29" width="14" height="43"></rect>
            </g>
        </g>
    </g>
</svg>