<?xml version="1.0" encoding="UTF-8"?>
<svg width="810px" height="430px" viewBox="0 0 810 430" version="1.1" xmlns="http://www.w3.org/2000/svg" xmlns:xlink="http://www.w3.org/1999/xlink">
    <!-- Generator: Sketch 47.1 (45422) - http://www.bohemiancoding.com/sketch -->
    <title>Group</title>
    <desc>Created with Sketch.</desc>
    <defs>
        <linearGradient x1="0%" y1="48.5701323%" x2="100%" y2="48.5701308%" id="linearGradient-1">
            <stop stop-color="#FF8008" offset="0%"></stop>
            <stop stop-color="#FFC837" offset="100%"></stop>
        </linearGradient>
        <rect id="path-2" x="0" y="0" width="810" height="430"></rect>
    </defs>
    <g id="Page-1" stroke="none" stroke-width="1" fill="none" fill-rule="evenodd">
        <g id="Group">
            <mask id="mask-3" fill="white">
                <use xlink:href="#path-2"></use>
            </mask>
            <use id="Rectangle" fill="url(#linearGradient-1)" xlink:href="#path-2"></use>
            <g id="loading" mask="url(#mask-3)" fill="#FFFFFF">
                <g transform="translate(-1.000000, 335.000000)">
                    <path d="M0,0.286311761 C0,0.286311761 39.34972,28.8023768 99.876272,28.1600163 C140.207843,27.733213 177.060302,-3.28547142 230.81987,0.286311768 C267.122392,2.69839709 307.031624,36.612015 347.570811,36.1248557 C388.975064,35.6269185 432.337975,1.61414422 495.389077,0.286311761 C558.440179,-1.0415207 612.774299,43.0291535 663.181733,44.0875395 C749.781395,45.9068424 809.566152,8.30072931 811,12.2324931 L811,95 L0,95 L0,0.286311761 Z" id="Fill-1" style="mix-blend-mode: overlay;" opacity="0.200000003"></path>
                    <path d="M0,68.918654 C0,68.918654 28.7372464,15.3652114 130.728606,17.0352457 C211.960529,18.3660881 228.41004,52.8794109 275.659981,52.9550269 C314.577168,53.0155197 358.987528,15.561813 399.507251,17.0352456 C439.654995,18.4957155 476.046187,56.6515712 515.363467,56.9453936 C553.666456,57.2305741 585.956608,14.4124491 647.201789,13.044879 C708.446971,11.6773088 726.530751,41.9366883 753.231034,52.9550261 C794.756397,70.0874612 811,72.9090207 811,72.9090207 L811,96 L0,96 L0,68.918654 Z" id="Fill-3" style="mix-blend-mode: overlay;" opacity="0.400000006"></path>
                    <path d="M811,48.0192327 C771.049059,48.0192327 765.155792,77.6918641 639.210736,75.922425 C605.053579,75.4433817 532.740493,33.4407804 495.389077,32.0748597 C452.263341,30.4953116 407.682131,64.1448654 363.550755,63.9636057 C318.461317,63.7780304 277.835624,33.9651386 235.70904,32.0748597 C189.51448,30.0011633 141.756312,71.7297173 103.87288,67.9491595 C23.9709973,59.978052 0,36.0604135 0,36.0604135 L0,95 L811,95 L811,48.0192327 Z" id="Fill-5" style="mix-blend-mode: overlay;" opacity="0.600000024"></path>
                    <path d="M811,71.9065634 C806.075608,75.6683217 772.963019,81.018186 707.12712,67.9157721 C676.369675,61.7923814 649.076821,32.6468569 611.245293,31.9921683 C573.573803,31.3396405 525.069515,64.8497554 483.403579,63.9228201 C423.478248,62.5939968 400.720507,32.1455772 359.556309,31.9921683 C319.914629,31.8430808 288.837109,54.4676481 251.688984,55.9412375 C196.125752,58.1451396 147.742573,28.161268 103.87288,28.001377 C29.831824,27.7291303 0,67.9157721 0,67.9157721 L0,95 L811,95 L811,71.9065634 Z" id="Fill-7"></path>
                </g>
            </g>
        </g>
    </g>
</svg>