<?xml version="1.0" encoding="UTF-8"?>
<svg width="124px" height="124px" viewBox="0 0 124 124" version="1.1" xmlns="http://www.w3.org/2000/svg" xmlns:xlink="http://www.w3.org/1999/xlink">
    <!-- Generator: Sketch 47.1 (45422) - http://www.bohemiancoding.com/sketch -->
    <title>credit-card-5</title>
    <desc>Created with Sketch.</desc>
    <defs></defs>
    <g id="Page-1" stroke="none" stroke-width="1" fill="none" fill-rule="evenodd">
        <g id="Payment-Method-Icons-Dark" transform="translate(-1089.000000, -1088.000000)" fill-rule="nonzero" fill="#333333">
            <path d="M1203,1088 L1099,1088 C1093.486,1088 1089,1092.486 1089,1098 L1089,1160 L1089,1162 L1089,1172 L1093,1172 L1093,1200 L1089,1200 L1089,1212 L1153,1212 L1153,1200 L1149,1200 L1149,1172 L1153,1172 L1153,1168 L1203,1168 C1208.514,1168 1213,1163.514 1213,1158 L1213,1098 C1213,1092.486 1208.514,1088 1203,1088 Z M1149,1208 L1093,1208 L1093,1204 L1149,1204 L1149,1208 Z M1097,1192 L1097,1188 L1101,1188 L1101,1184 L1097,1184 L1097,1180 L1101,1180 L1101,1176 L1097,1176 L1097,1172 L1145,1172 L1145,1176 L1141,1176 L1141,1180 L1145,1180 L1145,1184 L1141,1184 L1141,1188 L1145,1188 L1145,1192 L1141,1192 L1141,1196 L1145,1196 L1145,1200 L1097,1200 L1097,1196 L1101,1196 L1101,1192 L1097,1192 Z M1149,1168 L1093,1168 L1093,1164 L1149,1164 L1149,1168 Z M1121,1140 C1114.382,1140 1109,1145.382 1109,1152 L1109,1160 L1101,1160 L1101,1152 C1101,1140.972 1109.972,1132 1121,1132 C1132.028,1132 1141,1140.972 1141,1152 L1141,1160 L1133,1160 L1133,1152 C1133,1145.382 1127.618,1140 1121,1140 Z M1129,1152 L1129,1160 L1113,1160 L1113,1152 C1113,1147.588 1116.588,1144 1121,1144 C1125.412,1144 1129,1147.588 1129,1152 Z M1209,1158 C1209,1161.308 1206.308,1164 1203,1164 L1153,1164 L1153,1160 L1145,1160 L1145,1152 C1145,1138.766 1134.234,1128 1121,1128 C1107.766,1128 1097,1138.766 1097,1152 L1097,1160 L1093,1160 L1093,1120 L1209,1120 L1209,1158 Z M1209,1116 L1093,1116 L1093,1104 L1209,1104 L1209,1116 Z M1209,1100 L1093,1100 L1093,1098 C1093,1094.692 1095.692,1092 1099,1092 L1203,1092 C1206.308,1092 1209,1094.692 1209,1098 L1209,1100 Z M1173,1160 C1164.178,1160 1157,1152.822 1157,1144 C1157,1135.178 1164.178,1128 1173,1128 C1175.83,1128 1178.568,1128.74 1181,1130.15 C1183.432,1128.74 1186.17,1128 1189,1128 C1197.822,1128 1205,1135.178 1205,1144 C1205,1152.822 1197.822,1160 1189,1160 C1186.17,1160 1183.432,1159.26 1181,1157.85 C1178.568,1159.26 1175.83,1160 1173,1160 Z M1173,1132 C1166.382,1132 1161,1137.382 1161,1144 C1161,1150.618 1166.382,1156 1173,1156 C1175.46,1156 1177.832,1155.254 1179.856,1153.84 L1181,1153.042 L1182.144,1153.84 C1184.168,1155.254 1186.538,1156 1189,1156 C1195.618,1156 1201,1150.618 1201,1144 C1201,1137.382 1195.618,1132 1189,1132 C1186.538,1132 1184.168,1132.746 1182.144,1134.16 L1181,1134.958 L1179.856,1134.16 C1177.832,1132.746 1175.46,1132 1173,1132 Z M1115,1196 L1115,1189.26 C1113.718,1187.802 1113,1185.932 1113,1184 C1113,1179.588 1116.588,1176 1121,1176 C1125.412,1176 1129,1179.588 1129,1184 C1129,1185.932 1128.282,1187.802 1127,1189.26 L1127,1196 L1115,1196 Z M1121,1180 C1118.794,1180 1117,1181.794 1117,1184 C1117,1185.128 1117.476,1186.18 1118.34,1186.958 L1119,1187.554 L1119,1192 L1123,1192 L1123,1187.554 L1123.66,1186.958 C1124.524,1186.18 1125,1185.128 1125,1184 C1125,1181.794 1123.204,1180 1121,1180 Z" id="credit-card-5"></path>
        </g>
    </g>
</svg>