<?xml version="1.0" encoding="UTF-8"?>
<svg width="124px" height="124px" viewBox="0 0 124 124" version="1.1" xmlns="http://www.w3.org/2000/svg" xmlns:xlink="http://www.w3.org/1999/xlink">
    <!-- Generator: Sketch 47.1 (45422) - http://www.bohemiancoding.com/sketch -->
    <title>credit-card-4</title>
    <desc>Created with Sketch.</desc>
    <defs></defs>
    <g id="Page-1" stroke="none" stroke-width="1" fill="none" fill-rule="evenodd">
        <g id="Payment-Method-Icons-Dark" transform="translate(-1388.000000, -1088.000000)" fill-rule="nonzero" fill="#333333">
            <path d="M1482,1160 L1482,1134 C1482,1130.692 1479.308,1128 1476,1128 L1466,1128 L1466,1126 C1466,1122.692 1463.308,1120 1460,1120 C1459.21,1120 1458.46,1120.162 1457.768,1120.44 C1457.076,1117.89 1454.766,1116 1452,1116 C1449.234,1116 1446.922,1117.89 1446.232,1120.44 C1445.54,1120.162 1444.79,1120 1444,1120 C1442.458,1120 1441.064,1120.602 1440,1121.56 C1438.936,1120.6 1437.542,1120 1436,1120 C1432.692,1120 1430,1122.692 1430,1126 L1430,1128 L1424,1128 C1420.692,1128 1418,1130.692 1418,1134 L1418,1160 C1418,1163.308 1420.692,1166 1424,1166 L1428,1166 L1428,1169.268 C1428,1171.364 1428.494,1173.462 1429.432,1175.338 L1434,1184.472 L1434,1212 L1438,1212 L1438,1183.528 L1433.01,1173.55 C1432.35,1172.226 1432,1170.746 1432,1169.268 L1432,1166 L1461.694,1166 L1463.22,1156.854 C1463.494,1155.2 1464.91,1154 1466.586,1154 C1468.468,1154 1470,1155.532 1470,1157.414 L1470,1169.942 C1470,1172.106 1469.256,1174.23 1467.902,1175.92 L1462,1183.298 L1462,1212 L1466,1212 L1466,1184.702 L1471.028,1178.418 C1472.944,1176.02 1474,1173.01 1474,1169.942 L1474,1166 L1476,1166 C1479.308,1166 1482,1163.308 1482,1160 Z M1458,1126 C1458,1124.896 1458.896,1124 1460,1124 C1461.104,1124 1462,1124.896 1462,1126 L1462,1128 L1458,1128 L1458,1126 Z M1450,1126 L1450,1122 C1450,1120.896 1450.896,1120 1452,1120 C1453.104,1120 1454,1120.896 1454,1122 L1454,1126 L1454,1128 L1450,1128 L1450,1126 Z M1442,1126 C1442,1124.896 1442.896,1124 1444,1124 C1445.104,1124 1446,1124.896 1446,1126 L1446,1128 L1442,1128 L1442,1126 Z M1434,1126 C1434,1124.896 1434.896,1124 1436,1124 C1437.104,1124 1438,1124.896 1438,1126 L1438,1128 L1434,1128 L1434,1126 Z M1478,1160 C1478,1161.104 1477.104,1162 1476,1162 L1474,1162 L1474,1157.414 C1474,1153.326 1470.674,1150 1466.586,1150 C1462.948,1150 1459.872,1152.606 1459.274,1156.196 L1458.306,1162 L1424,1162 C1422.896,1162 1422,1161.104 1422,1160 L1422,1140 L1478,1140 L1478,1160 Z M1478,1136 L1422,1136 L1422,1134 C1422,1132.896 1422.896,1132 1424,1132 L1476,1132 C1477.104,1132 1478,1132.896 1478,1134 L1478,1136 Z M1432,1160 C1427.588,1160 1424,1156.412 1424,1152 C1424,1147.588 1427.588,1144 1432,1144 C1433.018,1144 1434.038,1144.208 1435,1144.606 C1435.962,1144.208 1436.982,1144 1438,1144 C1442.412,1144 1446,1147.588 1446,1152 C1446,1156.412 1442.412,1160 1438,1160 C1436.982,1160 1435.962,1159.792 1435,1159.394 C1434.038,1159.792 1433.018,1160 1432,1160 Z M1432,1148 C1429.794,1148 1428,1149.794 1428,1152 C1428,1154.206 1429.794,1156 1432,1156 C1432.686,1156 1433.356,1155.812 1433.992,1155.44 L1435,1154.854 L1436.008,1155.44 C1436.644,1155.812 1437.314,1156 1438,1156 C1440.204,1156 1442,1154.206 1442,1152 C1442,1149.794 1440.204,1148 1438,1148 C1437.314,1148 1436.644,1148.188 1436.008,1148.56 L1435,1149.146 L1433.992,1148.56 C1433.356,1148.188 1432.686,1148 1432,1148 Z M1450,1108 C1444.486,1108 1440,1103.514 1440,1098 C1440,1092.486 1444.486,1088 1450,1088 C1455.514,1088 1460,1092.486 1460,1098 C1460,1103.514 1455.514,1108 1450,1108 Z M1450,1092 C1446.692,1092 1444,1094.692 1444,1098 C1444,1101.308 1446.692,1104 1450,1104 C1453.308,1104 1456,1101.308 1456,1098 C1456,1094.692 1453.308,1092 1450,1092 Z M1413.23,1123.23 C1410.558,1123.23 1408.046,1122.19 1406.16,1120.3 C1404.272,1118.414 1403.23,1115.902 1403.23,1113.23 C1403.23,1110.558 1404.272,1108.046 1406.16,1106.16 C1408.046,1104.272 1410.558,1103.23 1413.23,1103.23 C1415.902,1103.23 1418.412,1104.272 1420.3,1106.16 C1422.19,1108.048 1423.23,1110.558 1423.23,1113.23 C1423.23,1115.902 1422.188,1118.414 1420.3,1120.3 C1418.414,1122.188 1415.902,1123.23 1413.23,1123.23 Z M1408.988,1108.988 C1407.856,1110.122 1407.23,1111.628 1407.23,1113.23 C1407.23,1114.834 1407.856,1116.34 1408.988,1117.472 C1411.254,1119.738 1415.206,1119.738 1417.472,1117.472 C1418.604,1116.34 1419.23,1114.834 1419.23,1113.23 C1419.23,1111.626 1418.604,1110.12 1417.472,1108.988 C1416.34,1107.856 1414.834,1107.23 1413.23,1107.23 C1411.626,1107.23 1410.12,1107.856 1408.988,1108.988 Z M1408,1150 C1408,1155.514 1403.514,1160 1398,1160 C1392.486,1160 1388,1155.514 1388,1150 C1388,1144.486 1392.486,1140 1398,1140 C1403.514,1140 1408,1144.486 1408,1150 Z M1398,1156 C1401.308,1156 1404,1153.308 1404,1150 C1404,1146.692 1401.308,1144 1398,1144 C1394.692,1144 1392,1146.692 1392,1150 C1392,1153.308 1394.692,1156 1398,1156 Z M1413.23,1176.77 C1415.902,1176.77 1418.414,1177.81 1420.3,1179.7 C1422.19,1181.586 1423.23,1184.098 1423.23,1186.77 C1423.23,1189.442 1422.188,1191.954 1420.3,1193.84 C1418.414,1195.728 1415.902,1196.77 1413.23,1196.77 C1410.558,1196.77 1408.046,1195.728 1406.16,1193.84 C1404.272,1191.954 1403.23,1189.442 1403.23,1186.77 C1403.23,1184.098 1404.272,1181.588 1406.16,1179.7 C1408.048,1177.812 1410.558,1176.77 1413.23,1176.77 Z M1417.472,1191.012 C1418.606,1189.878 1419.23,1188.374 1419.23,1186.77 C1419.23,1185.166 1418.604,1183.66 1417.472,1182.528 C1416.34,1181.396 1414.834,1180.77 1413.23,1180.77 C1411.626,1180.77 1410.12,1181.396 1408.988,1182.528 C1407.856,1183.66 1407.23,1185.166 1407.23,1186.77 C1407.23,1188.374 1407.856,1189.88 1408.988,1191.012 C1411.254,1193.278 1415.206,1193.278 1417.472,1191.012 Z M1486.77,1176.77 C1489.442,1176.77 1491.954,1177.81 1493.84,1179.7 C1495.728,1181.586 1496.77,1184.098 1496.77,1186.77 C1496.77,1189.442 1495.728,1191.954 1493.84,1193.84 C1491.954,1195.728 1489.442,1196.77 1486.77,1196.77 C1484.098,1196.77 1481.588,1195.728 1479.7,1193.84 C1477.812,1191.952 1476.77,1189.442 1476.77,1186.77 C1476.77,1184.098 1477.812,1181.586 1479.7,1179.7 C1481.586,1177.812 1484.098,1176.77 1486.77,1176.77 Z M1491.012,1191.012 C1492.144,1189.878 1492.77,1188.374 1492.77,1186.77 C1492.77,1185.166 1492.144,1183.66 1491.012,1182.528 C1489.88,1181.396 1488.374,1180.77 1486.77,1180.77 C1485.166,1180.77 1483.66,1181.396 1482.528,1182.528 C1481.396,1183.66 1480.77,1185.166 1480.77,1186.77 C1480.77,1188.374 1481.396,1189.88 1482.528,1191.012 C1484.794,1193.278 1488.746,1193.278 1491.012,1191.012 Z M1502,1140 C1507.514,1140 1512,1144.486 1512,1150 C1512,1155.514 1507.514,1160 1502,1160 C1496.486,1160 1492,1155.514 1492,1150 C1492,1144.486 1496.486,1140 1502,1140 Z M1502,1156 C1505.308,1156 1508,1153.308 1508,1150 C1508,1146.692 1505.308,1144 1502,1144 C1498.692,1144 1496,1146.692 1496,1150 C1496,1153.308 1498.692,1156 1502,1156 Z M1486.77,1123.23 C1484.098,1123.23 1481.586,1122.19 1479.7,1120.3 C1477.812,1118.414 1476.77,1115.902 1476.77,1113.23 C1476.77,1110.558 1477.812,1108.046 1479.7,1106.16 C1481.586,1104.272 1484.098,1103.23 1486.77,1103.23 C1489.442,1103.23 1491.954,1104.272 1493.84,1106.16 C1495.728,1108.046 1496.77,1110.558 1496.77,1113.23 C1496.77,1115.902 1495.728,1118.412 1493.84,1120.3 C1491.952,1122.188 1489.442,1123.23 1486.77,1123.23 Z M1482.528,1108.988 C1481.394,1110.122 1480.77,1111.628 1480.77,1113.23 C1480.77,1114.834 1481.396,1116.34 1482.528,1117.472 C1484.794,1119.738 1488.746,1119.738 1491.012,1117.472 C1492.144,1116.34 1492.77,1114.834 1492.77,1113.23 C1492.77,1111.626 1492.144,1110.12 1491.012,1108.988 C1489.88,1107.856 1488.374,1107.23 1486.77,1107.23 C1485.166,1107.23 1483.66,1107.856 1482.528,1108.988 Z M1433.10649,1102.2094 L1434.89569,1105.787 L1430.89593,1107.78733 L1429.10673,1104.20973 L1433.10649,1102.2094 Z M1404.26563,1128.15528 L1408.05837,1129.42113 L1406.64245,1133.66351 L1402.84971,1132.39766 L1404.26563,1128.15528 Z M1405.78888,1165.10226 L1407.78876,1169.10202 L1404.21116,1170.89082 L1402.21128,1166.89106 L1405.78888,1165.10226 Z M1495.73993,1171.83242 L1491.94719,1170.56657 L1493.3631,1166.3242 L1497.15584,1167.59004 L1495.73993,1171.83242 Z M1494.20869,1134.89732 L1492.20893,1130.89779 L1495.7863,1129.1091 L1497.78607,1133.10863 L1494.20869,1134.89732 Z M1467.60054,1102.83975 L1471.84312,1104.25379 L1470.57895,1108.04669 L1466.33637,1106.63265 L1467.60054,1102.83975 Z" id="credit-card-4"></path>
        </g>
    </g>
</svg>