<?xml version="1.0" encoding="UTF-8"?>
<svg width="124px" height="124px" viewBox="0 0 124 124" version="1.1" xmlns="http://www.w3.org/2000/svg" xmlns:xlink="http://www.w3.org/1999/xlink">
    <!-- Generator: Sketch 47.1 (45422) - http://www.bohemiancoding.com/sketch -->
    <title>bank</title>
    <desc>Created with Sketch.</desc>
    <defs></defs>
    <g id="Page-1" stroke="none" stroke-width="1" fill="none" fill-rule="evenodd">
        <g id="Payment-Method-Icons-Dark" transform="translate(-1089.000000, -1688.000000)" fill-rule="nonzero" fill="#333333">
            <path d="M1141,1718 C1141,1714.692 1143.692,1712 1147,1712 L1157,1712 L1157,1708 L1147,1708 C1141.486,1708 1137,1712.486 1137,1718 L1134.528,1718 L1089,1740.764 L1089,1752 L1093,1752 L1093,1760 L1097,1760 L1097,1792 L1093,1792 L1093,1800 L1089,1800 L1089,1812 L1189,1812 L1189,1800 L1185,1800 L1185,1792 L1181,1792 L1181,1760 L1185,1760 L1185,1752 L1189,1752 L1189,1740.764 L1143.472,1718 L1141,1718 Z M1097,1796 L1109,1796 L1109,1800 L1097,1800 L1097,1796 Z M1121,1760 L1121,1792 L1117,1792 L1117,1800 L1113,1800 L1113,1792 L1109,1792 L1109,1760 L1113,1760 L1113,1752 L1117,1752 L1117,1760 L1121,1760 Z M1145,1760 L1145,1792 L1141,1792 L1141,1800 L1137,1800 L1137,1792 L1133,1792 L1133,1760 L1137,1760 L1137,1752 L1141,1752 L1141,1760 L1145,1760 Z M1169,1760 L1169,1792 L1165,1792 L1165,1800 L1161,1800 L1161,1792 L1157,1792 L1157,1760 L1161,1760 L1161,1752 L1165,1752 L1165,1760 L1169,1760 Z M1181,1796 L1181,1800 L1169,1800 L1169,1796 L1181,1796 Z M1173,1792 L1173,1760 L1177,1760 L1177,1792 L1173,1792 Z M1157,1756 L1145,1756 L1145,1752 L1157,1752 L1157,1756 Z M1153,1760 L1153,1792 L1149,1792 L1149,1760 L1153,1760 Z M1157,1796 L1157,1800 L1145,1800 L1145,1796 L1157,1796 Z M1133,1756 L1121,1756 L1121,1752 L1133,1752 L1133,1756 Z M1129,1760 L1129,1792 L1125,1792 L1125,1760 L1129,1760 Z M1133,1796 L1133,1800 L1121,1800 L1121,1796 L1133,1796 Z M1109,1756 L1097,1756 L1097,1752 L1109,1752 L1109,1756 Z M1105,1760 L1105,1792 L1101,1792 L1101,1760 L1105,1760 Z M1185,1804 L1185,1808 L1093,1808 L1093,1804 L1185,1804 Z M1181,1756 L1169,1756 L1169,1752 L1181,1752 L1181,1756 Z M1185,1748 L1165,1748 L1161,1748 L1141,1748 L1137,1748 L1117,1748 L1113,1748 L1093,1748 L1093,1743.236 L1135.472,1722 L1137,1722 L1137,1736 L1141,1736 L1141,1722 L1142.528,1722 L1185,1743.236 L1185,1748 Z M1105,1740 L1105,1744 L1173,1744 L1173,1740 L1105,1740 Z M1191,1688 C1203.13,1688 1213,1697.87 1213,1710 C1213,1722.13 1203.13,1732 1191,1732 C1178.87,1732 1169,1722.13 1169,1710 C1169,1697.87 1178.87,1688 1191,1688 Z M1191,1728 C1200.926,1728 1209,1719.926 1209,1710 C1209,1700.074 1200.926,1692 1191,1692 C1181.074,1692 1173,1700.074 1173,1710 C1173,1719.926 1181.074,1728 1191,1728 Z M1189,1704 C1187.896,1704 1187,1704.896 1187,1706 C1187,1707.104 1187.896,1708 1189,1708 L1193,1708 C1196.308,1708 1199,1710.692 1199,1714 C1199,1717.308 1196.308,1720 1193,1720 L1193,1724 L1189,1724 L1189,1720 C1185.692,1720 1183,1717.308 1183,1714 L1187,1714 C1187,1715.104 1187.896,1716 1189,1716 L1193,1716 C1194.104,1716 1195,1715.104 1195,1714 C1195,1712.896 1194.104,1712 1193,1712 L1189,1712 C1185.692,1712 1183,1709.308 1183,1706 C1183,1702.692 1185.692,1700 1189,1700 L1189,1696 L1193,1696 L1193,1700 C1196.308,1700 1199,1702.692 1199,1706 L1195,1706 C1195,1704.896 1194.104,1704 1193,1704 L1189,1704 Z M1161,1708 L1165,1708 L1165,1712 L1161,1712 L1161,1708 Z M1201,1766 L1201,1734 L1205,1734 L1205,1766 C1205,1771.514 1200.514,1776 1195,1776 L1193,1776 L1193,1772 L1195,1772 C1198.308,1772 1201,1769.308 1201,1766 Z M1185,1772 L1189,1772 L1189,1776 L1185,1776 L1185,1772 Z" id="bank"></path>
        </g>
    </g>
</svg>