<?xml version="1.0" encoding="UTF-8"?>
<svg width="461px" height="366px" viewBox="0 0 461 366" version="1.1" xmlns="http://www.w3.org/2000/svg" xmlns:xlink="http://www.w3.org/1999/xlink">
    <!-- Generator: Sketch 47.1 (45422) - http://www.bohemiancoding.com/sketch -->
    <title>logo</title>
    <desc>Created with Sketch.</desc>
    <defs></defs>
    <g id="Page-1" stroke="none" stroke-width="1" fill="none" fill-rule="evenodd">
        <g id="logo" fill-rule="nonzero" fill="#FFFFFF">
            <path d="M379.904,0.616 L80.384,0.616 C36.352,0.616 0,36.456 0,81 C0,125.544 36.352,161.384 80.384,161.384 L379.904,161.384 C423.936,161.384 460.288,125.544 460.288,81 C460.288,36.456 424.448,0.616 379.904,0.616 Z M114.176,95.336 C106.496,103.528 94.208,104.04 86.016,96.36 C77.824,89.192 77.824,76.392 84.992,68.2 C85.504,67.688 85.504,67.688 86.016,67.176 C93.696,60.008 105.984,60.008 114.176,67.176 C121.856,74.856 121.856,87.656 114.176,95.336 Z M180.736,95.848 C173.056,103.528 160.256,103.528 152.576,95.848 C144.896,87.656 144.896,75.368 152.576,67.688 C160.256,60.52 172.544,60.52 180.736,67.688 C188.416,75.368 188.416,88.168 180.736,95.848 Z M247.296,95.848 C239.616,103.528 226.816,103.528 219.136,95.848 C211.456,87.656 211.456,75.368 219.136,67.688 C226.816,60.52 239.104,60.52 247.296,67.688 C254.976,75.368 254.976,88.168 247.296,95.848 Z" id="Shape"></path>
            <path d="M380.416,205.416 L80.384,205.416 C36.352,205.416 0.512,241.256 0.512,285.8 C0.512,329.832 36.352,365.672 80.384,365.672 L379.904,365.672 C423.936,365.672 460.288,329.832 460.288,285.288 C460.288,240.744 424.448,205.416 380.416,205.416 Z M114.176,299.112 C106.496,307.304 94.208,307.816 86.016,300.136 C77.824,292.456 77.312,280.168 84.992,271.976 C85.504,271.464 85.504,271.464 86.016,270.952 C93.696,263.784 105.984,263.784 114.176,270.952 C121.856,279.144 121.856,291.432 114.176,299.112 Z M180.736,299.112 C173.056,307.304 160.768,307.816 152.576,300.136 C144.384,292.456 143.872,280.168 151.552,271.976 C152.064,271.464 152.064,271.464 152.576,270.952 C160.256,263.784 172.544,263.784 180.736,270.952 C188.416,279.144 188.416,291.432 180.736,299.112 Z M247.296,299.112 C239.616,306.792 226.816,306.792 219.136,299.112 C211.456,291.432 211.456,278.632 219.136,270.952 C226.816,263.784 239.104,263.784 247.296,270.952 C254.976,279.144 254.976,291.432 247.296,299.112 Z" id="Shape"></path>
        </g>
    </g>
</svg>