<?xml version="1.0" encoding="UTF-8"?>
<svg width="60px" height="60px" viewBox="0 0 60 60" version="1.1" xmlns="http://www.w3.org/2000/svg" xmlns:xlink="http://www.w3.org/1999/xlink">
    <!-- Generator: Sketch 47.1 (45422) - http://www.bohemiancoding.com/sketch -->
    <title>dnd</title>
    <desc>Created with Sketch.</desc>
    <defs>
        <linearGradient x1="13.9030612%" y1="50%" x2="100%" y2="50%" id="linearGradient-1">
            <stop stop-color="#23C2C4" offset="0%"></stop>
            <stop stop-color="#64E7B1" offset="100%"></stop>
            <stop stop-color="#77D9B1" offset="100%"></stop>
            <stop stop-color="#4BD47F" offset="100%"></stop>
        </linearGradient>
    </defs>
    <g id="Page-1" stroke="none" stroke-width="1" fill="none" fill-rule="evenodd">
        <g id="dnd" fill-rule="nonzero" fill="url(#linearGradient-1)">
            <path d="M52.6,8.2 C52.6,8.2 52.5,8.2 52.6,8.2 C52.5,8.1 52.5,8.1 52.4,8.1 C52.4,8.1 52.4,8.1 52.3,8.1 C52.3,8.1 52.3,8.1 52.2,8.1 C52.1,8.1 52,8.1 51.9,8.1 L51.9,8.1 L16.9,8.1 C16.7,8.1 16.5,8.2 16.3,8.3 L7.5,14.2 C7.4,14.3 7.2,14.3 7.1,14.5 C6.8,14.7 6.8,15.1 6.9,15.5 L6.9,51 C6.9,51.6 7.3,52 7.9,52 L43.9,52 C44.2,52 44.5,51.9 44.6,51.7 L52.5,45.8 C52.8,45.6 52.9,45.3 52.9,45 L52.9,9 C53,8.7 52.9,8.4 52.6,8.2 Z M17.3,10 L49,10 L49,10 L43.7,14 L11.3,14 L17.3,10 Z M9,16 L43,16 L43,50 L9,50 L9,16 Z M51,44.5 L45,49 L45,15.5 L51,11 L51,44.5 Z" id="Shape"></path>
            <rect id="Rectangle-path" x="11" y="18" width="2" height="2"></rect>
            <rect id="Rectangle-path" x="11" y="46" width="2" height="2"></rect>
            <rect id="Rectangle-path" x="39" y="46" width="2" height="2"></rect>
            <rect id="Rectangle-path" x="39" y="18" width="2" height="2"></rect>
            <path d="M36,37.4 C36.1,37.3 36.1,37.1 36.2,37 L39,37 C39.6,37 40,36.6 40,36 L40,30 C40,29.4 39.6,29 39,29 L36.2,29 C36.1,28.9 36.1,28.7 36,28.6 L38,26.8 C38.2,26.6 38.3,26.4 38.3,26.1 C38.3,25.8 38.2,25.6 38,25.4 L33.8,21.2 C33.4,20.8 32.8,20.8 32.4,21.2 L30.5,23.1 C30.3,23 30.2,23 30.1,22.9 L30.1,20 C30.1,19.4 29.7,19 29.1,19 L23.1,19 C22.5,19 22.1,19.4 22.1,20 L22.1,22.7 C22,22.8 21.8,22.8 21.7,22.9 L19.8,21 C19.6,20.8 19.4,20.7 19.1,20.7 C18.8,20.7 18.6,20.8 18.4,21 L14.2,25.2 C14,25.4 13.9,25.6 13.9,25.9 C13.9,26.2 14,26.4 14.2,26.6 L16.1,28.5 C16,28.7 16,28.8 15.9,28.9 L13,28.9 C12.4,28.9 12,29.3 12,29.9 L12,35.9 C12,36.5 12.4,36.9 13,36.9 L15.8,36.9 C15.9,37 15.9,37.2 16,37.3 L14.1,39.2 C13.9,39.4 13.8,39.6 13.8,39.9 C13.8,40.2 13.9,40.4 14.1,40.6 L18.3,44.8 C18.7,45.2 19.3,45.2 19.7,44.8 L21.6,42.9 C21.8,43 21.9,43 22,43.1 L22,46 C22,46.6 22.4,47 23,47 L29,47 C29.6,47 30,46.6 30,46 L30,43.2 C30.1,43.1 30.3,43.1 30.4,43 L32.3,44.9 C32.7,45.3 33.3,45.3 33.7,44.9 L37.9,40.7 C38.1,40.5 38.2,40.3 38.2,40 C38.2,39.7 38.1,39.5 37.9,39.3 L36,37.4 Z M33,42.8 L31.3,41.1 C31.1,40.9 30.9,40.8 30.6,40.8 C30.4,40.8 30.2,40.9 30,41 C29.8,41.1 29,41.4 28.8,41.5 C28.3,41.6 28,42 28,42.5 L28,45 L24,45 L24,42.5 C24,42.2 23.9,42 23.7,41.8 C23.5,41.5 21.8,40.8 21.4,40.8 C21.1,40.8 20.9,40.9 20.7,41.1 L19,42.8 L16.2,40 L17.9,38.3 C18.1,38.1 18.2,37.9 18.2,37.6 C18.2,37.4 18.1,37.2 18,37 C17.9,36.8 17.6,36 17.5,35.8 C17.4,35.3 17,35 16.5,35 L14,35 L14,31 L16.5,31 C16.8,31 17,30.9 17.2,30.7 C17.5,30.5 18.2,28.8 18.2,28.4 C18.2,28.1 18.1,27.9 17.9,27.7 L16.2,26 L19,23.2 L20.7,24.9 C20.9,25.1 21.1,25.2 21.4,25.2 C21.6,25.2 21.8,25.1 22,25 C22.2,24.9 23,24.6 23.2,24.5 C23.7,24.4 24,24 24,23.5 L24,21 L28,21 L28,23.5 C28,23.8 28.1,24 28.3,24.2 C28.5,24.5 30.2,25.2 30.6,25.2 C30.9,25.2 31.1,25.1 31.3,24.9 L33,23.2 L35.8,26 L34.1,27.7 C33.9,27.9 33.8,28.1 33.8,28.4 C33.8,28.6 33.9,28.8 34,29 C34.1,29.2 34.4,30 34.5,30.2 C34.6,30.7 35,31 35.5,31 L38,31 L38,35 L35.5,35 C35,35 34.6,35.4 34.5,35.8 C34.5,36 34.1,36.8 34,37 C33.9,37.2 33.8,37.4 33.8,37.6 C33.8,37.9 33.9,38.1 34.1,38.3 L35.8,40 L33,42.8 Z" id="Shape"></path>
            <path d="M26,29 C23.8,29 22,30.8 22,33 C22,35.2 23.8,37 26,37 C28.2,37 30,35.2 30,33 C30,30.8 28.2,29 26,29 Z M26,35 C24.9,35 24,34.1 24,33 C24,31.9 24.9,31 26,31 C27.1,31 28,31.9 28,33 C28,34.1 27.1,35 26,35 Z" id="Shape"></path>
            <path d="M59.7,3.3 L56.7,0.3 L55.3,1.7 L56.6,3 L8,3 L8,5 L56.6,5 L55.3,6.3 L56.7,7.7 L59.7,4.7 C60.1,4.3 60.1,3.7 59.7,3.3 Z" id="Shape"></path>
            <rect id="Rectangle-path" x="0" y="3" width="2" height="2"></rect>
            <rect id="Rectangle-path" x="4" y="3" width="2" height="2"></rect>
            <path d="M4.7,53.7 L3.3,52.3 L0.3,55.3 C-0.1,55.7 -0.1,56.3 0.3,56.7 L3.3,59.7 L4.7,58.3 L3.4,57 L52,57 L52,55 L3.4,55 L4.7,53.7 Z" id="Shape"></path>
            <rect id="Rectangle-path" x="58" y="55" width="2" height="2"></rect>
            <rect id="Rectangle-path" x="54" y="55" width="2" height="2"></rect>
        </g>
    </g>
</svg>