<?xml version="1.0" encoding="UTF-8"?>
<svg width="410px" height="381px" viewBox="0 0 410 381" version="1.1" xmlns="http://www.w3.org/2000/svg" xmlns:xlink="http://www.w3.org/1999/xlink">
    <!-- Generator: Sketch 47.1 (45422) - http://www.bohemiancoding.com/sketch -->
    <title>Group 2</title>
    <desc>Created with Sketch.</desc>
    <defs>
        <linearGradient x1="13.9030612%" y1="50%" x2="100%" y2="50%" id="linearGradient-1">
            <stop stop-color="#23C2C4" offset="0%"></stop>
            <stop stop-color="#64E7B1" offset="100%"></stop>
            <stop stop-color="#77D9B1" offset="100%"></stop>
            <stop stop-color="#4BD47F" offset="100%"></stop>
        </linearGradient>
    </defs>
    <g id="Page-1" stroke="none" stroke-width="1" fill="none" fill-rule="evenodd">
        <g id="Group-2" transform="translate(2.000000, 1.000000)">
            <path d="M406.778981,86.80995 C406.741093,86.6709833 406.665315,86.54465 406.621111,86.4056833 C406.4885,86.01405 406.343259,85.63505 406.13487,85.2813167 C406.033833,85.10445 405.894907,84.95285 405.774926,84.7823 C405.572852,84.49805 405.364463,84.2201167 405.118185,83.9737667 C404.954,83.8095333 404.77087,83.6768833 404.594056,83.5316 C404.423556,83.3926333 404.278315,83.2347167 404.095185,83.1147 C403.994148,83.0515333 403.874167,83.01995 403.77313,82.9631 C403.678407,82.9125667 403.608944,82.83045 403.514222,82.7862333 L239.329037,0.669566667 C239.272204,0.6443 239.209056,0.656933333 239.152222,0.62535 C238.337611,0.24635 237.453537,0 236.5,0 C235.546463,0 234.662389,0.24635 233.854093,0.62535 C233.797259,0.650616667 233.734111,0.637983333 233.677278,0.669566667 L69.4920926,82.7862333 C69.3973704,82.8367667 69.3279074,82.9125667 69.2331852,82.9631 C69.1258333,83.01995 69.0121667,83.0515333 68.9111296,83.1147 C68.7216852,83.2347167 68.5827593,83.39895 68.4122593,83.5316 C68.2291296,83.6768833 68.0523148,83.8095333 67.8881296,83.96745 C67.6418519,84.2138 67.433463,84.4917333 67.2313889,84.7759833 C67.1114074,84.9465333 66.9724815,85.0981333 66.8714444,85.275 C66.6630556,85.6287333 66.5178148,86.01405 66.3852037,86.4056833 C66.341,86.54465 66.2652222,86.6646667 66.2273333,86.80995 C66.0820926,87.3342333 66,87.8774667 66,88.4333333 L66,290.566667 C66,290.604567 66.0189444,290.642467 66.0189444,290.680367 C66.0189444,290.8067 66.0631481,290.926717 66.069463,291.046733 C66.1199815,291.691033 66.271537,292.310067 66.5051852,292.8912 C66.5493889,292.992267 66.5304444,293.105967 66.580963,293.207033 C66.6314815,293.320733 66.7198889,293.40285 66.783037,293.510233 C66.9409074,293.8008 67.1177222,294.0661 67.3197963,294.3314 C67.4839815,294.552483 67.6481667,294.76725 67.8376111,294.95675 C68.0523148,295.171517 68.285963,295.361017 68.5322407,295.5442 C68.7595741,295.721067 68.9869074,295.891617 69.2331852,296.030583 C69.3279074,296.081117 69.3973704,296.163233 69.4920926,296.20745 L233.677278,378.324117 C233.772,378.368333 233.873037,378.349383 233.967759,378.3936 C234.776056,378.759967 235.628556,379 236.5,379 C237.371444,379 238.223944,378.759967 239.032241,378.399917 C239.126963,378.3557 239.234315,378.37465 239.322722,378.330433 L403.507907,296.213767 C405.64863,295.14625 407,292.960683 407,290.566667 L407,88.4333333 C407,87.8774667 406.924222,87.3342333 406.778981,86.80995 Z M89.5163704,282.626617 C88.0576481,279.461967 84.3066481,278.078617 81.1366111,279.537767 L78.6296296,280.693717 L78.6296296,98.3062833 L230.185185,168.276 L230.185185,362.462967 L86.7946852,290.743533 C89.6616111,289.15805 90.9119444,285.6523 89.5163704,282.626617 Z M236.5,18.95 C238.72913,18.95 240.592,17.7308833 241.716037,15.9874833 L386.110593,88.2059333 L242.814815,154.360383 L242.814815,151.6 C242.814815,148.1132 239.985778,145.283333 236.5,145.283333 C233.014222,145.283333 230.185185,148.1132 230.185185,151.6 L230.185185,154.360383 L86.8894074,88.2059333 L231.283963,15.9874833 C232.408,17.7308833 234.27087,18.95 236.5,18.95 Z M242.814815,224.639617 L253.145852,229.4087 C254.004667,229.80665 254.90137,229.989833 255.785444,229.989833 C258.172444,229.989833 260.458407,228.625433 261.525611,226.313533 C262.984333,223.148883 261.601389,219.390467 258.437667,217.931317 L246.969963,212.63795 C245.612278,212.0126 244.166185,211.999967 242.814815,212.341067 L242.814815,168.276 L394.37037,98.3062833 L394.37037,280.693717 L384.576093,276.170983 C381.41237,274.711833 377.655056,276.088867 376.196333,279.259833 C374.731296,282.424483 376.114241,286.176583 379.284278,287.64205 L386.110593,290.794067 L242.814815,362.462967 L242.814815,224.639617 Z" id="Shape-Copy" stroke="url(#linearGradient-1)" fill-rule="nonzero"></path>
            <g id="Group" transform="translate(100.000000, 32.000000)" fill-rule="nonzero" fill="url(#linearGradient-1)">
                <path d="M75.2968937,217 C76.1834847,217 77.0763635,216.816068 77.9252272,216.416491 L89.3440154,211.101484 C92.4942428,209.636368 93.8775762,205.862587 92.4187883,202.684999 C90.9662882,199.507411 87.2250002,198.118406 84.0747728,199.583521 L72.6559846,204.898528 C69.5057572,206.363643 68.1224238,210.137425 69.5812117,213.315013 C70.6438633,215.636365 72.9200755,217 75.2968937,217 Z" id="Shape"></path>
                <path d="M41.295603,233 C42.1761053,233 43.0754755,232.816096 43.9245313,232.41658 L55.3459038,227.102381 C58.4968442,225.637489 59.8742013,221.864281 58.4213725,218.687177 C56.9685438,215.510072 53.2326983,214.114937 50.0754687,215.58617 L38.6540962,220.900369 C35.5031558,222.365261 34.1257987,226.138469 35.5786275,229.315574 C36.6415195,231.636572 38.9182469,233 41.295603,233 Z" id="Shape"></path>
                <path d="M6.29689374,249 C7.18348468,249 8.0763635,248.809792 8.92522717,248.410356 L20.3440154,243.097221 C23.4942428,241.632622 24.8775762,237.860169 23.4187883,234.683701 C21.9662882,231.507232 18.2124245,230.118716 15.0747728,231.583315 L3.65598456,236.89645 C0.505757174,238.36105 -0.877576208,242.133502 0.581211722,245.309971 C1.64386327,247.636845 3.92007548,249 6.29689374,249 Z" id="Shape"></path>
                <path d="M227.34505,217.898528 L215.924157,212.583521 C212.773349,211.118406 209.031371,212.507411 207.578603,215.684999 C206.125835,218.862587 207.503135,222.636368 210.653943,224.101484 L222.074836,229.416491 C222.930145,229.816068 223.823189,230 224.703654,230 C227.08091,230 229.357542,228.636365 230.42039,226.315013 C231.873158,223.137425 230.502147,219.369986 227.34505,217.898528 Z" id="Shape"></path>
                <path d="M261.346236,233.901052 L249.926767,228.587154 C246.78264,227.116003 243.034841,228.504719 241.582254,231.687985 C240.12338,234.86491 241.500507,238.631563 244.65721,240.102714 L256.076679,245.416613 C256.931882,245.816106 257.824814,246 258.705169,246 C261.082129,246 263.358477,244.636649 264.414904,242.315782 C265.880067,239.138857 264.496651,235.372203 261.346236,233.901052 Z" id="Shape"></path>
                <path d="M192.345378,201.902894 L180.926391,196.589804 C177.776108,195.112537 174.034755,196.507381 172.58223,199.690163 C171.123416,202.866604 172.500486,206.632685 175.657056,208.103612 L187.076043,213.416701 C187.93121,213.816134 188.824104,214 189.704423,214 C192.081282,214 194.357534,212.636856 195.413916,210.316342 C196.879018,207.133561 195.501948,203.36748 192.345378,201.902894 Z" id="Shape"></path>
                <path d="M110.295603,201 C111.176105,201 112.075476,200.816096 112.924531,200.41658 L124.345904,195.102381 C127.496844,193.637489 128.874201,189.864281 127.421373,186.687177 C125.962254,183.510072 122.232698,182.114937 119.075469,183.58617 L107.654096,188.900369 C104.503156,190.365261 103.125799,194.138469 104.578627,197.315574 C105.64152,199.636572 107.918247,201 110.295603,201 Z" id="Shape"></path>
                <path d="M136.5,25 C140.088,25 143,22.2 143,18.75 L143,6.25 C143,2.8 140.088,0 136.5,0 C132.912,0 130,2.8 130,6.25 L130,18.75 C130,22.2 132.912,25 136.5,25 Z" id="Shape"></path>
                <path d="M136.5,62 C140.088,62 143,59.2 143,55.75 L143,43.25 C143,39.8 140.088,37 136.5,37 C132.912,37 130,39.8 130,43.25 L130,55.75 C130,59.2 132.912,62 136.5,62 Z" id="Shape"></path>
                <path d="M136.5,100 C140.088,100 143,97.2 143,93.75 L143,81.25 C143,77.8 140.088,75 136.5,75 C132.912,75 130,77.8 130,81.25 L130,93.75 C130,97.2 132.912,100 136.5,100 Z" id="Shape"></path>
            </g>
            <circle id="Oval" stroke="#FFFFFF" stroke-width="4" fill="url(#linearGradient-1)" cx="67.5" cy="193.5" r="67.5"></circle>
            <g id="Group-3" transform="translate(0.000000, 126.000000)"></g>
            <g id="team" transform="translate(25.000000, 146.000000)" fill-rule="nonzero" fill="#FFFFFF">
                <path d="M33.1221328,15.7535187 C33.1221328,18.6536711 34.1259125,21.3344107 35.7350905,23.3341966 L35.7313877,26.2456225 C35.6588476,26.360545 35.3232446,26.5799578 34.898944,26.704976 L29.8859363,28.0064774 C29.8776893,28.0086648 29.8694423,28.0108522 29.8611953,28.0132078 C26.6697683,28.9071803 25,32.0349903 25,34.6627276 L25,36.1153277 C25,37.7059021 26.3923993,39 28.1042442,39 L56.8959241,38.996803 C58.6074324,38.996803 60,37.7027051 60,36.1121307 L60,34.6595306 C60,32.0316251 58.3302317,28.9038151 55.1388047,28.0100109 C55.1305577,28.0076552 55.1223107,28.0054678 55.1140637,28.0032804 L50.101056,26.701779 C49.6767554,26.5767608 49.3413207,26.357348 49.2686123,26.2424256 L49.2652462,23.5169284 C49.2692855,23.5120489 49.2736615,23.5076741 49.2777008,23.5027945 C50.9967829,21.4486601 51.9435067,18.7872706 51.9435067,16.0086029 L51.9435067,13.9785299 C53.6585495,8.3932631 52.4497725,3.55087013 51.829395,2.14134492 C51.8273753,2.13680186 51.8248507,2.13259533 51.822831,2.12805227 C51.8108813,2.10146698 51.7974167,2.07589126 51.7837839,2.0504838 C51.7758735,2.0356768 51.768468,2.02070154 51.760221,2.00639933 C51.747598,1.98469362 51.7336286,1.96382921 51.7198275,1.94279654 C51.7085509,1.92563389 51.697611,1.90830297 51.6856613,1.89181336 C51.6742164,1.87616505 51.66193,1.86135806 51.649812,1.84621454 C51.6338229,1.82619144 51.6180021,1.80600008 51.6010031,1.78681829 C51.5917463,1.77638608 51.5816479,1.76679519 51.5720544,1.75669951 C51.5513527,1.73482553 51.5304827,1.71328808 51.5084346,1.69292846 C51.5001875,1.6853567 51.4914356,1.67862625 51.4830203,1.67122275 C51.4587842,1.65002182 51.434548,1.62915741 51.4089654,1.60997562 C51.3997086,1.60307691 51.3899468,1.59685124 51.38069,1.59012078 C51.3552757,1.57194856 51.3298614,1.55411286 51.3034373,1.53779151 C51.290646,1.52988323 51.2773498,1.52315277 51.2643902,1.51574927 C51.2404907,1.50212011 51.2167595,1.48832268 51.1921867,1.47637612 C51.1748512,1.46779479 51.1568424,1.46055956 51.1391702,1.45265127 C51.1179636,1.4433969 51.0969253,1.43363774 51.0752137,1.42539294 C51.0546804,1.41748465 51.0334737,1.41125899 51.0124354,1.40436027 C50.992407,1.39779808 50.9727151,1.39089936 50.95235,1.38534674 C50.9311434,1.37962585 50.9094319,1.37525106 50.8878887,1.37037148 C50.8666821,1.36566016 50.8456437,1.36061232 50.8241005,1.35691057 C50.804577,1.35354535 50.7848851,1.35169447 50.7651933,1.34917055 C50.7406205,1.34597359 50.7160478,1.34277662 50.6913067,1.34092575 C50.6748127,1.33974792 50.6581504,1.33974792 50.641488,1.33924313 C50.6128759,1.33823357 50.5842638,1.33756052 50.5554834,1.33840183 C50.5413457,1.33890661 50.5270396,1.3402527 50.5129019,1.34109401 C50.4819335,1.34294488 50.4509651,1.3454688 50.4199967,1.34967534 C50.4154525,1.35018012 50.4110765,1.35018012 50.4065322,1.35085317 C49.1102359,1.53594063 47.5288285,1.15752089 45.8545159,0.756722391 C42.8928273,0.0478373848 39.5522808,-0.749889606 36.6255999,1.35943449 C33.7953586,1.60274038 31.7888091,3.98044132 31.7888091,7.19423282 C31.7888091,9.53087798 32.8732075,13.7039274 33.1219645,14.6305425 L33.1219645,15.7535187 L33.1221328,15.7535187 Z M49.2507718,13.7645014 C49.2507718,13.7685397 49.2507718,13.7727462 49.2507718,13.7767845 L49.2507718,16.0087711 C49.2507718,18.3797416 48.3589159,20.5518272 46.9676948,22.0549057 C46.9643286,22.0582709 46.9612991,22.0618044 46.957933,22.0651696 C45.7619474,23.3525371 44.1990536,24.1468989 42.514811,24.1468989 C38.9457043,24.1468989 35.8148677,20.2248954 35.8148677,15.7538552 L35.8148677,15.2945018 C35.8148677,13.958002 36.3805457,12.0036466 36.8034998,10.7669258 C42.8978765,10.9067509 47.4965137,12.3699515 49.2506035,13.0189355 L49.2506035,13.7645014 L49.2507718,13.7645014 Z M46.5758774,26.2609343 C46.5758774,27.4729207 47.3625417,28.3344187 48.3173442,28.8595624 C46.8182386,30.1608955 44.7268627,30.9278307 42.5090885,30.9278307 C40.2891264,30.9278307 38.1955625,30.1590447 36.695952,28.8551876 C37.6448638,28.3293709 38.4241226,27.4709016 38.4241226,26.2658139 L38.4247959,25.6900236 C39.6690855,26.4228017 41.0592968,26.8390802 42.5146427,26.8390802 C43.9432278,26.8390802 45.3221626,26.4694101 46.5750358,25.7699477 L46.5758774,26.2609343 Z M57.3072651,34.6595306 L57.3072651,36.1121307 C57.3072651,36.1488117 57.1702636,36.3046217 56.8959241,36.3046217 L28.1042442,36.3078186 C27.830073,36.3078186 27.6930715,36.1520086 27.6930715,36.1153277 L27.6930715,34.6627276 C27.6930715,33.0528031 28.683555,31.1455609 30.5764977,30.6088072 L33.8266636,29.7649766 C35.8278273,32.1618593 39.0697462,33.6200121 42.5092569,33.6200121 C45.9482626,33.6200121 49.1895083,32.1625324 51.1908403,29.7663227 L54.4240072,30.6057785 C56.3169499,31.1423639 57.3072651,33.0496061 57.3072651,34.6595306 Z M37.1083028,4.02974189 C37.1145301,4.02974189 37.1204209,4.02890058 37.1264799,4.02890058 C37.1645172,4.0283958 37.2025544,4.02688144 37.2405917,4.02317969 C37.2554026,4.02166534 37.2697087,4.01897316 37.2843513,4.01712229 C37.3134684,4.01325228 37.3424171,4.00955053 37.3711975,4.00382964 C37.3893746,4.00029615 37.4068784,3.99524831 37.4247189,3.99104178 C37.44946,3.98515263 37.4743693,3.97943175 37.4987738,3.97202825 C37.5182973,3.9661391 37.5371476,3.9587356 37.5563346,3.95200515 C37.5783827,3.94426513 37.6005992,3.93686163 37.622479,3.92777552 C37.6430124,3.91919419 37.6628726,3.90926677 37.682901,3.89984414 C37.7024246,3.89058976 37.7219481,3.88200843 37.7411351,3.87174449 C37.7640247,3.85946141 37.7860729,3.84566399 37.808121,3.83220308 C37.8234369,3.82278044 37.8390894,3.81436738 37.854237,3.80410344 C37.8826808,3.7850899 37.9099464,3.76439376 37.9367072,3.74336109 C37.9442809,3.73747195 37.9523597,3.73242411 37.9599334,3.72619844 C39.9392173,2.10954353 42.5079104,2.72420219 45.2274061,3.37537355 C46.6911673,3.72586191 48.1943122,4.08459508 49.6540341,4.09014771 C50.0046164,5.38559173 50.3494763,7.68067634 49.9792021,10.4144183 C47.7886937,9.61685953 42.6513075,8.06279783 35.8660329,8.06279783 C35.8621618,8.06279783 35.8584591,8.06330262 35.854588,8.06330262 C35.8263125,8.06347088 35.7982054,8.06549002 35.7699299,8.06750915 C35.7525943,8.06868698 35.7350905,8.06936003 35.7177549,8.0712109 C35.6955384,8.07373482 35.6736586,8.07777309 35.6516105,8.08130658 C35.6288891,8.08500833 35.6058311,8.08803703 35.5834463,8.09291661 C35.5701501,8.09577706 35.5571905,8.09981533 35.5438943,8.10318055 C35.5137675,8.11058405 35.4838089,8.11798755 35.4545236,8.12741019 C35.449811,8.12892454 35.445435,8.13094367 35.4408908,8.13245803 C35.4040317,8.1447411 35.3676775,8.15803375 35.3325014,8.17317727 C35.3319965,8.17334553 35.3314916,8.17368205 35.3309867,8.17385032 C35.2921079,8.19067645 35.2540706,8.2091852 35.2172115,8.22954482 C35.2113208,8.23274178 35.2057667,8.23678005 35.1998759,8.24014528 C35.1689075,8.25781272 35.1382758,8.27598495 35.1088221,8.29600804 C35.0903084,8.30862764 35.0729729,8.3227616 35.0549641,8.3362225 C35.038975,8.34833732 35.0224809,8.35961083 35.007165,8.37223043 C34.9825923,8.39259005 34.959366,8.41446402 34.936308,8.43667452 C34.9283976,8.44424628 34.9199823,8.45097673 34.9122402,8.45871676 C34.8901921,8.48075899 34.8696587,8.50431558 34.8491253,8.52804043 C34.8410466,8.5372948 34.8324629,8.54587613 34.8247209,8.55546702 C34.8085634,8.5751536 34.7937525,8.59618627 34.7786049,8.61705067 C34.7674967,8.63219419 34.7558835,8.64683293 34.7454485,8.66264949 C34.7348452,8.67863432 34.7252517,8.69562872 34.7153217,8.71228659 C34.7018571,8.73449708 34.6882243,8.75637106 34.6761063,8.7792546 C34.6692057,8.79221072 34.663315,8.80583989 34.6569193,8.81913254 C34.648504,8.83629519 34.6397521,8.85312133 34.63201,8.8706205 C34.5392731,8.23778962 34.4812074,7.65611019 34.4812074,7.19456934 C34.4818806,5.73439747 35.1697491,4.02974189 37.1083028,4.02974189 Z" id="Shape"></path>
                <path d="M30.1388047,72.0099818 C30.1305577,72.0076262 30.1223107,72.0054388 30.1140637,72.0032514 L25.1012243,70.7017465 C24.6769237,70.576728 24.3413207,70.3573146 24.2687806,70.2423918 L24.2654145,67.5168875 C24.2694538,67.5120079 24.2738298,67.5074649 24.2778691,67.5025853 C25.9969512,65.4484455 26.943675,62.7870489 26.943675,60.0083738 L26.943675,57.9782955 C28.6587178,52.3930139 27.4499409,47.5506082 26.8295633,46.1410792 C26.8277119,46.1368727 26.8253556,46.1331709 26.8235042,46.1289644 C26.8107129,46.1005281 26.7964069,46.0729332 26.7817642,46.0456748 C26.775032,46.0332234 26.7686363,46.0204355 26.7615675,46.0081524 C26.7470931,45.9830814 26.7312723,45.95902 26.7151149,45.9351268 C26.7060263,45.9214976 26.6972744,45.9075319 26.6878492,45.8944075 C26.6730383,45.8740478 26.6572175,45.8546977 26.6412283,45.8351793 C26.628942,45.8200357 26.6169922,45.8045557 26.6042009,45.7900852 C26.58939,45.7734272 26.5734008,45.7577789 26.5579167,45.741794 C26.5429374,45.7264822 26.5282947,45.7108339 26.5126422,45.6963633 C26.4964848,45.681388 26.4794858,45.6677588 26.4626552,45.6536248 C26.4464978,45.6399956 26.430677,45.6260299 26.4140146,45.613242 C26.3944911,45.5982667 26.3739577,45.5848058 26.3537609,45.5710083 C26.3387817,45.5609126 26.3244756,45.5501439 26.3091597,45.5407212 C26.284587,45.5254094 26.2588361,45.5116119 26.2332535,45.4978144 C26.2214721,45.4915888 26.2100272,45.4845218 26.1980775,45.4786326 C26.1687921,45.4639938 26.1386653,45.4512059 26.1083701,45.4387546 C26.0992816,45.4350528 26.0903613,45.430678 26.0811045,45.4271445 C26.0499678,45.4151979 26.0181579,45.4049339 25.9860113,45.395343 C25.9765862,45.3924826 25.9674976,45.3891173 25.9579042,45.3864251 C25.9284505,45.3781803 25.8983237,45.3717864 25.8680285,45.3655607 C25.8549006,45.3628685 25.841941,45.3595033 25.8288131,45.3573159 C25.8033988,45.352941 25.7778162,45.3500806 25.7520654,45.3472201 C25.7330467,45.3450327 25.7140281,45.3423406 25.6948412,45.3409945 C25.6748127,45.3396484 25.6544476,45.3394801 25.6342508,45.3389753 C25.6086683,45.3383023 25.5830857,45.337461 25.5575031,45.3383023 C25.5420189,45.3388071 25.5265347,45.3403214 25.5110505,45.341331 C25.4807554,45.3433501 25.4502919,45.3457058 25.4199967,45.3497441 C25.4156208,45.3502489 25.4114131,45.3502489 25.4070371,45.3509219 C24.1107408,45.5358416 22.5293334,45.1575891 20.8550208,44.7567896 C17.8933322,44.0479027 14.5527857,43.2500053 11.6261048,45.3595033 C8.79586351,45.6028098 6.78931398,47.980517 6.78931398,51.194317 C6.78931398,53.5309683 7.87371246,57.7040288 8.12246939,58.6306464 L8.12246939,59.7536255 C8.12246939,62.6536173 9.12624907,65.334364 10.7354271,67.3341552 L10.7318926,70.2455888 C10.6593525,70.3605116 10.3237495,70.579925 9.89944892,70.7049435 L4.88644123,72.0064483 C4.87819422,72.0086357 4.8699472,72.0108231 4.86170018,72.0131788 C1.66976831,72.9071536 0,76.0349719 0,78.6627161 L0,80.11532 C0,81.7058986 1.39239928,83 3.10424421,83 L31.8959241,82.996803 C33.6074324,82.996803 35,81.7027017 35,80.1121231 L35,78.6595191 C35,76.0317749 33.3302317,72.9039567 30.1388047,72.0099818 Z M10.8148677,59.2941026 C10.8148677,57.9575993 11.3805457,56.0032387 11.8034998,54.7666829 C17.8978765,54.9065084 22.4965137,56.3695446 24.2506035,57.0186985 L24.2506035,57.76393 C24.2506035,57.768473 24.2506035,57.7730161 24.2506035,57.7775592 L24.2506035,60.0087104 C24.2506035,62.3795188 23.3589159,64.5514419 21.9678631,66.0545244 C21.9641603,66.0582261 21.9606259,66.0622644 21.9569232,66.0659662 C20.7611058,67.3528323 19.198717,68.1466914 17.514811,68.1466914 C13.9457043,68.1466914 10.8148677,64.2246775 10.8148677,59.7536255 L10.8148677,59.2941026 L10.8148677,59.2941026 Z M13.4242909,70.265612 L13.4249642,69.6898201 C14.6692538,70.4226002 16.0594651,70.8388798 17.5149793,70.8388798 C18.9435644,70.8388798 20.3224992,70.4692087 21.5752041,69.7697445 L21.5758774,70.2609006 C21.5758774,71.4728902 22.3625417,72.3343905 23.3173442,72.8595356 C21.8182386,74.1608722 19.7268627,74.9278094 17.5090885,74.9278094 C15.2891264,74.9278094 13.1955625,74.1590213 11.695952,72.8551608 C12.6448638,72.3291744 13.4242909,71.4707028 13.4242909,70.265612 Z M12.1081345,48.0296494 C12.1143618,48.0296494 12.1202526,48.0288081 12.1264799,48.0288081 C12.1645172,48.0283034 12.2023861,48.026789 12.2404234,48.0230872 C12.2552343,48.0215729 12.2697087,48.0188807 12.2843513,48.0168615 C12.3133001,48.0131598 12.3422488,48.0092898 12.3710292,48.0037371 C12.3892063,48.0002036 12.4067101,47.9951558 12.4247189,47.990781 C12.44946,47.9848918 12.474201,47.9791709 12.4986055,47.9717674 C12.518129,47.9658782 12.5371476,47.9584747 12.5563346,47.9517442 C12.5783827,47.9440042 12.6005992,47.9366007 12.6223107,47.9275145 C12.6430124,47.9189332 12.6627043,47.9090057 12.6827327,47.8995831 C12.7022563,47.8903287 12.7219481,47.8817473 12.7409668,47.8714834 C12.7638564,47.8592003 12.7859046,47.8454028 12.8079527,47.8319419 C12.8232686,47.8225192 12.8389211,47.8139378 12.8540687,47.8040104 C12.8825125,47.7849968 12.9097781,47.7643006 12.9365388,47.7432679 C12.9441126,47.7373787 12.9521914,47.7323309 12.9597651,47.7261052 C14.939049,46.109446 17.5077421,46.7241063 20.2272378,47.3752794 C21.690999,47.7257687 23.1941439,48.0845028 24.6538658,48.0900554 C25.0044481,49.3855029 25.349308,51.6805936 24.9790338,54.4143427 C22.788357,53.6167819 17.6509709,52.0627161 10.8658646,52.0627161 C10.8618252,52.0627161 10.8579542,52.0632208 10.8539148,52.0633891 C10.8261442,52.0635574 10.7987103,52.0655765 10.7712763,52.0675956 C10.7532675,52.0689417 10.7350905,52.0694465 10.7170817,52.0714657 C10.6957067,52.0738213 10.6746684,52.0776914 10.6534618,52.0812248 C10.6297306,52.0849266 10.6059994,52.0882918 10.5827731,52.0931714 C10.570655,52.0958636 10.5587053,52.0993971 10.5467555,52.1024258 C10.5154505,52.1099976 10.4843138,52.1177377 10.4540187,52.1274968 C10.4509892,52.1285064 10.4479596,52.1298525 10.4449301,52.1308621 C10.3653212,52.1571109 10.28891,52.189922 10.2165383,52.2298 C10.2133405,52.2314826 10.2103109,52.23367 10.2071131,52.2355209 C10.1732835,52.2545345 10.1401271,52.2743894 10.1083172,52.2962634 C10.0916549,52.3075369 10.0761707,52.3203248 10.0600133,52.3324397 C10.0423411,52.3457324 10.0239957,52.358352 10.0068284,52.372486 C9.98309722,52.3921726 9.96071247,52.4135419 9.9381594,52.4349111 C9.92957577,52.4431559 9.92031892,52.4505595 9.9120719,52.4589725 C9.89036037,52.4806783 9.87016359,52.5040667 9.84979851,52.5274551 C9.8415515,52.537046 9.83263125,52.5459639 9.82455255,52.5557231 C9.80856343,52.5752414 9.79392077,52.5961059 9.7789415,52.6168021 C9.76766496,52.6321139 9.75588351,52.6470892 9.74528021,52.6629058 C9.7346769,52.6787224 9.72525174,52.6957169 9.71532166,52.7120383 C9.70185714,52.7342488 9.68805601,52.7562911 9.67593795,52.779343 C9.66903738,52.7922991 9.66314666,52.8059283 9.65675101,52.819221 C9.64833569,52.8363837 9.63958375,52.8532099 9.63184166,52.8707091 C9.5391048,52.2378766 9.48103908,51.6561956 9.48103908,51.1946535 C9.4817123,49.7343095 10.1695808,48.0296494 12.1081345,48.0296494 Z M32.3070968,80.1121231 C32.3070968,80.1488041 32.1700953,80.3046145 31.8957558,80.3046145 L3.1040759,80.3078115 C2.82990469,80.3078115 2.69290324,80.1520011 2.69290324,80.11532 L2.69290324,78.6627161 C2.69290324,77.0526191 3.68338671,75.1453718 5.57666599,74.608785 L8.82649528,73.7649522 C10.827659,76.1618413 14.0695779,77.6199978 17.5090885,77.6199978 C20.9480943,77.6199978 24.18934,76.1625143 26.190672,73.7662983 L29.4236706,74.6057563 C31.3166133,75.1425114 32.3070968,77.0497587 32.3070968,78.6596874 L32.3070968,80.1121231 Z" id="Shape"></path>
                <path d="M79.138973,72.0103658 C79.130726,72.0080101 79.122479,72.0058227 79.1142319,72.0036353 L74.1012243,70.7021361 C73.6769237,70.5771181 73.3414889,70.3577057 73.2687806,70.2427834 L73.2654144,67.5172908 C73.2694538,67.5124113 73.2738298,67.5078682 73.2778691,67.5029886 C74.9969512,65.4488577 75.943675,62.7874726 75.943675,60.0088096 L75.943675,57.9787399 C77.6587178,52.3934825 76.4499408,47.5510976 75.8295632,46.1415748 C75.8277119,46.1372 75.8251873,46.13333 75.8233359,46.1289552 C75.8108812,46.1011921 75.7969118,46.0744386 75.7826057,46.0478534 C75.7753686,46.0343925 75.7686363,46.0207633 75.7610625,46.007639 C75.7472614,45.9839142 75.7322821,45.9611989 75.7171345,45.9384837 C75.7072044,45.9235084 75.697611,45.9081967 75.6870077,45.893558 C75.6735431,45.8750493 75.6589005,45.8573818 75.6445944,45.8395462 C75.6309616,45.8225518 75.6174971,45.8052209 75.6030227,45.7890679 C75.5902315,45.7747657 75.5765986,45.7613048 75.5633024,45.7476756 C75.5461352,45.7300082 75.5291362,45.7120043 75.5111274,45.6953465 C75.4978312,45.6830634 75.4838618,45.6719582 75.470229,45.6603482 C75.451042,45.6440268 75.4321917,45.6275372 75.4123315,45.6123938 C75.3963424,45.600279 75.3795118,45.589342 75.3628494,45.577732 C75.3443357,45.5649441 75.3263269,45.5518198 75.3073083,45.5400415 C75.28627,45.5269171 75.2643902,45.5154754 75.2426786,45.5035289 C75.2271944,45.4951158 75.2120469,45.4860297 75.1963944,45.4781214 C75.1703069,45.4651653 75.1435461,45.4538918 75.1166171,45.4426184 C75.1041624,45.4374023 75.0922127,45.4316814 75.0795897,45.4268018 C75.0508093,45.4156966 75.021524,45.4066105 74.991902,45.3975244 C74.9801206,45.3939909 74.9686757,45.3896161 74.956726,45.3864192 C74.9287871,45.3786792 74.900175,45.3726218 74.8715629,45.3667326 C74.8570885,45.3637039 74.8426142,45.3600022 74.8281398,45.3574783 C74.8035671,45.3532717 74.7784894,45.3505796 74.7535801,45.3475509 C74.7338882,45.3451952 74.7143647,45.342503 74.6945045,45.3409887 C74.6746444,45.3396426 74.6544476,45.3394743 74.6344191,45.3389695 C74.6088365,45.3382965 74.583254,45.3374552 74.5575031,45.3382965 C74.5418506,45.3388013 74.5261981,45.3403156 74.5105456,45.3413252 C74.4804187,45.3433443 74.4502919,45.3457 74.420165,45.3497382 C74.415789,45.3504113 74.4114131,45.3504113 74.4068688,45.3509161 C73.1105725,45.535835 71.5291651,45.1575841 69.8548525,44.7567863 C66.8931638,44.0479025 63.5526174,43.2500086 60.6257682,45.3594974 C57.7955269,45.6028029 55.7888091,47.9804998 55.7888091,51.194286 C55.7888091,53.5309272 56.8732075,57.7039696 57.1219645,58.6305833 L57.1219645,59.7535575 C57.1219645,62.6537051 58.1257441,65.3344402 59.7349221,67.3342228 L59.7312194,70.2456438 C59.6586793,70.3605661 59.3232445,70.5799785 58.898944,70.7048282 L53.8859363,72.0064958 C53.8776893,72.0086832 53.8694423,72.0108705 53.8611953,72.0132262 C50.6697683,72.9071972 49,76.0350019 49,78.6627348 L49,80.1153325 C49,81.7059042 50.3923993,83 52.1042442,83 L80.8959241,82.996803 C82.6074324,82.996803 83.9999999,81.7027073 83.9999999,80.1121355 L83.9999999,78.6595378 C84.0003366,76.0319732 82.3303999,72.9041685 79.138973,72.0103658 Z M59.8152043,59.2943731 C59.8152043,57.9578756 60.3808823,56.0035234 60.8038364,54.7669729 C66.898213,54.9067979 71.4968502,56.3698277 73.2509401,57.0189789 L73.2509401,57.7647119 C73.2509401,57.7687501 73.2509401,57.7729567 73.2509401,57.7769949 L73.2509401,60.0089778 C73.2509401,62.3799443 72.3590842,64.5520263 70.9678631,66.0551023 C70.9644969,66.0584675 70.9614674,66.062001 70.9581013,66.0653662 C69.7621156,67.3527315 68.1992219,68.147092 66.5149792,68.147092 C62.9458726,68.147092 59.815036,64.225095 59.815036,59.7540623 L59.815036,59.2943731 L59.8152043,59.2943731 Z M62.4244592,70.2658352 L62.4251325,69.6900458 C63.6694221,70.4228227 65.0596334,70.8391006 66.5149792,70.8391006 C67.9435644,70.8391006 69.3224992,70.469431 70.5753724,69.7699698 L70.5760456,70.2611238 C70.5760456,71.4731082 71.36271,72.3346048 72.3175125,72.8597476 C70.8184069,74.1610786 68.7270309,74.9280124 66.5092568,74.9280124 C64.2892947,74.9280124 62.1957308,74.1592277 60.6961203,72.8553728 C61.6452004,72.3293887 62.4244592,71.4709208 62.4244592,70.2658352 Z M61.1083028,48.0299686 C61.1145301,48.0299686 61.1204208,48.0291273 61.1266482,48.0291273 C61.1646854,48.0286225 61.2027227,48.0271081 61.2405917,48.0234064 C61.2554026,48.0218921 61.269877,48.0191999 61.2846879,48.0171807 C61.3136367,48.013479 61.3425854,48.009609 61.3713658,48.0040564 C61.3895429,48.0005229 61.4070467,47.9954751 61.4250555,47.9911003 C61.4497966,47.9852111 61.4745376,47.9794903 61.4989421,47.9720868 C61.5184656,47.9661976 61.5374842,47.9587942 61.5566712,47.9520637 C61.5787193,47.9443237 61.6009358,47.9369202 61.6228156,47.9278341 C61.643349,47.9192528 61.6632092,47.9093254 61.6832376,47.8999028 C61.7027612,47.8906484 61.7222847,47.8820671 61.7414717,47.8718032 C61.7643613,47.8595201 61.7864095,47.8457227 61.8084576,47.8322618 C61.8237735,47.8228392 61.839426,47.8142579 61.8545736,47.8043305 C61.8830174,47.785317 61.910283,47.7646209 61.9370438,47.7435883 C61.9446175,47.7376991 61.9526963,47.7326513 61.96027,47.7264256 C63.9395539,46.1097734 66.508247,46.7244311 69.2277426,47.3756013 C70.6915039,47.7260891 72.1946488,48.0848217 73.6543706,48.0903743 C74.004953,49.3858162 74.3498129,51.6808969 73.9795387,54.4146343 C71.7890302,53.6170769 66.6514758,52.0630178 59.8663695,52.0630178 C59.8623301,52.0630178 59.8584591,52.0635226 59.8544197,52.0636908 C59.8268175,52.0640274 59.7993835,52.0658782 59.7719496,52.0678974 C59.7537725,52.0690752 59.7355954,52.0697482 59.7175866,52.0717674 C59.69638,52.074123 59.67551,52.077993 59.65464,52.0813582 C59.6307404,52.08506 59.6066726,52.0884252 59.583278,52.093473 C59.5714966,52.095997 59.5600517,52.0995304 59.5482703,52.1023909 C59.5166287,52.1101309 59.4851554,52.1178709 59.4543553,52.1277983 C59.4518307,52.1286396 59.4494744,52.1296492 59.4469498,52.1304905 C59.3668359,52.1567392 59.2897516,52.1898866 59.2170432,52.230101 C59.2145186,52.2314471 59.2121623,52.233298 59.2096377,52.2346441 C59.1751349,52.2539941 59.1413053,52.2743537 59.1088221,52.2965641 C59.0924964,52.3076694 59.0770122,52.3202889 59.0611914,52.3322355 C59.0431826,52.3456964 59.0246689,52.3584842 59.0075016,52.3727864 C58.9836021,52.3926412 58.9608808,52.4141786 58.9383277,52.435716 C58.9299124,52.4436243 58.9209921,52.4510278 58.9127451,52.4592726 C58.8908653,52.4811465 58.8703319,52.5048713 58.8499668,52.5284279 C58.8418881,52.5376822 58.8331362,52.5464318 58.8253941,52.5560227 C58.8090683,52.5758775 58.7942574,52.5970784 58.7791098,52.6179427 C58.7681699,52.632918 58.7565567,52.6475567 58.74629,52.6630367 C58.7355184,52.6791898 58.725925,52.6963524 58.7158266,52.7131785 C58.7025304,52.7350524 58.6890658,52.7569264 58.6769478,52.7796416 C58.6700472,52.792766 58.6639882,52.8065634 58.6575925,52.8200243 C58.6493455,52.8370186 58.6404253,52.8538447 58.6328515,52.8713439 C58.5401146,52.2383458 58.4820489,51.6566673 58.4820489,51.1951273 C58.4818806,49.7346213 59.1697491,48.0299686 61.1083028,48.0299686 Z M81.3074333,80.1123038 C81.3074333,80.1489847 81.1704319,80.3047944 80.8960924,80.3047944 L52.1044125,80.3079914 C51.8302413,80.3079914 51.6932398,80.1521817 51.6932398,80.1155007 L51.6932398,78.6629031 C51.6932398,77.0529813 52.6837233,75.1457423 54.576666,74.6089895 L57.8268319,73.7651603 C59.8279956,76.162039 63.0699145,77.6201893 66.5094251,77.6201893 C69.9484309,77.6201893 73.1896765,76.1627121 75.1910086,73.7665064 L78.4241755,74.6059608 C80.3172865,75.1427136 81.3076016,77.0497843 81.3076016,78.6598744 L81.3076016,80.1123038 L81.3074333,80.1123038 Z" id="Shape"></path>
                <path d="M54.6455463,18.5487072 C61.9248651,23.1074415 66.2707245,30.9852512 66.2707245,39.6222186 C66.2707245,40.3830984 66.8817411,41 67.6353623,41 C68.3889835,41 69,40.3830984 69,39.6222186 C69,34.8509615 67.771826,30.1492824 65.4483597,26.0257548 C63.1958546,22.028122 59.9577398,18.6329241 56.0842156,16.2071677 C55.4436888,15.8058888 54.6023896,16.0053227 54.20528,16.6518466 C53.8078293,17.2981983 54.0050194,18.1476006 54.6455463,18.5487072 Z" id="Shape"></path>
                <path d="M16.36435,41 C17.1179065,41 17.7288706,40.3831218 17.7288706,39.6222709 C17.7288706,30.985115 22.0748686,23.1070878 29.3544153,18.5488711 C29.9948872,18.1477797 30.1920604,17.2985819 29.7949849,16.6519103 C29.3977389,16.0052387 28.5566825,15.8059846 27.9162107,16.207076 C24.0426779,18.6325681 20.8045,22.0278092 18.5518471,26.0254624 C16.2280686,30.1491778 15,34.8508506 15,39.6222709 C14.9998295,40.3831218 15.6107936,41 16.36435,41 Z" id="Shape"></path>
                <path d="M54.870208,62.770521 C54.5465839,62.1048251 53.720413,61.8160135 53.0241782,62.1254308 C49.7179312,63.5957447 46.1773477,64.3412045 42.5010957,64.3412045 C38.8239751,64.3412045 35.2826967,63.5954123 31.9759286,62.1244337 C31.2802149,61.8145179 30.4533492,62.1034957 30.1298988,62.7693578 C29.8062746,63.4350537 30.1081848,64.2257131 30.8040723,64.5352966 C34.4806717,66.1707882 38.416101,67 42.5010957,67 C46.5852218,67 50.5199562,66.1711205 54.1958608,64.5362936 C54.8917482,64.2268763 55.1936585,63.4363831 54.870208,62.770521 Z" id="Shape"></path>
            </g>
        </g>
    </g>
</svg>