<?xml version="1.0" encoding="UTF-8"?>
<svg width="298px" height="376px" viewBox="0 0 298 376" version="1.1" xmlns="http://www.w3.org/2000/svg" xmlns:xlink="http://www.w3.org/1999/xlink">
    <!-- Generator: Sketch 47.1 (45422) - http://www.bohemiancoding.com/sketch -->
    <title>3d-data-analytics-dual-bars-graphic</title>
    <desc>Created with Sketch.</desc>
    <defs>
        <linearGradient x1="13.9030612%" y1="50%" x2="100%" y2="50%" id="linearGradient-1">
            <stop stop-color="#23C2C4" offset="0%"></stop>
            <stop stop-color="#64E7B1" offset="100%"></stop>
            <stop stop-color="#77D9B1" offset="100%"></stop>
            <stop stop-color="#4BD47F" offset="100%"></stop>
        </linearGradient>
    </defs>
    <g id="Page-1" stroke="none" stroke-width="1" fill="none" fill-rule="evenodd">
        <g id="3d-data-analytics-dual-bars-graphic" fill-rule="nonzero" fill="url(#linearGradient-1)">
            <path d="M128.657066,94.8774689 C129.658185,95.0941824 130.694827,94.6963352 131.292269,93.8618266 L195.518894,4.07128673 C196.345625,2.91655969 196.080813,1.30899851 194.924682,0.480958946 C193.768551,-0.347080615 192.166761,-0.0786146633 191.34003,1.07611238 L128.098377,89.4855082 L64.2108401,75.5479204 C63.1677387,75.3215033 62.0923432,75.7646339 61.5110483,76.6638331 L0.41372714,171.024763 C-0.358103282,172.218305 -0.0190146031,173.809693 1.1726399,174.58598 C1.60215223,174.86415 2.08979404,175 2.56774761,175 C3.40739577,175 4.23412626,174.589215 4.72499749,173.825866 L64.8567233,80.9560538 L128.657066,94.8774689 Z" id="Shape"></path>
            <path d="M297.97095,122.948425 C297.958038,122.655631 297.89671,122.372489 297.770825,122.115087 C297.761142,122.092565 297.757914,122.07326 297.74823,122.047519 C297.609434,121.783683 297.406082,121.564891 297.160768,121.375058 C297.131718,121.352535 297.122034,121.313925 297.092984,121.294619 C297.067161,121.275314 297.031655,121.275314 297.009061,121.259227 C296.957415,121.227052 296.918682,121.178789 296.863809,121.149831 L270.650716,107.00561 C270.121355,106.722468 269.504842,106.66777 268.933518,106.857604 L235.70961,117.961268 L235.70961,68.3020521 C235.70961,68.2634419 235.687015,68.2344842 235.683787,68.1990915 C235.670876,67.9062971 235.609548,67.6231552 235.483663,67.3657536 C235.473979,67.3432309 235.470751,67.3239258 235.45784,67.3014032 C235.319044,67.0375665 235.11892,66.818775 234.873606,66.6289413 C234.844555,66.6064187 234.834872,66.5678084 234.805821,66.5485033 C234.776771,66.5291982 234.744493,66.5291982 234.721898,66.5131106 C234.670253,66.4809354 234.631519,66.4326725 234.576646,66.4037149 L208.363554,52.2594935 C207.834192,51.9763517 207.214452,51.9216538 206.646356,52.1114875 L164.307096,66.2524914 C164.194122,66.2911016 164.097288,66.3586696 163.987542,66.4133674 C163.958491,66.429455 163.919758,66.42302 163.890707,66.4423251 C163.87134,66.4519777 163.868113,66.4745003 163.848746,66.4841529 C163.571154,66.657899 163.345206,66.892778 163.174132,67.1662673 C163.145082,67.2145301 163.119259,67.2595754 163.093437,67.3078382 C162.964324,67.5555873 162.86749,67.8162065 162.841667,68.1057834 C162.838439,68.1540462 162.848123,68.1958739 162.848123,68.2441367 C162.848123,68.2634419 162.828756,68.2795295 162.828756,68.3020521 L162.828756,171.703518 L159.171641,169.731177 C158.610001,169.425513 157.938615,169.386903 157.347925,169.624999 L136.031429,178.058121 L136.031429,133.511546 C136.031429,133.472936 136.005606,133.44076 136.002378,133.398933 C135.989467,133.112573 135.928139,132.832649 135.802254,132.581682 C135.79257,132.55916 135.789343,132.536637 135.776431,132.514114 C135.637635,132.24706 135.431055,132.025051 135.188969,131.838435 C135.163146,131.815912 135.150235,131.78052 135.121185,131.761215 C135.09859,131.745127 135.066312,131.745127 135.043717,131.729039 C134.988844,131.693647 134.946883,131.645384 134.89201,131.616426 L108.675689,117.472205 C108.149555,117.189063 107.526587,117.134365 106.958491,117.324199 L64.6289144,131.46842 C64.5127131,131.50703 64.4158786,131.574598 64.3093607,131.629296 C64.2803103,131.645384 64.2448043,131.638949 64.215754,131.655036 C64.1963871,131.664689 64.1899315,131.687212 64.1737924,131.696864 C63.8962002,131.87061 63.6734809,132.105489 63.5024067,132.378979 C63.4701285,132.427241 63.444306,132.469069 63.4184835,132.52055 C63.2893709,132.765081 63.1893086,133.028918 63.163486,133.315277 C63.1602582,133.36354 63.1731695,133.405368 63.1699417,133.450413 C63.1699417,133.469718 63.1570304,133.485806 63.1570304,133.508328 L63.1570304,187.575548 L58.5218869,185.078752 C57.9957529,184.79561 57.3727844,184.740912 56.8046888,184.930746 L14.4751118,199.074967 C14.3589105,199.113577 14.262076,199.181145 14.1555581,199.235843 C14.1265077,199.251931 14.0910018,199.245496 14.0619514,199.261583 C14.0425845,199.271236 14.0393567,199.293758 14.0199898,199.306628 C13.7391698,199.480375 13.5164505,199.715254 13.3453763,199.988743 C13.316326,200.037006 13.2872756,200.075616 13.2614531,200.130314 C13.1323404,200.378063 13.0322782,200.638682 13.0064556,200.925041 C13.0032278,200.970087 13.0129113,201.011914 13.0129113,201.060177 C13.0129113,201.079482 13,201.09557 13,201.118093 L13,349.754683 C13,350.542976 13.4292995,351.266918 14.1200521,351.643368 L40.3363724,366.028903 C40.3718784,366.048208 40.4106122,366.041773 40.4493459,366.061078 C40.7430772,366.202649 41.0561753,366.295957 41.3821847,366.295957 C41.6178153,366.295957 41.8534458,366.257347 42.0793929,366.180127 L75.293618,354.893064 L75.293618,359.455508 C75.293618,360.243801 75.7229175,360.97096 76.4136701,361.344193 L102.62999,375.732946 C102.665496,375.752251 102.70423,375.745816 102.742964,375.761903 C103.036695,375.903474 103.349793,376 103.675803,376 C103.911433,376 104.147064,375.958172 104.373011,375.884169 L146.702588,361.495416 C147.577326,361.196187 148.168016,360.378937 148.168016,359.452291 L148.168016,353.168472 L152.790249,355.703879 C152.825755,355.723184 152.867716,355.713531 152.90645,355.732837 C153.200181,355.877625 153.513279,355.970933 153.836061,355.970933 C154.071691,355.970933 154.307322,355.932323 154.533269,355.855102 L196.862846,341.472784 C197.737584,341.173555 198.325047,340.353087 198.325047,339.429659 L198.325047,333.586641 L203.282972,336.311881 C203.321706,336.331186 203.360439,336.324751 203.399173,336.340839 C203.692904,336.479192 204.006003,336.578935 204.328784,336.578935 C204.564415,336.578935 204.800045,336.537108 205.025992,336.463105 L247.352342,322.077569 C248.22708,321.77834 248.820998,320.957872 248.820998,320.034443 L248.820998,316.955276 L252.300583,319.284761 C252.416785,319.358764 252.545897,319.403809 252.671782,319.458507 C252.739566,319.484247 252.794439,319.526075 252.865451,319.548598 C253.068803,319.616166 253.291523,319.645123 253.507786,319.645123 C253.740189,319.645123 253.979048,319.606513 254.204995,319.53251 L296.534572,305.146975 C297.40931,304.850963 298,304.030495 298,303.103849 L298,123.048168 C297.993544,123.015993 297.97095,122.9806 297.97095,122.948425 Z M207.124073,56.5001859 L228.159749,67.8515992 L191.420749,80.3355799 L186.698454,77.7422581 L170.368934,68.7814627 L207.124073,56.5001859 Z M189.045076,83.9585083 L189.045076,181.967409 L170.96608,172.218321 C170.439946,171.935179 169.816977,171.880481 169.248882,172.070315 L167.160485,172.768517 L167.160485,71.9507207 L189.045076,83.9585083 Z M158.006399,174.007263 L159.991506,175.078697 C160.882383,174.718335 161.808766,174.43841 162.7642,174.238924 L136.028201,183.170762 L136.028201,182.694569 L158.006399,174.007263 Z M131.6997,184.618646 L126.922532,186.214536 C126.806331,186.253147 126.709497,186.320715 126.602979,186.375412 C126.573928,186.3915 126.538422,186.385065 126.509372,186.401153 C126.490005,186.410805 126.483549,186.433328 126.46741,186.44298 C126.189818,186.616726 125.967099,186.851606 125.796025,187.125095 C125.763747,187.173358 125.737924,187.215185 125.712101,187.266666 C125.582989,187.511197 125.482927,187.775034 125.457104,188.061393 C125.453876,188.109656 125.466787,188.151484 125.46356,188.196529 C125.46356,188.215834 125.450648,188.231922 125.450648,188.254445 L125.450648,242.324881 L120.815505,239.824868 C120.289371,239.541726 119.666402,239.487028 119.098307,239.676862 L93.7050796,248.164682 L93.7050796,149.435056 L131.702928,136.523145 L131.6997,184.618646 L131.6997,184.618646 Z M107.449119,121.712897 L128.484795,133.061093 L112.749193,138.408613 L91.7457953,145.545074 L70.6907526,133.994174 L107.449119,121.712897 Z M67.4855315,137.163432 L89.3733507,149.17122 L89.3733507,249.609348 L85.8711705,250.780526 L85.8711705,201.111658 C85.8711705,201.076265 85.8485758,201.04409 85.845348,201.008697 C85.8292089,200.712685 85.7678804,200.432761 85.6419956,200.172142 C85.6323121,200.156054 85.6290843,200.133531 85.6194009,200.114226 C85.4806048,199.847172 85.2707968,199.625163 85.0287106,199.435329 C85.002888,199.412807 84.9932046,199.377414 84.9641543,199.361326 C84.9415595,199.345239 84.9092814,199.345239 84.8866867,199.329151 C84.8318138,199.293758 84.7898522,199.248713 84.7349793,199.216538 L67.4855315,189.90825 L67.4855315,137.163432 L67.4855315,137.163432 Z M39.2130925,360.485115 L17.3252732,348.477327 L17.3252732,204.763544 L39.2130925,216.771331 L39.2130925,360.485115 Z M41.5855371,213.148403 L28.3514922,205.886458 L20.5304944,201.597503 L57.2888612,189.316226 L78.3245371,200.664422 L59.6548502,207.009373 L41.5855371,213.148403 Z M43.5415935,361.122184 L43.5415935,217.041603 L63.1344357,210.384553 L81.5394416,204.136127 L81.5394416,252.225193 L76.765502,253.821083 C76.6493006,253.862911 76.5524662,253.927261 76.4459482,253.985177 C76.4168979,254.001264 76.3813919,253.994829 76.3523416,254.010917 C76.3329747,254.020569 76.3297469,254.039875 76.31038,254.052745 C76.02956,254.226491 75.8068407,254.46137 75.6357665,254.734859 C75.6067161,254.786339 75.5776658,254.82495 75.5518433,254.87643 C75.4227306,255.124179 75.3226683,255.384798 75.2968458,255.671158 C75.293618,255.71942 75.3033014,255.761248 75.3033014,255.806293 C75.3033014,255.825599 75.2903902,255.841686 75.2903902,255.867426 L75.2903902,350.333837 L43.5415935,361.122184 Z M101.503483,370.189157 L79.6156634,358.184587 L79.6156634,259.512877 L101.503483,271.517447 L101.503483,370.189157 Z M103.875927,267.897737 L90.6418823,260.635792 L82.8208845,256.346837 L119.579251,244.068778 L140.614927,255.413756 L121.94524,261.761924 L103.875927,267.897737 Z M151.663741,350.166526 L148.161561,348.242448 L148.161561,255.867426 C148.161561,255.828816 148.138966,255.799858 148.135738,255.764466 C148.119599,255.468454 148.058271,255.18853 147.932386,254.92791 C147.922702,254.908605 147.919474,254.886083 147.909791,254.866777 C147.770995,254.599723 147.561187,254.380932 147.319101,254.187881 C147.293278,254.165358 147.283595,254.133183 147.254544,254.117095 C147.23195,254.09779 147.199672,254.09779 147.177077,254.081702 C147.122204,254.04631 147.080242,254.004482 147.025369,253.969089 L129.772694,244.660801 L129.772694,191.912766 L151.660513,203.917336 L151.663741,350.166526 L151.663741,350.166526 Z M154.032958,200.29119 L132.977915,188.74029 L169.736282,176.459013 L190.771958,187.807209 L175.036355,193.154729 L154.032958,200.29119 Z M198.292769,188.145049 C198.279857,187.85869 198.221757,187.578765 198.092644,187.327799 C198.082961,187.305276 198.079733,187.282753 198.063594,187.260231 C197.924798,186.993176 197.721445,186.771167 197.476131,186.584551 C197.450309,186.562029 197.437397,186.526636 197.408347,186.507331 C197.382524,186.491243 197.350246,186.491243 197.330879,186.475156 C197.276007,186.439763 197.234045,186.3915 197.179172,186.362542 L193.367122,184.306547 L193.367122,84.2255625 L231.36497,71.3136516 L231.36497,119.405935 L226.59103,121.001825 C226.474829,121.040435 226.377994,121.108003 226.268248,121.162701 C226.239198,121.178789 226.200464,121.172354 226.174642,121.191659 C226.152047,121.201311 226.148819,121.223834 226.129452,121.233487 C225.85186,121.407233 225.625913,121.642112 225.454839,121.915601 C225.425789,121.963864 225.399966,122.008909 225.377371,122.057172 C225.248259,122.304921 225.148196,122.56554 225.122374,122.855117 C225.119146,122.90338 225.128829,122.945208 225.128829,122.99347 C225.128829,123.012776 225.11269,123.028863 225.11269,123.051386 L225.11269,226.452851 L221.452347,224.483729 C220.890707,224.174847 220.219322,224.139454 219.628631,224.37755 L198.312135,232.810672 L198.312135,188.257662 C198.318591,188.219052 198.295996,188.183659 198.292769,188.145049 Z M202.159692,330.768093 L198.321819,328.667052 L198.321819,253.702035 L202.159692,256.099088 L202.159692,330.768093 Z M204.599921,252.530857 L198.321819,248.611917 L198.321819,237.440685 L220.300017,228.750161 L241.274364,240.072617 L204.599921,252.530857 Z M251.338694,313.448178 L248.820998,311.768633 L248.820998,240.519852 C248.820998,240.481242 248.795175,240.452284 248.791947,240.410457 C248.779036,240.12088 248.717708,239.844173 248.591823,239.586771 C248.582139,239.567466 248.578912,239.541726 248.566,239.519203 C248.427204,239.252149 248.220624,239.03014 247.978538,238.840306 C247.949488,238.814566 247.936576,238.779173 247.910754,238.766303 C247.888159,238.750216 247.855881,238.750216 247.833286,238.734128 C247.781641,238.698735 247.742907,238.650473 247.684807,238.621515 L229.457331,228.785554 L229.457331,126.703272 L251.341922,138.711059 L251.341922,313.448178 L251.338694,313.448178 Z M253.707911,135.084914 L248.985616,132.491592 L232.846537,123.636975 C232.891727,123.566189 232.93046,123.495404 232.978878,123.424618 L269.414463,111.24952 L290.450139,122.600933 L253.707911,135.084914 Z" id="Shape"></path>
        </g>
    </g>
</svg>