<?xml version="1.0" encoding="UTF-8"?>
<svg width="376px" height="376px" viewBox="0 0 376 376" version="1.1" xmlns="http://www.w3.org/2000/svg" xmlns:xlink="http://www.w3.org/1999/xlink">
    <!-- Generator: Sketch 47.1 (45422) - http://www.bohemiancoding.com/sketch -->
    <title>analytics (1)</title>
    <desc>Created with Sketch.</desc>
    <defs>
        <linearGradient x1="13.9030612%" y1="50%" x2="100%" y2="50%" id="linearGradient-1">
            <stop stop-color="#23C2C4" offset="0%"></stop>
            <stop stop-color="#64E7B1" offset="100%"></stop>
            <stop stop-color="#77D9B1" offset="100%"></stop>
            <stop stop-color="#4BD47F" offset="100%"></stop>
        </linearGradient>
    </defs>
    <g id="Page-1" stroke="none" stroke-width="1" fill="none" fill-rule="evenodd">
        <g id="analytics-(1)" fill-rule="nonzero" fill="url(#linearGradient-1)">
            <path d="M327.483871,36.3870968 L327.483871,169.806452 L376,169.806452 L376,36.3870968 L327.483871,36.3870968 Z M363.870968,157.677419 L339.612903,157.677419 L339.612903,48.516129 L363.870968,48.516129 L363.870968,157.677419 Z" id="Shape"></path>
            <path d="M266.83871,97.7357419 C262.957419,94.2668387 258.912387,91.0162581 254.709677,88.0021935 L254.709677,84.9032258 L250.143097,84.9032258 C226.509677,69.2689032 198.570452,60.6451613 169.806452,60.6451613 L163.741935,60.6451613 L163.741935,212.258065 L315.354839,212.258065 L315.354839,206.193548 C315.354839,193.870452 313.723484,181.680774 310.660903,169.806452 L315.354839,169.806452 L315.354839,60.6451613 L266.83871,60.6451613 L266.83871,97.7357419 Z M175.870968,200.129032 L175.870968,72.9076129 C193.033548,73.696 209.753419,77.8623226 225.169419,84.9032258 L206.193548,84.9032258 L206.193548,169.806452 L254.709677,169.806452 L254.709677,103.503097 C258.954839,107.008387 263.030194,110.725935 266.83871,114.764903 L266.83871,169.806452 L298.107355,169.806452 C300.909161,179.697677 302.625419,189.849677 303.092387,200.129032 L175.870968,200.129032 Z M242.580645,97.0322581 L242.580645,157.677419 L218.322581,157.677419 L218.322581,97.0322581 L242.580645,97.0322581 Z M278.967742,72.7741935 L303.225806,72.7741935 L303.225806,157.677419 L278.967742,157.677419 L278.967742,72.7741935 Z" id="Shape"></path>
            <rect id="Rectangle-path" transform="translate(77.320331, 213.772025) rotate(-45.000000) translate(-77.320331, -213.772025) " x="40.8733175" y="207.707567" width="72.8940267" height="12.1289159"></rect>
            <path d="M72.7741935,188 C72.7741935,177.96929 64.6113548,169.806452 54.5806452,169.806452 C44.5499355,169.806452 36.3870968,177.96929 36.3870968,188 C36.3870968,198.03071 44.5499355,206.193548 54.5806452,206.193548 C64.6113548,206.193548 72.7741935,198.03071 72.7741935,188 Z M48.516129,188 C48.516129,184.652387 51.2330323,181.935484 54.5806452,181.935484 C57.9282581,181.935484 60.6451613,184.652387 60.6451613,188 C60.6451613,191.347613 57.9282581,194.064516 54.5806452,194.064516 C51.2330323,194.064516 48.516129,191.347613 48.516129,188 Z" id="Shape"></path>
            <path d="M103.096774,218.322581 C93.0660645,218.322581 84.9032258,226.485419 84.9032258,236.516129 C84.9032258,246.546839 93.0660645,254.709677 103.096774,254.709677 C113.127484,254.709677 121.290323,246.546839 121.290323,236.516129 C121.290323,226.485419 113.127484,218.322581 103.096774,218.322581 Z M103.096774,242.580645 C99.7491613,242.580645 97.0322581,239.863742 97.0322581,236.516129 C97.0322581,233.168516 99.7491613,230.451613 103.096774,230.451613 C106.444387,230.451613 109.16129,233.168516 109.16129,236.516129 C109.16129,239.863742 106.444387,242.580645 103.096774,242.580645 Z" id="Shape"></path>
            <path d="M265.971484,311.976903 C282.357806,287.834065 291.096774,259.797806 291.096774,230.451613 L291.096774,224.387097 L151.612903,224.387097 L151.612903,84.9032258 L145.548387,84.9032258 C139.556645,84.9032258 133.461806,85.4308387 127.354839,86.2010323 L127.354839,0 L0,0 L0,84.9032258 L76.328,84.9032258 L88.172,96.7472258 C35.0832258,119.543742 0,172.098839 0,230.451613 C0,310.703355 65.2966452,376 145.548387,376 C180.740774,376 214.265419,363.276645 240.755226,340.298194 L259.518839,359.061806 C263.206065,362.749032 268.057677,364.59871 272.903226,364.59871 C277.748774,364.59871 282.600387,362.749032 286.287613,359.061806 C293.668129,351.68129 293.668129,339.673548 286.287613,332.293032 L265.971484,311.976903 Z M81.3494194,72.7741935 L12.1290323,72.7741935 L12.1290323,12.1290323 L115.225806,12.1290323 L115.225806,106.650581 L81.3494194,72.7741935 Z M145.548387,363.870968 C71.9797419,363.870968 12.1290323,304.020258 12.1290323,230.451613 C12.1290323,175.319097 46.3086452,125.856903 97.4992258,106.074452 L127.354839,135.930065 L127.354839,98.3664516 C131.412,97.8085161 135.469161,97.3597419 139.483871,97.1717419 L139.483871,236.516129 L278.834323,236.516129 C277.773032,260.440645 270.344,283.261419 257.256774,303.262194 L247.583871,293.58929 C248.250968,290.842065 248.645161,287.985677 248.645161,285.032258 C248.645161,264.964774 232.325548,248.645161 212.258065,248.645161 C192.190581,248.645161 175.870968,264.964774 175.870968,285.032258 C175.870968,305.099742 192.190581,321.419355 212.258065,321.419355 C215.211484,321.419355 218.067871,321.025161 220.815097,320.358065 L232.155742,331.69871 C207.982581,352.415097 177.520516,363.870968 145.548387,363.870968 Z M236.516129,285.032258 C236.516129,298.410581 225.636387,309.290323 212.258065,309.290323 C198.879742,309.290323 188,298.410581 188,285.032258 C188,271.653935 198.879742,260.774194 212.258065,260.774194 C225.636387,260.774194 236.516129,271.653935 236.516129,285.032258 Z M277.712387,350.486581 C275.056129,353.142839 270.750323,353.142839 268.094065,350.486581 L232.713677,315.106194 C236.491871,312.528774 239.754581,309.266065 242.332,305.487871 L277.712387,340.868258 C280.362581,343.524516 280.362581,347.830323 277.712387,350.486581 Z" id="Shape"></path>
            <rect id="Rectangle-path" x="24.2580645" y="24.2580645" width="78.8387097" height="12.1290323"></rect>
            <rect id="Rectangle-path" x="24.2580645" y="48.516129" width="78.8387097" height="12.1290323"></rect>
            <rect id="Rectangle-path" x="206.193548" y="278.967742" width="12.1290323" height="12.1290323"></rect>
            <rect id="Rectangle-path" x="151.612903" y="278.967742" width="12.1290323" height="12.1290323"></rect>
            <rect id="Rectangle-path" x="127.354839" y="278.967742" width="12.1290323" height="12.1290323"></rect>
            <rect id="Rectangle-path" x="103.096774" y="278.967742" width="12.1290323" height="12.1290323"></rect>
        </g>
    </g>
</svg>