<?xml version="1.0" encoding="UTF-8"?>
<svg width="60px" height="60px" viewBox="0 0 60 60" version="1.1" xmlns="http://www.w3.org/2000/svg" xmlns:xlink="http://www.w3.org/1999/xlink">
    <!-- Generator: Sketch 47.1 (45422) - http://www.bohemiancoding.com/sketch -->
    <title>process</title>
    <desc>Created with Sketch.</desc>
    <defs>
        <linearGradient x1="13.9030612%" y1="50%" x2="100%" y2="50%" id="linearGradient-1">
            <stop stop-color="#23C2C4" offset="0%"></stop>
            <stop stop-color="#64E7B1" offset="100%"></stop>
            <stop stop-color="#77D9B1" offset="100%"></stop>
            <stop stop-color="#4BD47F" offset="100%"></stop>
        </linearGradient>
    </defs>
    <g id="Page-1" stroke="none" stroke-width="1" fill="none" fill-rule="evenodd">
        <g id="process" fill-rule="nonzero" fill="url(#linearGradient-1)">
            <path d="M60,13 C60,12.9 60,12.8 59.9,12.7 L59.9,12.6 C59.8,12.5 59.8,12.4 59.7,12.3 L47.7,0.3 C47.6,0.2 47.5,0.2 47.4,0.1 L47.3,0.1 C47.2,0.1 47.1,0 47,0 L47,0 L1,0 C0.4,0 0,0.4 0,1 L0,10 L2,10 L2,2 L46,2 L46,13 C46,13.6 46.4,14 47,14 L58,14 L58,32 L60,32 L60,13 L60,13 Z M48,12 L48,3.4 L56.6,12 L48,12 Z" id="Shape"></path>
            <path d="M59,42 L56.2,42 C56.1,41.9 56.1,41.7 56,41.6 L58,39.8 C58.2,39.6 58.3,39.4 58.3,39.1 C58.3,38.8 58.2,38.6 58,38.4 L53.8,34.2 C53.4,33.8 52.8,33.8 52.4,34.2 L50.5,36.1 C50.3,36 50.2,36 50.1,35.9 L50.1,33 C50.1,32.4 49.7,32 49.1,32 L43.1,32 C42.5,32 42.1,32.4 42.1,33 L42.1,35.7 C42,35.8 41.8,35.8 41.7,35.9 L39.8,34 C39.4,33.6 38.8,33.6 38.4,34 L34.2,38.2 C34,38.4 33.9,38.6 33.9,38.9 C33.9,39.2 34,39.4 34.2,39.6 L36.1,41.5 C36,41.7 36,41.8 35.9,41.9 L33,41.9 C32.4,41.9 32,42.3 32,42.9 L32,48.9 C32,49.5 32.4,49.9 33,49.9 L35.8,49.9 C35.9,50 35.9,50.2 36,50.3 L34.1,52.2 C33.9,52.4 33.8,52.6 33.8,52.9 C33.8,53.2 33.9,53.4 34.1,53.6 L38.3,57.8 C38.7,58.2 39.3,58.2 39.7,57.8 L41.6,55.9 C41.8,56 41.9,56 42,56.1 L42,59 C42,59.6 42.4,60 43,60 L49,60 C49.6,60 50,59.6 50,59 L50,56.2 C50.1,56.1 50.3,56.1 50.4,56 L52.3,57.9 C52.7,58.3 53.3,58.3 53.7,57.9 L57.9,53.7 C58.1,53.5 58.2,53.3 58.2,53 C58.2,52.7 58.1,52.5 57.9,52.3 L56,50.4 C56.1,50.3 56.1,50.1 56.2,50 L59,50 C59.6,50 60,49.6 60,49 L60,43 C60,42.4 59.6,42 59,42 Z M58,48 L55.5,48 C55,48 54.6,48.4 54.5,48.8 C54.5,49 54.1,49.8 54,50 C53.9,50.2 53.8,50.4 53.8,50.6 C53.8,50.9 53.9,51.1 54.1,51.3 L55.8,53 L53,55.8 L51.3,54.1 C51.1,53.9 50.9,53.8 50.6,53.8 C50.3,53.8 50.2,53.9 50,54 C49.8,54.1 49,54.4 48.8,54.5 C48.3,54.6 48,55 48,55.5 L48,58 L44,58 L44,55.5 C44,55.2 43.9,55 43.7,54.8 C43.5,54.5 41.8,53.8 41.4,53.8 C41.1,53.8 40.9,53.9 40.7,54.1 L39,55.8 L36.2,53 L37.9,51.3 C38.1,51.1 38.2,50.9 38.2,50.6 C38.2,50.4 38.1,50.2 38,50 C37.9,49.8 37.6,49 37.5,48.8 C37.4,48.3 37,48 36.5,48 L34,48 L34,44 L36.5,44 C36.8,44 37,43.9 37.2,43.7 C37.5,43.5 38.2,41.8 38.2,41.4 C38.2,41.1 38.1,40.9 37.9,40.7 L36.2,39 L39,36.2 L40.7,37.9 C40.9,38.1 41.1,38.2 41.4,38.2 C41.7,38.2 41.8,38.1 42,38 C42.2,37.9 43,37.6 43.2,37.5 C43.7,37.4 44,37 44,36.5 L44,34 L48,34 L48,36.5 C48,36.8 48.1,37 48.3,37.2 C48.5,37.5 50.2,38.2 50.6,38.2 C50.9,38.2 51.1,38.1 51.3,37.9 L53,36.2 L55.8,39 L54.1,40.7 C53.9,40.9 53.8,41.1 53.8,41.4 C53.8,41.6 53.9,41.8 54,42 C54.1,42.2 54.4,43 54.5,43.2 C54.6,43.7 55,44 55.5,44 L58,44 L58,48 Z" id="Shape"></path>
            <path d="M46,42 C43.8,42 42,43.8 42,46 C42,48.2 43.8,50 46,50 C48.2,50 50,48.2 50,46 C50,43.8 48.2,42 46,42 Z M46,48 C44.9,48 44,47.1 44,46 C44,44.9 44.9,44 46,44 C47.1,44 48,44.9 48,46 C48,47.1 47.1,48 46,48 Z" id="Shape"></path>
            <path d="M24.9,25.5 L20.9,17.5 C20.6,16.8 19.4,16.8 19.1,17.5 L15.1,25.5 C14.9,25.7 14.9,26 15,26.3 L15,60 L17,60 L17,27 L19,27 L19,60 L21,60 L21,27 L23,27 L23,60 L25,60 L25,26.1 C25,25.9 25,25.7 24.9,25.5 Z M17.6,25 L20,20.2 L22.4,25 L17.6,25 Z" id="Shape"></path>
            <path d="M11,13 L1,13 C0.4,13 0,13.4 0,14 L0,60 L2,60 L2,57 L7,57 L7,55 L2,55 L2,48 L7,48 L7,46 L2,46 L2,38 L7,38 L7,36 L2,36 L2,28 L7,28 L7,26 L2,26 L2,20 L7,20 L7,18 L2,18 L2,15 L10,15 L10,60 L12,60 L12,14 C12,13.4 11.6,13 11,13 Z" id="Shape"></path>
            <rect id="Rectangle-path" x="5" y="5" width="12" height="2"></rect>
            <rect id="Rectangle-path" x="19" y="5" width="4" height="2"></rect>
            <rect id="Rectangle-path" x="13" y="9" width="10" height="2"></rect>
            <rect id="Rectangle-path" x="35" y="17" width="20" height="2"></rect>
            <rect id="Rectangle-path" x="29" y="22" width="18" height="2"></rect>
            <rect id="Rectangle-path" x="29" y="27" width="26" height="2"></rect>
            <rect id="Rectangle-path" x="29" y="31" width="6" height="2"></rect>
            <rect id="Rectangle-path" x="49" y="22" width="6" height="2"></rect>
        </g>
    </g>
</svg>