<?xml version="1.0" encoding="UTF-8"?>
<svg width="512px" height="406px" viewBox="0 0 512 406" version="1.1" xmlns="http://www.w3.org/2000/svg" xmlns:xlink="http://www.w3.org/1999/xlink">
    <!-- Generator: Sketch 47.1 (45422) - http://www.bohemiancoding.com/sketch -->
    <title>product</title>
    <desc>Created with Sketch.</desc>
    <defs>
        <linearGradient x1="13.9030612%" y1="50%" x2="100%" y2="50%" id="linearGradient-1">
            <stop stop-color="#23C2C4" offset="0%"></stop>
            <stop stop-color="#64E7B1" offset="100%"></stop>
            <stop stop-color="#77D9B1" offset="100%"></stop>
            <stop stop-color="#4BD47F" offset="100%"></stop>
        </linearGradient>
    </defs>
    <g id="Page-1" stroke="none" stroke-width="1" fill="none" fill-rule="evenodd">
        <g id="product" fill-rule="nonzero" fill="url(#linearGradient-1)">
            <path d="M508.695,134.252 L377.873,3.431 C373.466,-0.976 366.32,-0.975 361.912,3.431 L327.485,37.858 C325.369,39.974 324.179,42.845 324.179,45.838 C324.179,48.831 325.369,51.702 327.485,53.818 L331.937,58.27 L316.116,74.091 C310.482,79.725 303.391,83.033 293.844,84.466 L203.895,84.595 C197.698,84.595 191.952,86.581 187.247,89.941 L180.097,82.791 L184.511,78.377 C186.627,76.261 187.817,73.39 187.817,70.397 C187.817,67.404 186.627,64.533 184.511,62.417 L150.088,27.99 C145.681,23.583 138.535,23.584 134.127,27.99 L3.305,158.811 C-1.102,163.218 -1.102,170.364 3.305,174.772 L37.732,209.199 C39.848,211.315 42.719,212.505 45.712,212.505 C48.705,212.505 51.576,211.315 53.692,209.199 L57.416,205.475 L73.984,222.043 C79.452,227.51 83.681,233.924 86.553,241.103 L87.193,242.702 C91.206,252.737 97.117,261.7 104.758,269.341 L231.61,396.194 C238.066,402.65 246.545,405.877 255.025,405.877 C263.505,405.877 271.984,402.649 278.44,396.194 C281.686,392.947 284.122,389.192 285.748,385.185 C297.883,390.511 312.586,388.215 322.507,378.293 C325.473,375.326 327.811,371.896 329.455,368.163 C342.004,374.95 358.047,373.049 368.64,362.456 C379.244,351.852 381.18,335.811 374.45,323.222 C378.059,321.633 381.434,319.366 384.379,316.421 C384.391,316.409 384.463,316.337 384.475,316.325 C397.449,303.351 397.449,282.239 384.475,269.265 L383.655,268.445 L404.994,247.106 C411.34,240.759 420.342,229.371 424.793,218.24 L425.474,216.574 C428.337,209.415 432.569,203.006 438.053,197.522 L454.621,180.954 L458.308,184.641 C460.424,186.757 463.295,187.947 466.288,187.947 C469.281,187.947 472.152,186.757 474.268,184.641 L508.695,150.214 C513.102,145.806 513.102,138.66 508.695,134.252 Z M45.712,185.258 L27.246,166.792 L142.106,51.931 L160.572,70.397 L45.712,185.258 Z M368.554,300.325 C368.542,300.337 368.471,300.407 368.458,300.421 C364.31,304.569 357.761,304.518 353.55,300.305 C352.906,299.661 287.566,234.779 287.566,234.779 C283.158,230.372 276.013,230.373 271.604,234.779 C267.197,239.186 267.197,246.332 271.604,250.74 C271.604,250.74 353.394,332.444 353.868,332.79 C356.793,336.964 356.404,342.77 352.677,346.494 C348.567,350.605 341.879,350.605 337.769,346.494 L250.382,259.567 C245.976,255.16 238.829,255.16 234.421,259.567 C230.014,263.974 230.014,271.12 234.421,275.529 L308.173,349.281 C310.63,353.371 310.09,358.784 306.544,362.331 C304.552,364.323 301.906,365.419 299.09,365.419 C296.274,365.419 293.628,364.322 291.637,362.331 L210.447,281.601 C206.04,277.194 198.894,277.195 194.486,281.601 C190.079,286.008 190.079,293.154 194.486,297.563 L264.109,367.186 C266.566,371.276 266.025,376.689 262.479,380.236 C258.369,384.346 251.681,384.346 247.571,380.236 L120.722,253.38 C115.254,247.912 111.025,241.499 108.154,234.32 L107.514,232.72 C103.5,222.686 97.59,213.724 89.949,206.082 L73.381,189.514 L164.142,98.753 L175.342,109.952 C175.208,111.064 175.13,112.191 175.126,113.337 C175.126,113.434 175.126,113.547 175.128,113.645 C175.665,136.939 194.849,155.919 217.942,155.919 L239.162,155.872 L368.517,285.227 C372.689,289.398 372.689,296.189 368.554,300.325 Z M422.093,181.561 C414.435,189.219 408.523,198.177 404.549,208.115 L403.868,209.781 C401.305,216.189 395.205,224.974 389.034,231.145 L367.695,252.483 L307.77,192.558 C319.29,192.293 328.076,190.371 333.751,188.643 C337.787,187.414 339.728,182.843 337.827,179.077 L333.72,170.94 C332.263,168.053 328.98,166.584 325.864,167.445 C318.568,169.463 303.79,171.944 282.869,167.658 L251.908,136.697 L251.784,136.816 C249.741,134.827 246.919,133.618 243.803,133.618 C243.786,133.618 243.769,133.618 243.753,133.618 L217.889,133.51 C207.062,133.51 198.039,124.322 197.696,113.266 C197.773,109.942 200.585,107.158 203.912,107.158 L294.675,107.032 C295.187,107.032 295.7,106.996 296.206,106.926 C311.04,104.873 322.773,99.352 332.076,90.048 L347.894,74.23 L438.655,164.991 L422.093,181.561 Z M466.288,160.7 L351.427,45.839 L369.893,27.373 L484.753,142.233 L466.288,160.7 Z" id="Shape"></path>
        </g>
    </g>
</svg>