<?xml version="1.0" encoding="UTF-8"?>
<svg width="512px" height="512px" viewBox="0 0 512 512" version="1.1" xmlns="http://www.w3.org/2000/svg" xmlns:xlink="http://www.w3.org/1999/xlink">
    <!-- Generator: Sketch 47.1 (45422) - http://www.bohemiancoding.com/sketch -->
    <title>sketch</title>
    <desc>Created with Sketch.</desc>
    <defs>
        <linearGradient x1="13.9030612%" y1="50%" x2="100%" y2="50%" id="linearGradient-1">
            <stop stop-color="#23C2C4" offset="0%"></stop>
            <stop stop-color="#64E7B1" offset="100%"></stop>
            <stop stop-color="#77D9B1" offset="100%"></stop>
            <stop stop-color="#4BD47F" offset="100%"></stop>
        </linearGradient>
    </defs>
    <g id="Page-1" stroke="none" stroke-width="1" fill="none" fill-rule="evenodd">
        <g id="sketch" fill-rule="nonzero" fill="url(#linearGradient-1)">
            <path d="M485.764,0.005 C485.692,0.004 485.62,0.004 485.549,0.003 L26.882,0.003 C12.214,-0.174 0.181,11.573 0.004,26.241 C0.003,26.313 0.003,26.385 0.002,26.456 L0.002,346.456 C-0.175,361.124 11.572,373.157 26.24,373.334 C26.312,373.335 26.384,373.335 26.455,373.336 L42.668,373.336 L42.668,352.003 L26.455,352.003 C23.627,352.003 21.335,349.711 21.335,346.883 L21.335,26.883 C21.099,24.065 23.193,21.59 26.011,21.354 C26.159,21.342 26.307,21.336 26.455,21.336 L485.122,21.336 C487.95,21.336 490.242,23.628 490.242,26.456 L490.242,346.456 C490.242,349.284 487.95,351.576 485.122,351.576 L437.335,351.576 L437.335,372.909 L485.548,372.909 C499.969,372.854 511.712,361.301 512.001,346.882 L512.001,26.882 C512.179,12.215 500.432,0.182 485.764,0.005 Z" id="Shape"></path>
            <rect id="Rectangle-path" x="202.669" y="352.003" width="85.333" height="21.333"></rect>
            <path d="M149.335,85.336 L96.002,85.336 C78.329,85.336 64.002,99.663 64.002,117.336 L64.002,480.003 C64.002,497.676 78.329,512.003 96.002,512.003 L149.335,512.003 C167.008,512.003 181.335,497.676 181.335,480.003 L181.335,117.336 C181.335,99.663 167.008,85.336 149.335,85.336 Z M160.002,480.003 C160.002,485.894 155.226,490.67 149.335,490.67 L96.002,490.67 C90.111,490.67 85.335,485.894 85.335,480.003 L85.335,469.336 L117.335,469.336 L117.335,448.003 L85.335,448.003 L85.335,384.003 L117.335,384.003 L117.335,362.67 L85.335,362.67 L85.335,309.337 L117.335,309.337 L117.335,288.004 L85.335,288.004 L85.335,224.004 L117.335,224.004 L117.335,202.67 L85.335,202.67 L85.335,149.337 L117.335,149.337 L117.335,128.004 L85.335,128.004 L85.335,117.337 C85.335,111.446 90.111,106.67 96.002,106.67 L149.335,106.67 C155.226,106.67 160.002,111.446 160.002,117.337 L160.002,480.003 L160.002,480.003 Z" id="Shape"></path>
            <path d="M327.362,279.47 C326.263,278.424 324.954,277.624 323.522,277.123 L322.135,276.376 L268.802,255.043 C263.333,252.854 257.125,255.513 254.935,260.982 C253.917,263.526 253.917,266.365 254.935,268.91 L276.268,322.243 C277.232,324.046 278.3,325.791 279.468,327.47 L459.948,507.843 C464.108,511.979 470.828,511.979 474.988,507.843 L507.841,474.99 C511.977,470.83 511.977,464.11 507.841,459.95 L327.362,279.47 Z M290.029,299.203 L283.949,283.95 L299.202,290.03 L290.029,299.203 Z M302.082,320.003 L320.002,302.083 L458.669,440.75 L440.749,458.67 L302.082,320.003 Z M467.522,485.23 L455.789,473.603 L473.496,455.896 L485.123,467.523 L467.522,485.23 Z" id="Shape"></path>
            <path d="M469.335,53.336 C469.335,47.445 464.559,42.669 458.668,42.669 L416.001,42.669 L416.001,64.002 L448.001,64.002 L448.001,96.002 L469.334,96.002 L469.334,53.336 L469.335,53.336 Z" id="Shape"></path>
            <rect id="Rectangle-path" x="448.002" y="117.336" width="21.333" height="21.333"></rect>
        </g>
    </g>
</svg>