<?xml version="1.0" encoding="UTF-8"?>
<svg width="512px" height="510px" viewBox="0 0 512 510" version="1.1" xmlns="http://www.w3.org/2000/svg" xmlns:xlink="http://www.w3.org/1999/xlink">
    <!-- Generator: Sketch 47.1 (45422) - http://www.bohemiancoding.com/sketch -->
    <title>startup</title>
    <desc>Created with Sketch.</desc>
    <defs>
        <linearGradient x1="100%" y1="50%" x2="3.061617e-15%" y2="50%" id="linearGradient-1">
            <stop stop-color="#CB2D3E" offset="0%"></stop>
            <stop stop-color="#EF473A" offset="100%"></stop>
        </linearGradient>
    </defs>
    <g id="Page-1" stroke="none" stroke-width="1" fill="none" fill-rule="evenodd">
        <g id="startup" fill-rule="nonzero" fill="url(#linearGradient-1)">
            <circle id="Oval" cx="10.06" cy="499.446" r="10.06"></circle>
            <circle id="Oval" cx="267.005" cy="244.308" r="10.04"></circle>
            <path d="M398.479,117.032 C390.408,108.96 379.677,104.516 368.263,104.516 C356.849,104.516 346.117,108.962 338.047,117.032 C321.386,133.694 321.386,160.804 338.047,177.465 C346.379,185.796 357.319,189.96 368.263,189.96 C379.204,189.96 390.149,185.794 398.479,177.465 C415.14,160.803 415.14,133.693 398.479,117.032 Z M384.282,163.266 C375.449,172.098 361.076,172.098 352.245,163.266 C343.412,154.434 343.412,140.062 352.245,131.229 C356.524,126.95 362.212,124.594 368.263,124.594 C374.314,124.594 380.002,126.95 384.281,131.229 C393.114,140.062 393.114,154.434 384.282,163.266 Z" id="Shape"></path>
            <path d="M125.409,410.45 C120.445,407.978 114.419,409.999 111.947,414.962 L99.989,438.977 C94.789,449.418 84.331,456.4 72.693,457.196 L58.785,458.148 C56.434,458.305 54.888,457.134 54.173,456.419 C53.458,455.704 52.284,454.155 52.444,451.806 L53.396,437.899 C54.193,426.262 61.175,415.803 71.615,410.603 L95.629,398.645 C100.593,396.173 102.613,390.146 100.141,385.183 C97.67,380.22 91.643,378.199 86.679,380.671 L62.665,392.629 C45.873,400.991 34.645,417.811 33.363,436.527 L32.411,450.434 C31.897,457.941 34.653,465.297 39.973,470.617 C44.871,475.515 51.496,478.241 58.376,478.241 C58.967,478.241 59.562,478.221 60.156,478.18 L74.064,477.228 C92.78,475.947 109.6,464.72 117.962,447.926 L129.92,423.912 C132.392,418.948 130.372,412.922 125.409,410.45 Z" id="Shape"></path>
            <path d="M505.07,7.18 C500.359,2.539 493.869,0.112 487.277,0.541 L477.929,1.137 C394.11,6.488 315.667,46.947 262.714,112.141 L240.71,139.23 L183.127,137.539 C183.029,137.536 182.93,137.535 182.833,137.535 C137.165,137.535 94.23,155.319 61.937,187.611 L2.959,246.59 C0.154,249.395 -0.737,253.59 0.687,257.292 C2.111,260.995 5.581,263.513 9.543,263.715 L134.387,270.129 L129.297,276.396 C126.732,279.555 126.326,283.949 128.271,287.523 C130.227,291.119 132.277,294.658 134.415,298.14 L104.809,333.287 C102.278,336.292 101.733,340.498 103.412,344.05 C109.879,357.715 118.462,369.993 128.926,380.543 C139.644,391.351 152.177,400.189 166.175,406.814 C167.543,407.462 169.01,407.779 170.468,407.779 C172.729,407.779 174.971,407.015 176.795,405.536 C183.173,400.362 190.526,394.225 197.638,388.291 C202.707,384.061 207.893,379.734 212.74,375.744 C215.633,377.485 218.562,379.173 221.535,380.79 C223.039,381.608 224.688,382.011 226.331,382.011 C228.517,382.011 230.689,381.299 232.487,379.903 L239.33,374.593 L245.772,499.963 C245.976,503.925 248.493,507.395 252.195,508.819 C253.367,509.269 254.585,509.489 255.795,509.489 C258.41,509.489 260.978,508.466 262.896,506.547 L321.875,447.568 C354.168,415.275 371.951,372.341 371.951,326.672 L371.951,271.677 L395.218,253.622 C464.947,199.512 507.414,117.918 511.73,29.76 L511.969,24.874 C512.295,18.27 509.779,11.822 505.07,7.18 Z M33.123,244.822 L76.135,201.81 C104.6,173.345 142.438,157.653 182.688,157.614 L224.773,158.85 L150.063,250.83 L33.123,244.822 Z M184.774,372.874 C179.533,377.246 174.16,381.73 169.174,385.831 C159.53,380.608 150.806,374.091 143.182,366.403 C135.798,358.958 129.513,350.481 124.445,341.143 L146.121,315.41 C152.675,324.203 159.849,332.532 167.599,340.335 C167.605,340.341 167.611,340.346 167.617,340.352 C167.619,340.354 167.621,340.357 167.623,340.359 C167.626,340.362 167.629,340.364 167.632,340.367 C176.225,349.015 185.468,356.951 195.273,364.128 C191.811,367.002 188.264,369.962 184.774,372.874 Z M351.875,326.672 C351.875,366.977 336.18,404.869 307.679,433.37 L264.667,476.382 L258.665,359.59 L351.874,287.26 L351.874,326.672 L351.875,326.672 Z M491.678,28.779 C487.649,111.076 448.005,187.246 382.911,237.759 L225.451,359.948 C212.393,352.318 200.222,343.309 189.083,333.102 L242.169,280.016 C246.089,276.096 246.089,269.738 242.169,265.817 C238.248,261.896 231.891,261.896 227.97,265.817 L174.934,318.853 C165.183,308.058 156.547,296.312 149.194,283.749 L278.3,124.8 C327.732,63.941 400.96,26.171 479.207,21.177 L488.555,20.581 C489.78,20.505 490.6,21.113 490.978,21.485 C491.355,21.856 491.978,22.663 491.918,23.894 L491.678,28.779 Z" id="Shape"></path>
        </g>
    </g>
</svg>