<?xml version="1.0" encoding="UTF-8"?>
<svg width="206px" height="206px" viewBox="0 0 206 206" version="1.1" xmlns="http://www.w3.org/2000/svg" xmlns:xlink="http://www.w3.org/1999/xlink">
    <!-- Generator: Sketch 47.1 (45422) - http://www.bohemiancoding.com/sketch -->
    <title>at</title>
    <desc>Created with Sketch.</desc>
    <defs>
        <linearGradient x1="100%" y1="50%" x2="3.061617e-15%" y2="50%" id="linearGradient-1">
            <stop stop-color="#CB2D3E" offset="0%"></stop>
            <stop stop-color="#EF473A" offset="100%"></stop>
        </linearGradient>
    </defs>
    <g id="Page-1" stroke="none" stroke-width="1" fill="none" fill-rule="evenodd">
        <g id="at" fill-rule="nonzero" fill="url(#linearGradient-1)">
            <path d="M102.996,61.363 C125.954,61.363 144.631,80.041 144.631,102.998 C144.631,106.311 147.318,108.998 150.631,108.998 C153.944,108.998 156.631,106.311 156.631,102.998 C156.631,73.424 132.57,49.363 102.996,49.363 C73.422,49.363 49.36,73.424 49.36,102.998 C49.36,132.572 73.421,156.633 102.995,156.633 C121.985,156.633 139.74,146.438 149.331,130.026 C151.003,127.165 150.039,123.491 147.178,121.818 C144.318,120.148 140.643,121.111 138.97,123.971 C131.522,136.716 117.737,144.633 102.994,144.633 C80.036,144.633 61.359,125.955 61.359,102.998 C61.359,80.041 80.038,61.363 102.996,61.363 Z" id="Shape"></path>
            <path d="M205.698,95.053 C201.938,44.994 161.372,4.271 111.339,0.326 C81.095,-2.059 51.51,8.817 30.163,30.165 C8.815,51.513 -2.061,81.1 0.324,111.341 C4.255,161.188 44.807,201.74 94.653,205.67 C97.4,205.887 100.137,205.993 102.867,205.993 C130.196,205.993 156.42,195.24 175.829,175.832 C178.172,173.488 178.172,169.689 175.829,167.347 C173.486,165.005 169.687,165.003 167.344,167.346 C148.482,186.207 122.332,195.816 95.597,193.707 C51.574,190.236 15.759,154.421 12.287,110.397 C10.179,83.662 19.787,57.51 38.648,38.65 C57.509,19.789 83.656,10.177 110.395,12.289 C154.584,15.772 190.411,51.74 193.732,95.951 C194.187,102.008 194.053,108.093 193.335,114.037 C192.573,120.341 188.757,125.842 183.127,128.75 C178.032,131.383 172.308,131.373 167.421,128.724 C164.508,127.142 160.865,128.225 159.287,131.139 C157.707,134.052 158.788,137.694 161.702,139.273 C170.137,143.846 179.953,143.896 188.635,139.412 C197.799,134.678 204.01,125.73 205.248,115.477 C206.06,108.758 206.211,101.887 205.698,95.053 Z" id="Shape"></path>
        </g>
    </g>
</svg>