<?xml version="1.0" encoding="UTF-8"?>
<svg width="60px" height="60px" viewBox="0 0 60 60" version="1.1" xmlns="http://www.w3.org/2000/svg" xmlns:xlink="http://www.w3.org/1999/xlink">
    <!-- Generator: Sketch 47.1 (45422) - http://www.bohemiancoding.com/sketch -->
    <title>database</title>
    <desc>Created with Sketch.</desc>
    <defs>
        <linearGradient x1="100%" y1="50%" x2="3.061617e-15%" y2="50%" id="linearGradient-1">
            <stop stop-color="#CB2D3E" offset="0%"></stop>
            <stop stop-color="#EF473A" offset="100%"></stop>
        </linearGradient>
    </defs>
    <g id="Page-1" stroke="none" stroke-width="1" fill="none" fill-rule="evenodd">
        <g id="database" fill-rule="nonzero" fill="url(#linearGradient-1)">
            <path d="M10.5,6.125 C8.019,6.125 6,8.144 6,10.625 C6,13.106 8.019,15.125 10.5,15.125 C12.981,15.125 15,13.106 15,10.625 C15,8.144 12.981,6.125 10.5,6.125 Z M10.5,13.125 C9.122,13.125 8,12.004 8,10.625 C8,9.246 9.122,8.125 10.5,8.125 C11.878,8.125 13,9.246 13,10.625 C13,12.004 11.878,13.125 10.5,13.125 Z" id="Shape"></path>
            <circle id="Oval" cx="50" cy="9.125" r="1"></circle>
            <circle id="Oval" cx="46" cy="9.125" r="1"></circle>
            <circle id="Oval" cx="52" cy="12.125" r="1"></circle>
            <circle id="Oval" cx="48" cy="12.125" r="1"></circle>
            <circle id="Oval" cx="42" cy="9.125" r="1"></circle>
            <circle id="Oval" cx="44" cy="12.125" r="1"></circle>
            <circle id="Oval" cx="38" cy="9.125" r="1"></circle>
            <circle id="Oval" cx="40" cy="12.125" r="1"></circle>
            <circle id="Oval" cx="34" cy="9.125" r="1"></circle>
            <circle id="Oval" cx="36" cy="12.125" r="1"></circle>
            <path d="M10.5,25.125 C8.019,25.125 6,27.144 6,29.625 C6,32.106 8.019,34.125 10.5,34.125 C12.981,34.125 15,32.106 15,29.625 C15,27.144 12.981,25.125 10.5,25.125 Z M10.5,32.125 C9.122,32.125 8,31.004 8,29.625 C8,28.246 9.122,27.125 10.5,27.125 C11.878,27.125 13,28.246 13,29.625 C13,31.004 11.878,32.125 10.5,32.125 Z" id="Shape"></path>
            <path d="M10.5,44.125 C8.019,44.125 6,46.144 6,48.625 C6,51.106 8.019,53.125 10.5,53.125 C12.981,53.125 15,51.106 15,48.625 C15,46.144 12.981,44.125 10.5,44.125 Z M10.5,51.125 C9.122,51.125 8,50.004 8,48.625 C8,47.246 9.122,46.125 10.5,46.125 C11.878,46.125 13,47.246 13,48.625 C13,50.004 11.878,51.125 10.5,51.125 Z" id="Shape"></path>
            <path d="M60,16.517 L60,4.733 C60,2.192 57.933,0.125 55.392,0.125 L4.608,0.125 C2.067,0.125 0,2.192 0,4.733 L0,16.516 C0,17.985 0.703,19.28 1.777,20.124 C0.703,20.969 0,22.265 0,23.733 L0,35.516 C0,36.985 0.703,38.28 1.777,39.124 C0.703,39.969 0,41.265 0,42.733 L0,54.516 C0,57.057 2.067,59.124 4.608,59.124 L32.483,59.124 C35.165,59.618 38.105,59.874 41,59.874 C49.672,59.874 58.816,57.625 59.895,53.321 C59.962,53.188 60,53.036 60,52.875 L60,43.875 L60,43.5 L60,43.125 L60,34.875 L60,34.5 L60,34.125 L60,25.5 L60,25.125 C60,24.975 59.963,24.836 59.904,24.709 C59.557,23.245 58.256,22.012 56.342,21.024 C58.428,20.585 60,18.732 60,16.517 Z M2,35.517 L2,23.733 C2,22.295 3.17,21.125 4.608,21.125 L25.468,21.125 C23.659,22.096 22.431,23.294 22.096,24.709 C22.037,24.837 22,24.975 22,25.125 L22,25.5 L22,34.125 L22,34.5 L22,34.875 L22,38.125 L4.608,38.125 C3.17,38.125 2,36.955 2,35.517 Z M24.626,29.38 C24.671,29.409 24.719,29.438 24.765,29.467 C24.941,29.577 25.124,29.685 25.315,29.791 C25.37,29.821 25.423,29.852 25.478,29.881 C25.711,30.006 25.953,30.128 26.205,30.245 C26.245,30.264 26.288,30.282 26.328,30.3 C26.549,30.401 26.776,30.498 27.01,30.593 C27.079,30.621 27.147,30.649 27.216,30.676 C27.492,30.784 27.773,30.89 28.064,30.99 C28.08,30.995 28.096,31 28.112,31.006 C28.39,31.101 28.676,31.192 28.967,31.28 C29.045,31.304 29.124,31.327 29.203,31.35 C29.491,31.434 29.783,31.516 30.082,31.594 C30.106,31.6 30.129,31.607 30.153,31.613 C30.475,31.696 30.804,31.773 31.138,31.848 C31.222,31.867 31.307,31.885 31.391,31.903 C31.677,31.965 31.966,32.024 32.258,32.08 C32.316,32.091 32.374,32.103 32.432,32.114 C32.775,32.178 33.122,32.237 33.473,32.293 C33.556,32.306 33.641,32.319 33.724,32.332 C34.015,32.377 34.308,32.419 34.604,32.458 C34.685,32.469 34.765,32.48 34.847,32.49 C35.205,32.535 35.565,32.577 35.928,32.615 C36.001,32.623 36.075,32.629 36.148,32.636 C36.453,32.666 36.76,32.693 37.067,32.718 C37.16,32.725 37.252,32.733 37.345,32.74 C37.712,32.767 38.081,32.791 38.45,32.81 C38.502,32.813 38.555,32.814 38.608,32.817 C38.933,32.833 39.259,32.845 39.585,32.854 C39.683,32.857 39.781,32.86 39.88,32.862 C40.253,32.87 40.626,32.876 40.998,32.876 C41.37,32.876 41.743,32.87 42.116,32.862 C42.214,32.86 42.312,32.857 42.411,32.854 C42.737,32.845 43.062,32.833 43.388,32.817 C43.441,32.814 43.493,32.813 43.546,32.81 C43.915,32.791 44.284,32.767 44.651,32.74 C44.744,32.733 44.836,32.726 44.929,32.718 C45.237,32.694 45.543,32.666 45.848,32.636 C45.921,32.629 45.995,32.622 46.068,32.615 C46.431,32.577 46.791,32.536 47.149,32.49 C47.23,32.48 47.311,32.469 47.392,32.458 C47.687,32.419 47.981,32.377 48.272,32.332 C48.356,32.319 48.44,32.307 48.523,32.293 C48.874,32.237 49.221,32.178 49.564,32.114 C49.623,32.103 49.68,32.091 49.738,32.08 C50.031,32.024 50.32,31.965 50.605,31.903 C50.69,31.884 50.774,31.866 50.858,31.848 C51.191,31.773 51.521,31.696 51.843,31.613 C51.867,31.607 51.89,31.6 51.914,31.594 C52.213,31.517 52.505,31.435 52.793,31.35 C52.872,31.327 52.951,31.304 53.029,31.28 C53.32,31.192 53.606,31.101 53.884,31.006 C53.9,31.001 53.916,30.996 53.932,30.99 C54.223,30.889 54.505,30.784 54.78,30.676 C54.85,30.649 54.918,30.621 54.986,30.593 C55.22,30.498 55.447,30.401 55.668,30.3 C55.709,30.281 55.751,30.264 55.791,30.245 C56.043,30.128 56.284,30.006 56.518,29.881 C56.574,29.851 56.627,29.821 56.681,29.791 C56.871,29.686 57.054,29.578 57.231,29.467 C57.277,29.438 57.325,29.41 57.37,29.38 C57.577,29.246 57.773,29.108 57.959,28.966 C57.971,28.957 57.985,28.949 57.997,28.94 L57.997,33.928 C57.973,34.044 57.957,34.162 57.976,34.281 C57.99,34.354 58,34.426 58,34.5 C58,34.61 57.969,34.722 57.942,34.833 C57.921,34.919 57.894,35.006 57.858,35.092 C57.826,35.167 57.786,35.243 57.742,35.318 C57.699,35.393 57.652,35.469 57.598,35.544 C57.521,35.648 57.434,35.752 57.335,35.856 C57.298,35.896 57.261,35.936 57.221,35.976 C55.104,38.024 48.857,39.874 41.001,39.874 C33.15,39.874 26.906,38.026 24.785,35.979 C24.741,35.935 24.701,35.892 24.661,35.848 C24.567,35.748 24.482,35.648 24.408,35.548 C24.351,35.469 24.301,35.39 24.256,35.31 C24.215,35.239 24.177,35.168 24.146,35.096 C24.107,35.005 24.08,34.915 24.058,34.825 C24.031,34.717 24,34.608 24,34.5 C24,34.429 24.009,34.358 24.021,34.288 C24.042,34.158 24.029,34.028 24,33.903 L24,28.939 C24.012,28.948 24.026,28.956 24.038,28.965 C24.223,29.107 24.419,29.245 24.626,29.38 Z M57.857,44.092 C57.825,44.167 57.785,44.243 57.741,44.318 C57.698,44.393 57.651,44.469 57.597,44.544 C57.52,44.648 57.433,44.752 57.334,44.856 C57.297,44.896 57.26,44.936 57.22,44.976 C55.103,47.024 48.856,48.874 41,48.874 C33.149,48.874 26.905,47.026 24.784,44.979 C24.74,44.935 24.7,44.892 24.66,44.848 C24.566,44.748 24.481,44.648 24.407,44.548 C24.35,44.469 24.3,44.39 24.255,44.31 C24.214,44.239 24.176,44.168 24.145,44.096 C24.106,44.005 24.079,43.915 24.057,43.825 C24.034,43.731 24.01,43.636 24.007,43.542 L24.007,43.422 C24.011,43.377 24.013,43.332 24.02,43.287 C24.034,43.201 24.015,43.117 24.006,43.032 L24,38.125 L24,37.939 C24.04,37.97 24.087,37.999 24.129,38.029 C24.255,38.123 24.387,38.215 24.522,38.306 C24.632,38.379 24.746,38.451 24.862,38.523 C25.041,38.633 25.221,38.742 25.413,38.847 C25.415,38.848 25.417,38.849 25.418,38.85 C27.504,39.987 30.372,40.808 33.543,41.305 C33.567,41.309 33.591,41.312 33.615,41.316 C34.638,41.475 35.688,41.599 36.756,41.69 C36.983,41.709 37.209,41.729 37.438,41.745 C37.661,41.761 37.884,41.775 38.108,41.787 C38.41,41.804 38.712,41.819 39.014,41.831 C39.19,41.838 39.366,41.846 39.543,41.851 C40.03,41.865 40.516,41.875 41.001,41.875 C41.485,41.875 41.971,41.866 42.456,41.852 C42.634,41.847 42.811,41.839 42.989,41.832 C43.289,41.82 43.588,41.806 43.887,41.789 C44.113,41.776 44.338,41.762 44.563,41.746 C44.788,41.73 45.01,41.711 45.234,41.692 C46.312,41.601 47.372,41.475 48.404,41.315 C48.419,41.313 48.435,41.31 48.45,41.308 C51.915,40.766 55.014,39.835 57.131,38.529 C57.246,38.458 57.36,38.387 57.469,38.314 C57.604,38.224 57.736,38.132 57.861,38.038 C57.906,38.005 57.957,37.974 58.001,37.94 L58.001,42.928 C57.977,43.044 57.961,43.162 57.98,43.281 C57.99,43.354 58,43.426 58,43.5 C58,43.61 57.969,43.722 57.942,43.833 C57.92,43.919 57.894,44.006 57.857,44.092 Z M4.608,57.125 C3.17,57.125 2,55.955 2,54.517 L2,42.733 C2,41.295 3.17,40.125 4.608,40.125 L22,40.125 L22,43.125 L22,43.5 L22,43.875 L22,52.875 L22,53.875 L22.296,53.875 C22.312,53.912 22.335,53.948 22.353,53.985 C22.388,54.06 22.427,54.133 22.467,54.207 C22.549,54.355 22.642,54.501 22.745,54.645 C22.847,54.79 22.962,54.93 23.084,55.069 C23.146,55.139 23.208,55.208 23.275,55.277 C23.658,55.672 24.118,56.042 24.649,56.388 C24.667,56.4 24.686,56.412 24.705,56.424 C25.089,56.671 25.504,56.905 25.953,57.126 L4.608,57.126 L4.608,57.125 Z M58,52.619 C57.992,52.65 57.985,52.682 57.98,52.713 C57.571,55.206 50.65,57.875 41,57.875 C37.921,57.875 35.125,57.602 32.724,57.151 L32.725,57.143 C27.752,56.202 25,54.613 24.23,53.273 C24.229,53.272 24.228,53.271 24.228,53.269 C24.193,53.207 24.168,53.146 24.141,53.086 C24.089,52.961 24.04,52.837 24.02,52.713 L24.012,46.948 C24.048,46.976 24.091,47.002 24.128,47.03 C24.254,47.124 24.386,47.216 24.521,47.307 C24.631,47.38 24.745,47.452 24.861,47.524 C25.04,47.634 25.22,47.743 25.412,47.848 C25.414,47.849 25.416,47.85 25.417,47.851 C27.503,48.988 30.371,49.809 33.542,50.306 C33.566,50.31 33.59,50.313 33.614,50.317 C34.637,50.476 35.687,50.6 36.755,50.691 C36.982,50.71 37.208,50.73 37.437,50.746 C37.66,50.762 37.883,50.776 38.107,50.788 C38.409,50.805 38.711,50.82 39.013,50.832 C39.189,50.839 39.365,50.847 39.542,50.852 C40.029,50.866 40.515,50.876 41,50.876 C41.484,50.876 41.97,50.867 42.455,50.853 C42.633,50.848 42.81,50.84 42.988,50.833 C43.288,50.821 43.587,50.807 43.886,50.79 C44.112,50.777 44.337,50.763 44.562,50.747 C44.787,50.731 45.009,50.712 45.233,50.693 C46.311,50.602 47.371,50.476 48.403,50.316 C48.418,50.314 48.434,50.311 48.449,50.309 C51.914,49.767 55.013,48.836 57.13,47.53 C57.245,47.459 57.359,47.388 57.468,47.315 C57.603,47.225 57.735,47.133 57.86,47.039 C57.905,47.006 57.956,46.975 58,46.941 L58,52.619 L58,52.619 Z M58,25.5 C58,28.037 50.729,30.875 41,30.875 C31.27,30.875 24,28.037 24,25.5 C24,25.372 24.031,25.242 24.068,25.112 C24.108,24.983 24.162,24.851 24.242,24.715 C24.245,24.709 24.248,24.703 24.251,24.697 C24.584,24.141 25.255,23.543 26.288,22.966 C26.332,22.942 26.377,22.918 26.422,22.894 C26.599,22.798 26.786,22.703 26.983,22.609 C27.212,22.502 27.447,22.395 27.699,22.292 C27.748,22.271 27.799,22.251 27.85,22.231 C29.012,21.768 30.412,21.357 31.988,21.021 C32.481,20.917 32.983,20.819 33.499,20.733 C33.636,20.71 33.77,20.686 33.909,20.664 C38.386,19.974 43.609,19.974 48.086,20.664 C48.227,20.686 48.363,20.711 48.502,20.734 C49.015,20.819 49.514,20.916 50.003,21.02 C54.878,22.058 58,23.841 58,25.5 Z M58,16.517 C58,17.955 56.83,19.125 55.392,19.125 L50.762,19.125 C50.704,19.112 50.64,19.104 50.582,19.091 C49.926,18.949 49.251,18.822 48.561,18.712 C48.494,18.702 48.427,18.691 48.36,18.681 C45.999,18.314 43.479,18.125 41,18.125 C38.521,18.125 36.003,18.314 33.642,18.681 C33.573,18.691 33.505,18.702 33.436,18.712 C32.748,18.822 32.075,18.949 31.421,19.09 C31.362,19.103 31.296,19.111 31.237,19.124 L4.608,19.124 C3.17,19.125 2,17.955 2,16.517 L2,4.733 C2,3.295 3.17,2.125 4.608,2.125 L55.391,2.125 C56.83,2.125 58,3.295 58,4.733 L58,16.517 Z" id="Shape"></path>
        </g>
    </g>
</svg>