<?xml version="1.0" encoding="UTF-8"?>
<svg width="497px" height="511px" viewBox="0 0 497 511" version="1.1" xmlns="http://www.w3.org/2000/svg" xmlns:xlink="http://www.w3.org/1999/xlink">
    <!-- Generator: Sketch 47.1 (45422) - http://www.bohemiancoding.com/sketch -->
    <title>api</title>
    <desc>Created with Sketch.</desc>
    <defs>
        <linearGradient x1="100%" y1="50%" x2="3.061617e-15%" y2="50%" id="linearGradient-1">
            <stop stop-color="#CB2D3E" offset="0%"></stop>
            <stop stop-color="#EF473A" offset="100%"></stop>
        </linearGradient>
    </defs>
    <g id="Page-1" stroke="none" stroke-width="1" fill="none" fill-rule="evenodd">
        <g id="api" fill-rule="nonzero" fill="url(#linearGradient-1)">
            <path d="M485.168,309.579 L467.542,299.402 C470.502,284.679 472,269.936 472,255.5 C472,240.854 470.526,226.097 467.616,211.554 L485.168,201.42 C490.604,198.282 494.493,193.214 496.117,187.151 C497.741,181.088 496.908,174.755 493.769,169.319 L445.769,86.18 C442.63,80.744 437.563,76.855 431.5,75.231 C425.436,73.607 419.104,74.44 413.667,77.579 L396.101,87.721 C373.912,68.2 347.798,53.092 320,43.692 L320,23.5 C320,10.542 309.458,0 296.5,0 L200.5,0 C187.542,0 177,10.542 177,23.5 L177,43.693 C149.35,53.055 123.272,68.183 101.001,87.781 L83.332,77.579 C77.895,74.44 71.562,73.606 65.499,75.231 C59.436,76.856 54.369,80.744 51.23,86.18 L3.23,169.319 C0.091,174.755 -0.742,181.088 0.882,187.151 C2.506,193.214 6.395,198.282 11.831,201.42 L29.457,211.597 C26.499,226.32 25,241.063 25,255.5 C25,270.144 26.474,284.901 29.384,299.445 L11.832,309.579 C0.61,316.058 -3.248,330.458 3.23,341.681 L51.23,424.82 C57.709,436.041 72.109,439.9 83.332,433.421 L100.897,423.279 C123.087,442.8 149.2,457.908 177,467.309 L177,487.5 C177,500.458 187.542,511 200.5,511 L296.5,511 C309.458,511 320,500.458 320,487.5 L320,467.307 C347.651,457.945 373.729,442.817 396,423.22 L413.668,433.421 C424.889,439.9 439.291,436.041 445.77,424.82 L493.77,341.681 C500.248,330.458 496.39,316.058 485.168,309.579 Z M480.779,334.181 L432.779,417.319 C430.436,421.379 425.227,422.774 421.168,420.43 L398.776,407.502 C395.931,405.859 392.346,406.26 389.934,408.491 C367.041,429.664 339.497,445.639 310.281,454.69 C307.141,455.663 305,458.567 305,461.854 L305,487.5 C305,492.187 301.187,496 296.5,496 L200.5,496 C195.813,496 192,492.187 192,487.5 L192,461.855 C192,458.568 189.859,455.664 186.72,454.691 C157.324,445.584 129.746,429.629 106.965,408.552 C105.544,407.237 103.715,406.557 101.87,406.557 C100.584,406.557 99.291,406.887 98.122,407.562 L75.832,420.43 C71.772,422.773 66.564,421.378 64.221,417.319 L16.221,334.181 C13.878,330.122 15.274,324.913 19.332,322.569 L41.604,309.71 C44.448,308.068 45.893,304.768 45.17,301.564 C41.739,286.357 40,270.858 40,255.5 C40,240.4 41.765,224.916 45.247,209.478 C45.969,206.275 44.524,202.974 41.681,201.333 L19.332,188.43 C17.366,187.295 15.96,185.462 15.372,183.269 C14.785,181.076 15.086,178.785 16.221,176.819 L64.221,93.68 C65.356,91.714 67.189,90.307 69.383,89.72 C71.575,89.132 73.867,89.434 75.833,90.569 L98.225,103.497 C101.071,105.141 104.655,104.739 107.067,102.508 C129.961,81.335 157.504,65.36 186.72,56.309 C189.86,55.336 192.001,52.432 192.001,49.145 L192.001,23.5 C192.001,18.813 195.814,15 200.501,15 L296.501,15 C301.188,15 305.001,18.813 305.001,23.5 L305.001,49.145 C305.001,52.432 307.142,55.336 310.281,56.309 C339.676,65.415 367.254,81.37 390.036,102.448 C392.448,104.68 396.033,105.081 398.879,103.438 L421.169,90.569 C423.136,89.434 425.427,89.132 427.619,89.72 C429.812,90.308 431.645,91.714 432.781,93.68 L480.781,176.819 C481.916,178.785 482.218,181.076 481.63,183.269 C481.042,185.462 479.636,187.295 477.67,188.43 L455.398,201.289 C452.554,202.931 451.109,206.232 451.832,209.435 C455.263,224.641 457.002,240.139 457.002,255.5 C457.002,270.6 455.237,286.084 451.755,301.521 C451.033,304.724 452.478,308.024 455.321,309.666 L477.67,322.569 C481.727,324.913 483.123,330.122 480.779,334.181 Z" id="Shape"></path>
            <path d="M248.5,104 C164.962,104 97,171.963 97,255.5 C97,339.037 164.962,407 248.5,407 C332.038,407 400,339.037 400,255.5 C400,171.963 332.038,104 248.5,104 Z M248.5,392 C173.234,392 112,330.766 112,255.5 C112,180.234 173.234,119 248.5,119 C323.766,119 385,180.234 385,255.5 C385,330.766 323.766,392 248.5,392 Z" id="Shape"></path>
            <path d="M276.5,216 L248.5,216 C244.358,216 241,219.358 241,223.5 L241,287.5 C241,291.642 244.358,295 248.5,295 C252.642,295 256,291.642 256,287.5 L256,271 L276.5,271 C291.664,271 304,258.664 304,243.5 C304,228.336 291.664,216 276.5,216 Z M276.5,256 L256,256 L256,231 L276.5,231 C283.393,231 289,236.607 289,243.5 C289,250.393 283.393,256 276.5,256 Z" id="Shape"></path>
            <path d="M207.522,220.867 C206.424,217.94 203.626,216 200.5,216 L192.5,216 C189.374,216 186.575,217.939 185.478,220.867 L161.478,284.867 C160.023,288.745 161.989,293.068 165.867,294.523 C169.745,295.978 174.068,294.012 175.523,290.134 L179.697,279 L213.302,279 L217.477,290.133 C218.606,293.144 221.464,295.002 224.5,295.002 C225.375,295.002 226.265,294.848 227.132,294.523 C231.01,293.069 232.976,288.745 231.521,284.867 L207.522,220.867 Z M185.322,264 L196.5,234.193 L207.678,264 L185.322,264 Z" id="Shape"></path>
            <path d="M320.5,216 C316.358,216 313,219.358 313,223.5 L313,287.5 C313,291.642 316.358,295 320.5,295 C324.642,295 328,291.642 328,287.5 L328,223.5 C328,219.358 324.642,216 320.5,216 Z" id="Shape"></path>
            <path d="M302.152,87.3 C307.357,88.959 312.546,90.886 317.573,93.026 C318.531,93.434 319.527,93.627 320.507,93.627 C323.423,93.627 326.197,91.915 327.411,89.063 C329.033,85.252 327.259,80.847 323.448,79.225 C317.99,76.902 312.358,74.81 306.706,73.009 C302.761,71.751 298.541,73.931 297.283,77.877 C296.026,81.823 298.206,86.042 302.152,87.3 Z" id="Shape"></path>
            <path d="M93.45,339.904 C91.466,336.268 86.909,334.928 83.274,336.912 C79.638,338.896 78.298,343.452 80.282,347.088 C83.394,352.792 86.839,358.403 90.521,363.765 C91.975,365.882 94.322,367.02 96.71,367.02 C98.173,367.02 99.651,366.593 100.949,365.702 C104.364,363.357 105.231,358.688 102.886,355.274 C99.493,350.332 96.318,345.161 93.45,339.904 Z" id="Shape"></path>
            <path d="M233.14,431.341 C192.951,427.878 154.803,410.462 125.724,382.3 C122.748,379.418 118,379.495 115.119,382.47 C112.238,385.446 112.313,390.194 115.289,393.075 C146.839,423.63 188.236,442.527 231.852,446.285 C232.071,446.304 232.288,446.313 232.504,446.313 C236.355,446.313 239.631,443.364 239.968,439.457 C240.323,435.331 237.266,431.697 233.14,431.341 Z" id="Shape"></path>
            <path d="M356.425,97.287 C353.005,94.95 348.338,95.828 346.001,99.247 C343.664,102.667 344.542,107.334 347.961,109.671 C382.805,133.484 408.01,168.919 418.933,209.447 C419.835,212.793 422.863,214.997 426.17,214.997 C426.816,214.997 427.473,214.913 428.126,214.737 C432.126,213.659 434.494,209.543 433.416,205.544 C421.564,161.564 394.221,123.118 356.425,97.287 Z" id="Shape"></path>
        </g>
    </g>
</svg>