<?xml version="1.0" encoding="UTF-8"?>
<svg width="460px" height="138px" viewBox="0 0 460 138" version="1.1" xmlns="http://www.w3.org/2000/svg" xmlns:xlink="http://www.w3.org/1999/xlink">
    <!-- Generator: Sketch 47.1 (45422) - http://www.bohemiancoding.com/sketch -->
    <title>Group 2</title>
    <desc>Created with Sketch.</desc>
    <defs>
        <linearGradient x1="0%" y1="48.7729669%" x2="100%" y2="48.7729669%" id="linearGradient-1">
            <stop stop-color="#ED4264" offset="0%"></stop>
            <stop stop-color="#FFEDBC" offset="100%"></stop>
        </linearGradient>
    </defs>
    <g id="Page-1" stroke="none" stroke-width="1" fill="none" fill-rule="evenodd">
        <g id="Group-2">
            <g id="Group" transform="translate(0.000000, 33.000000)" fill="#F1F1F1">
                <rect id="Rectangle" x="2" y="0" width="36" height="12" rx="6"></rect>
                <rect id="Rectangle-Copy" x="47" y="0" width="36" height="12" rx="6"></rect>
                <rect id="Rectangle-Copy-4" x="2" y="60" width="36" height="12" rx="6"></rect>
                <rect id="Rectangle-Copy-3" x="47" y="60" width="36" height="12" rx="6"></rect>
                <rect id="Rectangle-Copy-2" x="0" y="30" width="63" height="12" rx="6"></rect>
            </g>
            <g id="Group-Copy" transform="translate(280.000000, 33.000000)" fill="#F1F1F1">
                <rect id="Rectangle" x="2" y="0" width="36" height="12" rx="6"></rect>
                <rect id="Rectangle-Copy" x="47" y="0" width="36" height="12" rx="6"></rect>
                <rect id="Rectangle-Copy-4" x="2" y="60" width="36" height="12" rx="6"></rect>
                <rect id="Rectangle-Copy-3" x="47" y="60" width="36" height="12" rx="6"></rect>
                <rect id="Rectangle-Copy-2" x="0" y="30" width="63" height="12" rx="6"></rect>
            </g>
            <g id="application-development" transform="translate(113.000000, 0.000000)" fill-rule="nonzero" fill="url(#linearGradient-1)">
                <path d="M32.7411262,10 L45.2588738,10 C46.2206086,10 47,9.32854545 47,8.5 C47,7.67145455 46.2206086,7 45.2588738,7 L32.7411262,7 C31.7793914,7 31,7.67145455 31,8.5 C31,9.32854545 31.7793914,10 32.7411262,10 Z" id="Shape"></path>
                <path d="M38.5,121 C35.467284,121 33,123.467215 33,126.500153 C33,129.533092 35.467284,132 38.5,132 C41.532716,132 44,129.532785 44,126.500153 C44,123.467522 41.532716,121 38.5,121 Z M38.5,128.625296 C37.3280248,128.625296 36.3747978,127.672096 36.3747978,126.500153 C36.3747978,125.328211 37.3280248,124.374704 38.5,124.374704 C39.6719752,124.374704 40.6252022,125.328211 40.6252022,126.500153 C40.6252022,127.672096 39.6716684,128.625296 38.5,128.625296 Z" id="Shape"></path>
                <path d="M16.7768169,40 L39.2231831,40 C40.2046321,40 41,39.3285455 41,38.5 C41,37.6714545 40.2046321,37 39.2231831,37 L16.7768169,37 C15.7953679,37 15,37.6714545 15,38.5 C15,39.3285455 15.7953679,40 16.7768169,40 Z" id="Shape"></path>
                <path d="M16.7768169,71 L39.2231831,71 C40.2046321,71 41,70.3285455 41,69.5 C41,68.6714545 40.2046321,68 39.2231831,68 L16.7768169,68 C15.7953679,68 15,68.6714545 15,69.5 C15,70.3285455 15.7953679,71 16.7768169,71 Z" id="Shape"></path>
                <path d="M47.2977561,75 L16.7022439,75 C15.7619863,75 15,75.6714545 15,76.5 C15,77.3285455 15.7619863,78 16.7022439,78 L47.2977561,78 C48.2380137,78 49,77.3285455 49,76.5 C49,75.6714545 48.2377042,75 47.2977561,75 Z" id="Shape"></path>
                <path d="M132.262694,68.9139057 C133.222319,68.9139057 134,68.1374803 134,67.1794054 L134,22.7345689 C134,21.776494 133.222319,21.0000686 132.262694,21.0000686 L77.142709,21.0000686 L77.142709,7.22498229 C77.142709,3.24099271 73.8964735,0 69.9060393,0 L7.23666965,0 C3.24623544,0 0,3.24099271 0,7.22498229 L0,130.775018 C0,134.758692 3.24623544,138 7.23666965,138 L69.9060393,138 C73.8964735,138 77.142709,134.759007 77.142709,130.775018 L77.142709,104.969122 L132.262694,104.969122 C133.222319,104.969122 134,104.192696 134,103.234621 L134,77.0433511 C134,76.0852762 133.222319,75.3088508 132.262694,75.3088508 L77.142709,75.3088508 L77.142709,68.9139057 L132.262694,68.9139057 Z M130.525388,65.444905 L54.5400405,65.444905 L54.5400405,24.4690692 L130.525388,24.4690692 L130.525388,65.444905 Z M52.8027344,75.3091661 C51.8431097,75.3091661 51.0654283,76.0855915 51.0654283,77.0436664 L51.0654283,86.4758792 L11.5799349,86.4758792 L11.5799349,57.8061656 L51.0654283,57.8061656 L51.0654283,62.2045431 L16.8029089,62.2045431 C15.8432841,62.2045431 15.0656028,62.9809685 15.0656028,63.9390434 C15.0656028,64.8971183 15.8432841,65.6735437 16.8029089,65.6735437 L51.0654283,65.6735437 L51.0654283,67.1797207 C51.0654283,68.1377957 51.8431097,68.9142211 52.8027344,68.9142211 L65.562774,68.9142211 L65.562774,75.3091661 L52.8027344,75.3091661 L52.8027344,75.3091661 Z M52.8027344,104.969437 L65.562774,104.969437 L65.562774,107.892543 L11.5799349,107.892543 L11.5799349,96.1704746 L51.0654283,96.1704746 L51.0654283,103.234937 C51.0654283,104.192696 51.8431097,104.969437 52.8027344,104.969437 Z M51.0654283,30.8510843 L16.8029089,30.8510843 C15.8432841,30.8510843 15.0656028,31.6275098 15.0656028,32.5855847 C15.0656028,33.5436596 15.8432841,34.320085 16.8029089,34.320085 L51.0654283,34.320085 L51.0654283,48.282182 L11.5799349,48.282182 L11.5799349,26.7680706 L51.0654283,26.7680706 L51.0654283,30.8510843 Z M7.23666965,3.46900066 L69.9060393,3.46900066 C71.9803828,3.46900066 73.6680967,5.15398889 73.6680967,7.22498229 L73.6680967,16.390082 L3.47461223,16.390082 L3.47461223,7.22498229 C3.47461223,5.15398889 5.16232615,3.46900066 7.23666965,3.46900066 Z M69.9060393,134.530999 L7.23666965,134.530999 C5.16232615,134.530999 3.47461223,132.846011 3.47461223,130.775018 L3.47461223,118.760292 L73.6680967,118.760292 L73.6680967,130.775018 C73.6680967,132.846011 71.9803828,134.530999 69.9060393,134.530999 Z M73.6680967,115.291606 L3.47461223,115.291606 L3.47461223,19.8590827 L73.6680967,19.8590827 L73.6680967,21.0000686 L52.8027344,21.0000686 C51.8431097,21.0000686 51.0654283,21.776494 51.0654283,22.7345689 L51.0654283,23.2990699 L9.84262882,23.2990699 C8.8830041,23.2990699 8.10532271,24.0754953 8.10532271,25.0335702 L8.10532271,50.0166823 C8.10532271,50.9747572 8.8830041,51.7511826 9.84262882,51.7511826 L51.0654283,51.7511826 L51.0654283,54.3371649 L9.84262882,54.3371649 C8.8830041,54.3371649 8.10532271,55.1135903 8.10532271,56.0716653 L8.10532271,88.2103796 C8.10532271,89.1684545 8.8830041,89.9448799 9.84262882,89.9448799 L51.0654283,89.9448799 L51.0654283,92.7011586 L9.84262882,92.7011586 C8.8830041,92.7011586 8.10532271,93.477584 8.10532271,94.435659 L8.10532271,109.626728 C8.10532271,110.584803 8.8830041,111.361229 9.84262882,111.361229 L67.3000801,111.361229 C68.2597049,111.361229 69.0373863,110.584803 69.0373863,109.626728 L69.0373863,104.969122 L73.6680967,104.969122 L73.6680967,115.291606 Z M130.525388,101.500436 L54.5400405,101.500436 L54.5400405,78.7781668 L130.525388,78.7781668 L130.525388,101.500436 Z M73.6680967,75.3091661 L69.0373863,75.3091661 L69.0373863,68.9142211 L73.6680967,68.9142211 L73.6680967,75.3091661 Z" id="Shape"></path>
                <path d="M62.7185795,35 L122.28142,35 C123.230701,35 124,34.3285455 124,33.5 C124,32.6714545 123.230701,32 122.28142,32 L62.7185795,32 C61.7692987,32 61,32.6714545 61,33.5 C61,34.3285455 61.7696111,35 62.7185795,35 Z" id="Shape"></path>
                <path d="M62.7461785,44 L93.2538215,44 C94.218347,44 95,43.3285455 95,42.5 C95,41.6714545 94.218347,41 93.2538215,41 L62.7461785,41 C61.781653,41 61,41.6714545 61,42.5 C61,43.3285455 61.7819705,44 62.7461785,44 Z" id="Shape"></path>
                <path d="M62.7185795,86 L122.28142,86 C123.230701,86 124,85.3285455 124,84.5 C124,83.6714545 123.230701,83 122.28142,83 L62.7185795,83 C61.7692987,83 61,83.6714545 61,84.5 C61,85.3285455 61.7696111,86 62.7185795,86 Z" id="Shape"></path>
                <path d="M62.7461785,95 L93.2538215,95 C94.218347,95 95,94.3285455 95,93.5 C95,92.6714545 94.218347,92 93.2538215,92 L62.7461785,92 C61.781653,92 61,92.6714545 61,93.5 C61,94.3285455 61.7819705,95 62.7461785,95 Z" id="Shape"></path>
                <path d="M62.7499915,53 L106.250008,53 C107.21664,53 108,52.3285455 108,51.5 C108,50.6714545 107.21664,50 106.250008,50 L62.7499915,50 C61.7833598,50 61,50.6714545 61,51.5 C61,52.3285455 61.783678,53 62.7499915,53 Z" id="Shape"></path>
                <path d="M35.221974,100 L16.778026,100 C15.7959091,100 15,100.671455 15,101.5 C15,102.328545 15.7959091,103 16.778026,103 L35.221974,103 C36.2040909,103 37,102.328545 37,101.5 C37,100.671455 36.2037677,100 35.221974,100 Z" id="Shape"></path>
            </g>
            <g id="settings" transform="translate(374.000000, 24.000000)" fill-rule="nonzero" fill="url(#linearGradient-1)">
                <path d="M70.2893168,59.8162706 C69.6038358,59.1302015 68.4913194,59.1302015 67.8061311,59.8162706 C67.1200647,60.5020469 67.1200647,61.6139822 67.8061311,62.2994658 L71.2197797,65.7134203 C72.0372641,66.5309078 72.4877147,67.6179643 72.4877147,68.774096 C72.4877147,69.9305204 72.0372641,71.0175769 71.2197797,71.8353571 L71.1328507,71.9222865 C70.3150736,72.7397741 69.2280213,73.1899337 68.0716013,73.1899337 C66.9154741,73.1899337 65.8284218,72.7397741 65.0106447,71.9219938 L61.5969961,68.5086248 C61.0054687,67.9173878 60.0791034,67.8248973 59.3822075,68.2888134 C56.196272,70.4096565 52.686621,71.864919 48.9501348,72.6139167 C48.1297235,72.7784094 47.5393669,73.4987233 47.5393669,74.3358212 L47.5393669,79.1590856 C47.5393669,81.546278 45.5973658,83.4882866 43.2104752,83.4882866 L43.0875453,83.4882866 C40.7006547,83.4882866 38.7586536,81.546278 38.7586536,79.1590856 L38.7586536,74.3358212 C38.7586536,73.499016 38.168297,72.7784094 37.347593,72.6139167 C33.6111068,71.8646263 30.1014557,70.4096565 26.9155203,68.2888134 C26.218917,67.82519 25.2922591,67.9170951 24.700439,68.5086248 L21.2867904,71.9222865 C20.469306,72.7397741 19.381961,73.1899337 18.2258338,73.1899337 C17.0694138,73.1899337 15.9823615,72.7397741 15.1648771,71.9222865 L15.0779481,71.8353571 C14.2604637,71.0175769 13.8100131,69.9305204 13.8100131,68.774096 C13.8100131,67.6179643 14.2604637,66.5309078 15.0779481,65.7131276 L18.4915967,62.2994658 C19.0831241,61.7079362 19.1753216,60.780982 18.7116999,60.0846687 C16.5905723,56.898721 15.1353154,53.3887637 14.3860279,49.6525559 C14.2215359,48.8321414 13.500932,48.2417825 12.66413,48.2417825 L7.84117692,48.2417825 C5.45428637,48.2417825 3.5122853,46.2997739 3.5122853,43.9131669 L3.5122853,43.7899437 C3.5122853,41.403044 5.45428637,39.4610354 7.84117692,39.4610354 L12.6644227,39.4610354 C13.5012247,39.4610354 14.2218285,38.8706765 14.3863206,38.0502621 C15.1359008,34.3134688 16.5911577,30.8038042 18.7119926,27.6181492 C19.1756143,26.9215433 19.0837095,25.9945891 18.4918894,25.4030594 L15.0779481,21.9896903 C14.2604637,21.1719101 13.8100131,20.0848536 13.8100131,18.9284292 C13.8100131,17.7720048 14.2604637,16.6849483 15.0779481,15.8671681 L15.1648771,15.7802387 C15.9823615,14.9627511 17.0694138,14.5122988 18.2258338,14.5122988 C19.381961,14.5122988 20.469306,14.9627511 21.2867904,15.7805314 L24.700439,19.1939005 C25.3865054,19.8793841 26.4984364,19.8796768 27.1839174,19.1936078 C27.8696911,18.5078314 27.8696911,17.3958962 27.1839174,16.7101198 L23.7705615,13.2970434 C22.2895479,11.8157314 20.3203266,11 18.2261265,11 C16.1316337,11 14.1624124,11.8157314 12.6816914,13.2970434 L12.5947624,13.3839728 C11.1137487,14.8649922 10.2980205,16.8339283 10.2980205,18.9284292 C10.2980205,21.0229301 11.1137487,22.9921589 12.5947624,24.4731783 L15.0135562,26.8916887 C13.3051221,29.716455 12.0459678,32.7525447 11.2577524,35.9484439 L7.84117692,35.9484439 C3.51755372,35.9484439 0,39.4660112 0,43.789651 L0,43.9128742 C0,48.2362214 3.51755372,51.7537886 7.84117692,51.7537886 L11.2574598,51.7537886 C12.0453824,54.9496879 13.304244,57.9851921 15.0132635,60.8105438 L12.5947624,63.229347 C11.1134561,64.7103663 10.2980205,66.6793025 10.2980205,68.7738033 C10.2980205,70.8683042 11.1137487,72.8375331 12.5947624,74.3182597 L12.6816914,74.4051891 C14.1627051,75.8865011 16.1316337,76.7019399 18.2261265,76.7019399 C20.3206193,76.7019399 22.2895479,75.8865011 23.7705615,74.4054818 L26.1893553,71.9866787 C29.0146961,73.6954121 32.0501887,74.9542785 35.2463683,75.7422042 L35.2463683,79.1585002 C35.2463683,83.48214 38.7639221,87 43.0875453,87 L43.2104752,87 C47.5340984,87 51.0516522,83.48214 51.0516522,79.1585002 L51.0516522,75.7422042 C54.2478318,74.9542785 57.2833243,73.6954121 60.1083725,71.9866787 L62.5271663,74.4051891 C64.0081799,75.8865011 65.9771085,76.7019399 68.0716013,76.7019399 C70.1660941,76.7019399 72.1353154,75.8865011 73.6160364,74.4051891 L73.7029654,74.3182597 C75.1842717,72.8372404 76,70.8683042 76,68.7738033 C76,66.6793025 75.1842717,64.7100736 73.7029654,63.2296396 L70.2893168,59.8162706 Z" id="Shape"></path>
                <path d="M78.1667116,35.2107074 L74.7535733,35.2107074 C73.9664433,32.0177615 72.7085557,28.9850478 71.0018404,26.1631503 L73.4182008,23.7468037 C76.4725692,20.6927452 76.4725692,15.7232115 73.4182008,12.6688606 L73.3313592,12.5820195 C71.8518355,11.1022119 69.8848877,10.2873089 67.792502,10.2873089 C65.7001164,10.2873089 63.7328762,11.1022119 62.2539373,12.5817271 L59.8372845,14.998366 C57.0150785,13.2913681 53.9823473,12.0337801 50.7896756,11.2466547 L50.7896756,7.83353591 C50.7893832,3.51428719 47.2756606,0 42.9560947,0 L42.8332884,0 C38.5140149,0 35,3.51428719 35,7.83353591 L35,12.6519017 C35,13.6206041 35.785668,14.4062676 36.7543759,14.4062676 C37.7233762,14.4062676 38.5087518,13.6206041 38.5087518,12.6519017 L38.5087518,7.83353591 C38.5087518,5.44876793 40.4487992,3.5087317 42.8332884,3.5087317 L42.9560947,3.5087317 C45.340584,3.5087317 47.2806313,5.44876793 47.2806313,7.83353591 L47.2806313,12.6519017 C47.2806313,13.4875646 47.8706864,14.2074394 48.68998,14.3720574 C52.4227071,15.1208792 55.9288274,16.5743714 59.1115577,18.6930605 C59.8068753,19.1556283 60.7328934,19.0644013 61.3241181,18.47318 L64.7346248,15.0629852 C65.5512868,14.2463279 66.6372455,13.796333 67.7922097,13.796333 C68.9474662,13.796333 70.0334249,14.2463279 70.8503793,15.0629852 L70.9372209,15.1498263 C71.7538828,15.966776 72.2038803,17.0527284 72.2038803,18.2079784 C72.2038803,19.3632283 71.7538828,20.4491807 70.9372209,21.265838 L67.5270065,24.6757404 C66.9360742,25.2666693 66.8436771,26.1926821 67.3071247,26.8885806 C69.4255336,30.0707078 70.8796189,33.576808 71.6281526,37.3100985 C71.7927715,38.1296797 72.512358,38.7194391 73.3483181,38.7194391 L78.1667116,38.7194391 C80.5512008,38.7194391 82.4912482,40.6594753 82.4912482,43.0439509 L82.4912482,43.1670489 C82.4912482,45.5512321 80.5512008,47.4912683 78.1667116,47.4912683 L73.3483181,47.4912683 C72.3796103,47.4912683 71.5939422,48.2769318 71.5939422,49.2456342 C71.5939422,50.2143365 72.3796103,51 73.3483181,51 L78.1667116,51 C82.4859851,51 86,47.4860052 86,43.1670489 L86,43.0439509 C86,38.7244098 82.4859851,35.2107074 78.1667116,35.2107074 Z" id="Shape"></path>
                <path d="M43,50.5320425 C41.4853477,50.5320425 40.0643315,50.0291886 38.890411,49.0775233 C38.1468123,48.4752547 37.0546789,48.5888303 36.4515346,49.3327072 C35.8486793,50.0765841 35.9628345,51.1687017 36.7067222,51.7715483 C38.4794521,53.2087277 40.714583,54 43,54 C48.5138431,54 53,49.514197 53,43.9998555 C53,38.486092 48.5141321,34 43,34 C37.4858679,34 33,38.485803 33,43.9998555 C33,44.9573008 33.7765447,45.7338343 34.7340038,45.7338343 C35.6914629,45.7338343 36.4680076,44.9573008 36.4680076,43.9998555 C36.4680076,40.3980926 39.3981851,37.4679575 43,37.4679575 C46.6018149,37.4679575 49.5319924,40.3980926 49.5319924,43.9998555 C49.5319924,47.6016184 46.6018149,50.5320425 43,50.5320425 Z" id="Shape"></path>
            </g>
        </g>
    </g>
</svg>