<?xml version="1.0" encoding="UTF-8"?>
<svg width="363px" height="150px" viewBox="0 0 363 150" version="1.1" xmlns="http://www.w3.org/2000/svg" xmlns:xlink="http://www.w3.org/1999/xlink">
    <!-- Generator: Sketch 47.1 (45422) - http://www.bohemiancoding.com/sketch -->
    <title>Group 2</title>
    <desc>Created with Sketch.</desc>
    <defs>
        <linearGradient x1="0%" y1="48.7729669%" x2="100%" y2="48.7729669%" id="linearGradient-1">
            <stop stop-color="#ED4264" offset="0%"></stop>
            <stop stop-color="#FFEDBC" offset="100%"></stop>
        </linearGradient>
    </defs>
    <g id="Page-1" stroke="none" stroke-width="1" fill="none" fill-rule="evenodd">
        <g id="Group-2">
            <g id="Group" transform="translate(0.000000, 31.000000)" fill="#F1F1F1">
                <rect id="Rectangle" x="2" y="0" width="36" height="12" rx="6"></rect>
                <rect id="Rectangle-Copy" x="47" y="0" width="36" height="12" rx="6"></rect>
                <rect id="Rectangle-Copy-4" x="2" y="60" width="36" height="12" rx="6"></rect>
                <rect id="Rectangle-Copy-3" x="47" y="60" width="36" height="12" rx="6"></rect>
                <rect id="Rectangle-Copy-2" x="0" y="30" width="63" height="12" rx="6"></rect>
            </g>
            <g id="Group-Copy" transform="translate(280.000000, 31.000000)" fill="#F1F1F1">
                <rect id="Rectangle" x="2" y="0" width="36" height="12" rx="6"></rect>
                <rect id="Rectangle-Copy" x="47" y="0" width="36" height="12" rx="6"></rect>
                <rect id="Rectangle-Copy-4" x="2" y="60" width="36" height="12" rx="6"></rect>
                <rect id="Rectangle-Copy-3" x="47" y="60" width="36" height="12" rx="6"></rect>
                <rect id="Rectangle-Copy-2" x="0" y="30" width="63" height="12" rx="6"></rect>
            </g>
            <g id="graphic-design" transform="translate(102.000000, 0.000000)" fill-rule="nonzero" fill="url(#linearGradient-1)">
                <path d="M74.0002538,39 C58.0088288,39 45,51.8494919 45,67.6450481 C45,77.9429888 50.517067,87.3100393 59.4998731,92.4301856 L59.4998731,95.1276114 C58.040294,96.2184121 57.083143,97.9298063 57.083143,99.8732963 C57.083143,101.221759 57.5546135,102.453922 58.3204358,103.45399 C57.554106,104.451551 57.083143,105.683715 57.083143,107.032177 C57.083143,110.32413 59.792195,113 63.1249683,113 L84.8750317,113 C88.207805,113 90.916857,110.32413 90.916857,107.032177 C90.916857,105.683715 90.4453865,104.451551 89.6795642,103.451484 C90.445894,102.451416 90.916857,101.219753 90.916857,99.8707899 C90.916857,97.9278011 89.959706,96.216407 88.5001269,95.125105 L88.5001269,92.4276792 C97.482933,87.3075329 103,77.9429888 103,67.6425417 C103.000508,51.8494919 89.9916787,39 74.0002538,39 Z M84.8755392,108.22524 L63.1254758,108.22524 C62.4606466,108.22524 61.9171107,107.688362 61.9171107,107.031676 C61.9171107,106.37499 62.4606466,105.838111 63.1254758,105.838111 L84.8755392,105.838111 C85.5403684,105.838111 86.0839043,106.37499 86.0839043,107.031676 C86.0844118,107.688362 85.5403684,108.22524 84.8755392,108.22524 Z M84.8755392,101.064354 L63.1254758,101.064354 C62.4606466,101.064354 61.9171107,100.527476 61.9171107,99.8707899 C61.9171107,99.2141038 62.4606466,98.6772253 63.1254758,98.6772253 L84.8755392,98.6772253 C85.5403684,98.6772253 86.0839043,99.2141038 86.0839043,99.8707899 C86.0839043,100.527476 85.5403684,101.064354 84.8755392,101.064354 Z M84.9816074,88.8850833 L83.6671742,89.553299 L83.6671742,93.9024658 L76.4169839,93.9024658 L76.4169839,76.8536919 C80.5759723,75.7864517 83.6671742,72.0794337 83.6671742,67.6445468 C83.6671742,62.3785259 79.3315746,58.0960303 74.0002538,58.0960303 C68.6689329,58.0960303 64.3333333,62.3785259 64.3333333,67.6445468 C64.3333333,72.079935 67.4240277,75.786953 71.5835236,76.8536919 L71.5835236,93.9024658 L64.3333333,93.9024658 L64.3333333,89.553299 L63.0189001,88.8870885 C54.8866693,84.7765343 49.8334602,76.6366346 49.8334602,67.6445468 C49.8334602,54.4822517 60.674743,43.7737569 74.0002538,43.7737569 C87.3257645,43.7737569 98.1670473,54.4822517 98.1670473,67.6445468 C98.1670473,76.6371359 93.1143457,84.7770356 84.9816074,88.8850833 Z M74.0002538,72.4193063 C71.3348471,72.4193063 69.1667935,70.2783092 69.1667935,67.6450481 C69.1667935,65.0122883 71.3343396,62.8707899 74.0002538,62.8707899 C76.6661679,62.8707899 78.833714,65.011787 78.833714,67.6450481 C78.8342215,70.2778079 76.6666754,72.4193063 74.0002538,72.4193063 Z" id="Shape"></path>
                <path d="M148.242176,89.990802 C146.546636,82.2434194 143.673158,74.4254305 139.793428,66.7674486 C145.434224,47.459947 142.930533,29.5584746 131.685516,18.3153217 C121.669231,8.30142841 106.322001,4.93671149 88.4395887,8.84799173 C86.7003647,9.22794466 84.9591089,9.69221871 83.2148053,10.2001772 C75.5594768,6.32496199 67.7487152,3.45398071 60.006527,1.76095512 C40.2416481,-2.56634311 23.2664358,1.14378557 12.2052962,12.2055972 C1.1436486,23.2674089 -2.56388529,40.2449049 1.75826924,60.0095691 C3.45380946,67.7569517 6.32474816,75.5749405 10.2049854,83.2329225 C4.46006027,102.808626 7.1887727,120.562791 18.3128982,131.687081 C25.6055498,138.979841 35.7259643,142.743813 47.5901743,142.743813 C52.0215383,142.743813 56.6972267,142.216552 61.5562853,141.154411 C63.2955094,140.774458 65.0367652,140.310184 66.7810687,139.802226 C74.4363973,143.677441 82.2471588,146.548422 89.989347,148.241448 C95.3710872,149.416864 100.545075,150 105.450358,150 C118.560571,150 129.742603,145.844392 137.792102,137.794266 C148.855781,126.735502 152.563823,109.757498 148.242176,89.990802 Z M128.264974,21.7359141 C137.325803,30.7968773 139.891971,44.9155831 136.433333,60.5921974 C130.986067,51.2914778 124.051521,42.3249949 115.86132,34.1372122 C107.673659,25.9468898 98.7073089,19.0122408 89.4067273,13.5648941 C104.942915,10.1422699 119.111698,12.5830104 128.264974,21.7359141 Z M6.48424475,58.9763815 C2.5247672,40.8783291 5.77057369,25.4826158 15.6248219,15.6256816 C22.7412145,8.50918342 32.7427684,4.84019938 44.570914,4.84019938 C49.1206305,4.84019938 53.9436247,5.3842229 58.9748787,6.48496891 C64.852379,7.77162772 70.7837221,9.76993635 76.6490315,12.403701 C63.0699791,17.5752262 49.6915674,26.4086241 38.0498398,38.0505243 C33.8389266,42.2615 29.9708802,46.7655678 26.4878606,51.4387858 C25.3871309,51.0613726 24.2239233,50.812473 22.99519,50.812473 C16.9942576,50.812473 12.1103093,55.6959857 12.1103093,61.6975151 C12.1103093,64.7909822 13.4213307,67.5705309 15.49885,69.5541088 C14.3569763,71.9389738 13.314661,74.3141876 12.4125401,76.670607 C9.77424297,70.7970831 7.77139243,64.8615884 6.48424475,58.9763815 Z M29.0428538,61.6975151 C29.0428538,65.0307386 26.3314117,67.7447607 22.9956979,67.7447607 C19.6599841,67.7447607 16.948542,65.0307386 16.948542,61.6975151 C16.948542,58.3642916 19.6599841,55.6502695 22.9956979,55.6502695 C26.3314117,55.6502695 29.0428538,58.3642916 29.0428538,61.6975151 Z M21.7349637,128.266489 C12.7975669,119.328959 10.0881567,105.313877 13.5909863,89.4513501 C19.0331727,98.7373389 25.9606075,107.687059 34.1386176,115.862651 C42.3288185,124.055513 51.2951685,130.992702 60.6003217,136.440049 C45.0595628,139.865213 30.8907793,137.424472 21.7349637,128.266489 Z M37.5581433,112.442566 C28.420106,103.304394 20.9095434,93.1858608 15.3871008,82.7462983 C16.5193235,79.2246222 17.9705393,75.6348796 19.6853817,72.0116119 C20.7353162,72.3504202 21.8335062,72.5825572 22.9941741,72.5825572 C28.9951064,72.5825572 33.8790547,67.6990444 33.8790547,61.6975151 C33.8790547,58.6741462 32.6355908,55.9408217 30.6403595,53.9643553 C33.9156272,49.6106432 37.5363014,45.4088107 41.4719053,41.4711167 C54.2362044,28.7066282 68.8047452,19.8249743 82.7175214,15.3717024 C93.1691199,20.8937189 103.294614,28.4094725 112.442302,37.5572966 C121.587959,46.7030889 129.103093,56.8307649 134.627567,67.2799787 C131.928824,75.6714526 127.582288,84.3473834 121.648913,92.8379092 C120.323161,92.2598525 118.864834,91.9332352 117.32879,91.9332352 C111.327858,91.9332352 106.44391,96.8167479 106.44391,102.818277 C106.44391,105.028913 107.113897,107.080049 108.250691,108.797456 C95.5544575,121.414129 81.0996976,130.208922 67.2880037,134.630701 C56.8364052,129.106144 46.7063397,121.590899 37.5581433,112.442566 Z M123.376454,102.817769 C123.376454,106.153533 120.665012,108.865015 117.329298,108.865015 C113.993584,108.865015 111.282142,106.153533 111.282142,102.817769 C111.282142,99.482006 113.993584,96.7705237 117.329298,96.7705237 C120.665012,96.7705237 123.376454,99.482006 123.376454,102.817769 Z M134.375116,134.376721 C124.523407,144.231116 109.135034,147.48205 91.025059,143.517434 C85.1475587,142.230775 79.2187553,140.232467 73.3509061,137.598702 C86.8598613,132.45359 100.170716,123.68064 111.768759,112.1256 C113.401314,113.105452 115.290383,113.702811 117.329806,113.702811 C123.330739,113.702811 128.214687,108.819299 128.214687,102.817769 C128.214687,100.101207 127.179483,97.6437043 125.527626,95.7353043 C130.711266,88.3358733 134.74084,80.779483 137.587905,73.3317959 C140.226711,79.2073516 142.229561,85.1428463 143.516201,91.0280532 C147.474662,109.124074 144.228856,124.522327 134.375116,134.376721 Z" id="Shape"></path>
            </g>
        </g>
    </g>
</svg>