<?xml version="1.0" encoding="UTF-8"?>
<svg width="363px" height="190px" viewBox="0 0 363 190" version="1.1" xmlns="http://www.w3.org/2000/svg" xmlns:xlink="http://www.w3.org/1999/xlink">
    <!-- Generator: Sketch 47.1 (45422) - http://www.bohemiancoding.com/sketch -->
    <title>Group 2 Copy 2</title>
    <desc>Created with Sketch.</desc>
    <defs>
        <linearGradient x1="0%" y1="48.7729669%" x2="100%" y2="48.7729669%" id="linearGradient-1">
            <stop stop-color="#ED4264" offset="0%"></stop>
            <stop stop-color="#FFEDBC" offset="100%"></stop>
        </linearGradient>
    </defs>
    <g id="Page-1" stroke="none" stroke-width="1" fill="none" fill-rule="evenodd">
        <g id="Group-2-Copy-2">
            <g id="Group" transform="translate(0.000000, 56.000000)" fill="#F1F1F1">
                <rect id="Rectangle" x="2" y="0" width="36" height="12" rx="6"></rect>
                <rect id="Rectangle-Copy" x="47" y="0" width="36" height="12" rx="6"></rect>
                <rect id="Rectangle-Copy-4" x="2" y="60" width="36" height="12" rx="6"></rect>
                <rect id="Rectangle-Copy-3" x="47" y="60" width="36" height="12" rx="6"></rect>
                <rect id="Rectangle-Copy-2" x="0" y="30" width="63" height="12" rx="6"></rect>
            </g>
            <g id="Group-Copy" transform="translate(280.000000, 56.000000)" fill="#F1F1F1">
                <rect id="Rectangle" x="2" y="0" width="36" height="12" rx="6"></rect>
                <rect id="Rectangle-Copy" x="47" y="0" width="36" height="12" rx="6"></rect>
                <rect id="Rectangle-Copy-4" x="2" y="60" width="36" height="12" rx="6"></rect>
                <rect id="Rectangle-Copy-3" x="47" y="60" width="36" height="12" rx="6"></rect>
                <rect id="Rectangle-Copy-2" x="0" y="30" width="63" height="12" rx="6"></rect>
            </g>
            <g id="smartphone" transform="translate(138.000000, 0.000000)" fill-rule="nonzero" fill="url(#linearGradient-1)">
                <path d="M86.9876239,175.773917 L86.9876239,46.8326656 C86.7362643,41.4637792 83.878448,36.5514876 79.32526,33.6619479 L22.7518343,1.14163446 C21.0120831,0.0472918581 18.893428,-0.278263931 16.9026902,0.242922304 C16.6591623,0.278930185 16.4223473,0.350945946 16.2000769,0.455999867 C16.1773277,0.466022679 16.151968,0.467136325 16.1295918,0.477530352 L16.1236248,0.481984936 C16.0520209,0.515023094 15.9733312,0.51539431 15.9035919,0.555856774 L3.34904039,7.76782698 C3.30391502,7.79381205 3.27930117,7.83835788 3.23641342,7.86657024 C3.20545964,7.88364614 3.16891182,7.88661586 3.13795805,7.9044342 C1.0345933,9.27458975 -0.159551006,11.6704131 0.0172211371,14.1660933 L0.0172211371,143.104747 C0.280514667,148.479201 3.14243329,153.39372 7.69674007,156.29254 L64.2459249,188.790952 C65.5001121,189.548973 66.9325632,189.965848 68.3996974,190 C69.0791886,189.989235 69.751594,189.861537 70.3867058,189.622103 C70.6201643,189.571618 70.8450453,189.487352 71.054263,189.372275 L71.1806887,189.299888 C71.2235764,189.276873 71.2720582,189.26982 71.314573,189.245691 C71.3522397,189.22416 71.3779723,189.187781 71.4148931,189.165137 L83.2384881,182.363731 L83.6826561,182.107221 C83.7426989,182.070099 83.7725339,182.011447 83.8277286,181.970614 C85.9288557,180.624587 87.1367987,178.255863 86.9876239,175.773917 Z M5.04217442,14.1657221 C5.04217442,12.9982501 5.37110487,12.3976238 5.65080763,12.2365164 C5.78208145,12.1708113 5.92827276,12.1396292 6.07520995,12.1463111 C6.65326231,12.1878872 7.21117608,12.3746084 7.69711301,12.6886566 L64.2462979,45.1870683 C67.2454573,47.192002 69.1507925,50.4586963 69.4133402,54.045007 L69.4133402,63.1330992 L5.04217442,26.1388993 L5.04217442,14.1657221 Z M5.04217442,31.9150089 L69.4133402,68.9088375 L69.4133402,160.532932 L5.04254736,123.539475 L5.04254736,31.9150089 L5.04217442,31.9150089 Z M41.2196751,160.417484 C41.2196751,161.611684 40.8788106,162.231984 40.586428,162.400516 C40.284722,162.576472 39.5533925,162.556798 38.4838091,161.941323 C35.4361679,159.904093 33.4998789,156.583944 33.233229,152.939353 C33.233229,151.745153 33.5740934,151.124852 33.866476,150.958548 C34.0037168,150.889131 34.156621,150.856464 34.310644,150.863146 C34.902495,150.904722 35.4742075,151.095526 35.9717054,151.41737 C39.0186008,153.454599 40.9541439,156.773635 41.2196751,160.417484 Z M69.4133402,182.983289 C69.4133402,184.089139 69.1172282,184.675288 68.846103,184.87129 L68.7372054,184.931798 C68.4202089,185.072117 67.7459388,185.028314 66.7587745,184.458498 L10.2095896,151.960087 C7.20968433,149.957009 5.30397621,146.690686 5.04254736,143.104747 L5.04254736,129.315584 L33.9600832,145.934521 C33.0486251,145.956793 32.1558139,146.194 31.3543723,146.626466 C29.2331066,148.007015 28.0292659,150.422884 28.2086486,152.939724 C28.4760445,158.373202 31.3685439,163.341547 35.9717054,166.274147 C37.2363348,167.03848 38.6807199,167.458695 40.1597881,167.492847 C41.1898401,167.502499 42.2038558,167.240421 43.0992776,166.733341 C45.2205433,165.351677 46.424384,162.935066 46.2446283,160.417855 C46.1032852,156.995622 44.890867,153.703314 42.7763141,151.001238 L69.4133402,166.309413 L69.4133402,182.983289 L69.4133402,182.983289 Z M81.9630435,175.773917 C81.9630435,176.897215 81.6270273,177.559092 81.2932486,177.715373 C81.214186,177.766601 81.1384798,177.822654 81.0665029,177.883162 C80.9986284,177.917314 80.9218034,177.921769 80.8565394,177.96186 L74.4379205,181.657308 L74.4379205,54.0446358 C74.1735082,48.6698099 71.3119625,43.7549198 66.7584016,40.8542437 L11.2940905,8.97910239 L18.1676925,5.0304856 C18.1960357,5.01860671 18.2262436,5.02269008 18.2545869,5.00969755 C18.543986,4.86789331 19.2480911,4.91689373 20.2565127,5.48336823 L76.8202421,37.9988559 C79.8134346,39.9941379 81.7120569,43.2548928 81.9626706,46.8322944 L81.9626706,175.773917 L81.9630435,175.773917 Z" id="Shape"></path>
                <path d="M40.7337993,36.4305121 L29.8007549,30.3286878 C29.0168422,29.8907404 28.0509565,29.890377 27.2666678,30.3279609 C26.4823791,30.7655448 25.9996242,31.5742028 26.0000002,32.4493707 C26.0003762,33.3245385 26.483507,34.1331965 27.2677957,34.570417 L38.2008401,40.6722413 C39.412615,41.3475162 40.9608896,40.945913 41.6602074,39.7749035 C42.3595252,38.6042575 41.9448222,37.1072407 40.7337993,36.4305121 Z" id="Shape"></path>
                <path d="M48.7778061,41.5194788 L46.6671202,40.3213773 C45.4974605,39.6592499 44.0029961,40.053034 43.3279831,41.2012442 C42.6529701,42.3494544 43.0532601,43.8173247 44.2221939,44.4805212 L46.3328798,45.6786227 C47.5025395,46.3407501 48.9970039,45.946966 49.6720169,44.7987558 C50.3470299,43.6505456 49.9467399,42.1826753 48.7778061,41.5194788 Z" id="Shape"></path>
                <path d="M59.812995,106.676117 C59.7886708,106.615724 59.7931614,106.550829 59.7635981,106.491562 L51.7792544,90.3939563 C51.1561792,89.149706 49.6465785,88.6451788 48.4030476,89.2648657 C47.1595168,89.8845527 46.6502043,91.3958835 47.263924,92.6446351 L54.3733428,106.978833 L47.8817601,112.55264 C47.1973129,113.139692 46.8777296,114.048591 47.0427604,114.936109 C47.2077911,115.823626 47.8331116,116.555847 48.6825895,116.855938 C49.5320673,117.156403 50.4769712,116.979725 51.1614183,116.392673 L59.145762,109.537105 C59.19703,109.493217 59.2183605,109.430948 59.2651379,109.384059 C59.4859273,109.142111 59.669669,108.868278 59.8107497,108.572314 C59.8672568,108.42452 59.9095436,108.271473 59.9364874,108.115426 C60.0173188,107.808584 60.021061,107.486737 59.9473398,107.178394 C59.920396,107.006592 59.8754897,106.838166 59.812995,106.676117 Z" id="Shape"></path>
                <path d="M24.9571133,75.0639191 C24.7921093,74.1763896 24.1668903,73.4441589 23.3175502,73.1440644 C22.4682101,72.8435947 21.5234596,73.0202754 20.8394976,73.6073353 L12.8542041,80.4629949 C12.8029444,80.5072588 12.7812432,80.5699036 12.7340992,80.6164182 C12.6166134,80.7383316 12.5122232,80.8722488 12.4227992,81.0155439 C12.1665006,81.4199213 12.0205787,81.8850678 12,82.3637186 C12.0145922,82.6904465 12.0774508,83.0130482 12.186331,83.3213953 C12.2110255,83.3829147 12.2065356,83.4478101 12.2364683,83.5082041 L20.2217617,99.606025 C20.8447358,100.850292 22.3540917,101.354826 23.5970467,100.735131 C24.8403758,100.115435 25.3496057,98.6040844 24.7359855,97.355316 L17.6258491,83.0213008 L24.1182496,77.4470448 C24.8025858,76.8599849 25.1224914,75.9514487 24.9571133,75.0639191 Z" id="Shape"></path>
                <path d="M32.9674274,70.9214326 C32.6456048,69.5784539 31.2880443,68.7486942 29.935343,69.0685747 C28.5826417,69.3880841 27.7468748,70.735887 28.0690711,72.0788657 L40.0325726,122.078567 C40.3543952,123.421546 41.7119557,124.251306 43.064657,123.931425 C44.4173583,123.611916 45.2531252,122.264113 44.9309289,120.921134 L32.9674274,70.9214326 Z" id="Shape"></path>
            </g>
        </g>
    </g>
</svg>